%TF.GenerationSoftware,KiCad,Pcbnew,7.0.11-7.0.11~ubuntu22.04.1*%
%TF.CreationDate,2024-08-16T07:19:45+02:00*%
%TF.ProjectId,Fri3dGadget,46726933-6447-4616-9467-65742e6b6963,rev?*%
%TF.SameCoordinates,Original*%
%TF.FileFunction,Copper,L2,Bot*%
%TF.FilePolarity,Positive*%
%FSLAX46Y46*%
G04 Gerber Fmt 4.6, Leading zero omitted, Abs format (unit mm)*
G04 Created by KiCad (PCBNEW 7.0.11-7.0.11~ubuntu22.04.1) date 2024-08-16 07:19:45*
%MOMM*%
%LPD*%
G01*
G04 APERTURE LIST*
%TA.AperFunction,HeatsinkPad*%
%ADD10C,0.600000*%
%TD*%
%TA.AperFunction,ComponentPad*%
%ADD11O,1.000000X2.100000*%
%TD*%
%TA.AperFunction,ComponentPad*%
%ADD12O,1.000000X1.600000*%
%TD*%
%TA.AperFunction,ViaPad*%
%ADD13C,0.600000*%
%TD*%
%TA.AperFunction,Conductor*%
%ADD14C,0.500000*%
%TD*%
%TA.AperFunction,Conductor*%
%ADD15C,0.200000*%
%TD*%
G04 APERTURE END LIST*
D10*
%TO.P,U1,41,GND*%
%TO.N,GND*%
X128200000Y-59700000D03*
X126800000Y-59700000D03*
X128900000Y-60400000D03*
X127500000Y-60400000D03*
X126100000Y-60400000D03*
X128200000Y-61100000D03*
X126800000Y-61100000D03*
X128900000Y-61800000D03*
X127500000Y-61800000D03*
X126100000Y-61800000D03*
X128200000Y-62500000D03*
X126800000Y-62500000D03*
%TD*%
D11*
%TO.P,J1,S1,SHIELD*%
%TO.N,Net-(J1-SHIELD)*%
X135240000Y-49680000D03*
D12*
X135240000Y-45500000D03*
D11*
X126600000Y-49680000D03*
D12*
X126600000Y-45500000D03*
%TD*%
D13*
%TO.N,/COL1*%
X67600000Y-58000000D03*
X67600000Y-49000000D03*
X67600000Y-55000000D03*
X102300000Y-48145000D03*
X67600000Y-67017678D03*
X67600000Y-61000000D03*
X67600000Y-52000000D03*
X67600000Y-64000000D03*
X67600000Y-70125826D03*
%TO.N,/COL2*%
X70600000Y-58000000D03*
X70600000Y-70125826D03*
X70600000Y-64000000D03*
X70600000Y-61000000D03*
X70600000Y-67017678D03*
X97350000Y-46875000D03*
X70600000Y-55000000D03*
X70600000Y-49000000D03*
X70600000Y-52000000D03*
%TO.N,/COL3*%
X73600000Y-58000000D03*
X73600000Y-67017678D03*
X73600000Y-52000000D03*
X73600000Y-49000000D03*
X73600000Y-61000000D03*
X73600000Y-70125826D03*
X97350000Y-48145000D03*
X73600000Y-64000000D03*
X73600000Y-55000000D03*
%TO.N,/COL4*%
X97350000Y-49415000D03*
X76600000Y-58000000D03*
X76600000Y-49000000D03*
X76600000Y-52000000D03*
X76600000Y-70125826D03*
X76600000Y-64000000D03*
X76600000Y-61000000D03*
X76600000Y-55000000D03*
X76600000Y-67017678D03*
%TO.N,/COL5*%
X79600000Y-67017678D03*
X79600000Y-70125826D03*
X79600000Y-55000000D03*
X97350000Y-50685000D03*
X79600000Y-61000000D03*
X79600000Y-58000000D03*
X79600000Y-64000000D03*
X79600000Y-52000000D03*
X79600000Y-49000000D03*
%TO.N,/COL6*%
X82600000Y-64000000D03*
X82600000Y-49000000D03*
X82600000Y-58000000D03*
X82600000Y-52000000D03*
X82600000Y-61000000D03*
X82600000Y-67017678D03*
X82600000Y-70125826D03*
X97350000Y-51955000D03*
X82600000Y-55000000D03*
%TO.N,/COL7*%
X85600000Y-64000000D03*
X85600000Y-67017678D03*
X85600000Y-61000000D03*
X85600000Y-55000000D03*
X85600000Y-70125826D03*
X85600000Y-58000000D03*
X85600000Y-49000000D03*
X97355000Y-53250000D03*
X85600000Y-52000000D03*
%TO.N,/COL8*%
X88600000Y-67017678D03*
X88600000Y-61000000D03*
X88600000Y-64000000D03*
X88600000Y-52000000D03*
X88600000Y-55000000D03*
X88600000Y-58000000D03*
X88600000Y-70125826D03*
X88600000Y-49000000D03*
X97350000Y-54495000D03*
%TO.N,GND*%
X121555477Y-68481750D03*
X134255477Y-60861750D03*
X97350000Y-57700000D03*
X131715477Y-63401750D03*
X134255477Y-48161750D03*
X116475477Y-71021750D03*
X121555477Y-63401750D03*
X121555477Y-45621750D03*
X121555477Y-48161750D03*
X131715477Y-68481750D03*
X126635477Y-68481750D03*
X129175477Y-65941750D03*
X119015477Y-63401750D03*
X124095477Y-63401750D03*
X119015477Y-60861750D03*
X121555477Y-65941750D03*
X119015477Y-48161750D03*
X119015477Y-65941750D03*
X131715477Y-65941750D03*
X93615477Y-71021750D03*
X97350000Y-71700000D03*
X134255477Y-68481750D03*
X134255477Y-58321750D03*
X129175477Y-68481750D03*
X130650000Y-48550000D03*
X68215477Y-45621750D03*
X134255477Y-65941750D03*
X119015477Y-58321750D03*
X126635477Y-58321750D03*
X134255477Y-63401750D03*
X124095477Y-60861750D03*
X126635477Y-65941750D03*
X119015477Y-68481750D03*
X124095477Y-58321750D03*
X124095477Y-65941750D03*
X78375477Y-71021750D03*
X131715477Y-60861750D03*
X108855477Y-50701750D03*
X80915477Y-71021750D03*
X119015477Y-45621750D03*
X131715477Y-58321750D03*
X124095477Y-68481750D03*
X80915477Y-58321750D03*
X97350000Y-56850000D03*
X121555477Y-58321750D03*
X121555477Y-60861750D03*
%TO.N,+5V*%
X102125000Y-57050000D03*
X133298804Y-51052951D03*
X102300000Y-54495000D03*
X106100000Y-60237500D03*
X105100000Y-50250000D03*
X102305000Y-61860000D03*
X106075000Y-70362500D03*
X106100000Y-65325000D03*
X102300000Y-46875000D03*
X128543377Y-51060877D03*
X105850000Y-51000000D03*
X106100000Y-55325000D03*
X105100000Y-49250000D03*
X102305000Y-69480000D03*
X107100000Y-51000000D03*
%TO.N,+3V3*%
X111350000Y-48000000D03*
X113350000Y-49750000D03*
X112100000Y-53587500D03*
X133950000Y-55450000D03*
X111350000Y-49000000D03*
X112075000Y-68537500D03*
X133950000Y-53850000D03*
X112100000Y-49750000D03*
X107600000Y-47500000D03*
X112100000Y-63500000D03*
X112100000Y-58500000D03*
%TO.N,/OE*%
X102300000Y-65662500D03*
X102325000Y-50685000D03*
X99650000Y-50685000D03*
X113400000Y-60300000D03*
X99655000Y-65672500D03*
X127600000Y-56000000D03*
%TO.N,/RCLK*%
X100280000Y-66942500D03*
X113400000Y-65300000D03*
X100280000Y-51955000D03*
X102300000Y-66932500D03*
X102325000Y-51955000D03*
X128870000Y-56600000D03*
%TO.N,/SRCLK*%
X100880000Y-68212500D03*
X100880000Y-53225000D03*
X102300000Y-68202500D03*
X102325000Y-53225000D03*
X130140000Y-57200000D03*
X113400000Y-70300000D03*
%TO.N,/SER*%
X113500000Y-55400000D03*
X131410000Y-55400000D03*
%TO.N,/ROW1*%
X98350000Y-60250000D03*
X102305000Y-63130000D03*
%TO.N,Net-(U2-QH')*%
X102310000Y-70750000D03*
X102325000Y-49415000D03*
X99050000Y-49415000D03*
X99040000Y-70760000D03*
%TD*%
D14*
%TO.N,/COL1*%
X67600000Y-70662913D02*
X67600000Y-49000000D01*
D15*
X102305000Y-48150000D02*
X100155000Y-46000000D01*
X70600000Y-46000000D02*
X67600000Y-49000000D01*
X100155000Y-46000000D02*
X70600000Y-46000000D01*
%TO.N,/COL2*%
X70600000Y-49000000D02*
X73200000Y-46400000D01*
X73200000Y-46400000D02*
X96875000Y-46400000D01*
X96875000Y-46400000D02*
X97350000Y-46875000D01*
D14*
X70600000Y-49000000D02*
X70600000Y-70662913D01*
%TO.N,/COL3*%
X73600000Y-70662913D02*
X73600000Y-49000000D01*
D15*
X75800000Y-46800000D02*
X96005000Y-46800000D01*
X73600000Y-49000000D02*
X75800000Y-46800000D01*
X96005000Y-46800000D02*
X97350000Y-48145000D01*
%TO.N,/COL4*%
X78400000Y-47200000D02*
X95135000Y-47200000D01*
X95135000Y-47200000D02*
X97350000Y-49415000D01*
X76600000Y-49000000D02*
X78400000Y-47200000D01*
D14*
X76600000Y-49000000D02*
X76600000Y-70662913D01*
%TO.N,/COL5*%
X79600000Y-70662913D02*
X79600000Y-49000000D01*
D15*
X81000000Y-47600000D02*
X94265000Y-47600000D01*
X94265000Y-47600000D02*
X97350000Y-50685000D01*
X79600000Y-49000000D02*
X81000000Y-47600000D01*
%TO.N,/COL6*%
X93395000Y-48000000D02*
X97350000Y-51955000D01*
D14*
X82600000Y-49000000D02*
X82600000Y-70662913D01*
D15*
X82600000Y-49000000D02*
X83600000Y-48000000D01*
X83600000Y-48000000D02*
X93395000Y-48000000D01*
D14*
%TO.N,/COL7*%
X85600000Y-70662913D02*
X85600000Y-49000000D01*
X85600000Y-49000000D02*
X85600000Y-52000000D01*
D15*
X92505000Y-48400000D02*
X86200000Y-48400000D01*
X86200000Y-48400000D02*
X85600000Y-49000000D01*
X97355000Y-53250000D02*
X92505000Y-48400000D01*
%TO.N,/COL8*%
X88600000Y-49000000D02*
X91855000Y-49000000D01*
D14*
X88600000Y-49000000D02*
X88600000Y-70662913D01*
D15*
X91855000Y-49000000D02*
X97350000Y-54495000D01*
D14*
%TO.N,+5V*%
X128543377Y-51060877D02*
X128551303Y-51052951D01*
X128551303Y-51052951D02*
X133298804Y-51052951D01*
D15*
%TO.N,Net-(J1-SHIELD)*%
X126600000Y-49680000D02*
X126600000Y-45500000D01*
X126600000Y-45500000D02*
X135240000Y-45500000D01*
X135240000Y-45500000D02*
X135240000Y-49680000D01*
D14*
%TO.N,+3V3*%
X132100000Y-53850000D02*
X112362500Y-53850000D01*
X133950000Y-54800000D02*
X133950000Y-54550000D01*
X133950000Y-54550000D02*
X133250000Y-53850000D01*
X112362500Y-53850000D02*
X112100000Y-53587500D01*
X133950000Y-54800000D02*
X133950000Y-53850000D01*
X133687500Y-53587500D02*
X133950000Y-53850000D01*
X133850000Y-54800000D02*
X132900000Y-53850000D01*
X133950000Y-53850000D02*
X133250000Y-53850000D01*
X133250000Y-53850000D02*
X132900000Y-53850000D01*
X132900000Y-53850000D02*
X132100000Y-53850000D01*
X133950000Y-55450000D02*
X133950000Y-54800000D01*
X132350000Y-53850000D02*
X132100000Y-53850000D01*
X112100000Y-53587500D02*
X133687500Y-53587500D01*
X133950000Y-55450000D02*
X132350000Y-53850000D01*
X133950000Y-54800000D02*
X133850000Y-54800000D01*
D15*
%TO.N,/OE*%
X102325000Y-50685000D02*
X99650000Y-50685000D01*
X113400000Y-57000000D02*
X114400000Y-56000000D01*
X99655000Y-65672500D02*
X102180000Y-65672500D01*
X114400000Y-56000000D02*
X127600000Y-56000000D01*
X113400000Y-60300000D02*
X113400000Y-57000000D01*
%TO.N,/RCLK*%
X113400000Y-65300000D02*
X114000000Y-64700000D01*
X114000000Y-57400000D02*
X114800000Y-56600000D01*
X114000000Y-64700000D02*
X114000000Y-57400000D01*
X114800000Y-56600000D02*
X128870000Y-56600000D01*
X102325000Y-51955000D02*
X100280000Y-51955000D01*
X102320000Y-66942500D02*
X100280000Y-66942500D01*
%TO.N,/SRCLK*%
X115000000Y-57200000D02*
X130140000Y-57200000D01*
X114400000Y-69300000D02*
X114400000Y-57800000D01*
X102325000Y-53225000D02*
X100880000Y-53225000D01*
X102195000Y-68212500D02*
X100880000Y-68212500D01*
X114400000Y-57800000D02*
X115000000Y-57200000D01*
X113400000Y-70300000D02*
X114400000Y-69300000D01*
%TO.N,/SER*%
X131410000Y-55400000D02*
X113500000Y-55400000D01*
%TO.N,/ROW1*%
X98350000Y-62750000D02*
X98730000Y-63130000D01*
X98350000Y-60250000D02*
X98350000Y-62750000D01*
X98730000Y-63130000D02*
X102305000Y-63130000D01*
%TO.N,Net-(U2-QH')*%
X102325000Y-49415000D02*
X99050000Y-49415000D01*
X102340000Y-70760000D02*
X99040000Y-70760000D01*
%TD*%
%TA.AperFunction,Conductor*%
%TO.N,GND*%
G36*
X130100000Y-63550000D02*
G01*
X125000000Y-63550000D01*
X125000000Y-58700000D01*
X130100000Y-58700000D01*
X130100000Y-63550000D01*
G37*
%TD.AperFunction*%
%TD*%
%TA.AperFunction,Conductor*%
%TO.N,GND*%
G36*
X136653039Y-43174823D02*
G01*
X136698794Y-43227627D01*
X136710000Y-43279138D01*
X136710000Y-73625500D01*
X136690315Y-73692539D01*
X136637511Y-73738294D01*
X136586000Y-73749500D01*
X67006092Y-73749500D01*
X66993938Y-73748903D01*
X66847325Y-73734463D01*
X66823484Y-73729721D01*
X66688361Y-73688732D01*
X66665904Y-73679430D01*
X66541376Y-73612870D01*
X66521164Y-73599365D01*
X66412013Y-73509789D01*
X66394825Y-73492601D01*
X66305249Y-73383455D01*
X66291744Y-73363245D01*
X66260846Y-73305443D01*
X66225176Y-73238712D01*
X66215877Y-73216263D01*
X66174882Y-73081132D01*
X66170142Y-73057305D01*
X66155735Y-72911067D01*
X66155138Y-72898910D01*
X66155138Y-70125826D01*
X67044750Y-70125826D01*
X67063670Y-70269535D01*
X67076288Y-70299999D01*
X67090061Y-70333248D01*
X67099500Y-70380701D01*
X67099500Y-70698710D01*
X67114834Y-70805369D01*
X67143996Y-70869223D01*
X67174623Y-70936286D01*
X67268872Y-71045056D01*
X67389947Y-71122866D01*
X67389950Y-71122867D01*
X67389949Y-71122867D01*
X67528036Y-71163412D01*
X67528038Y-71163413D01*
X67528039Y-71163413D01*
X67671962Y-71163413D01*
X67671962Y-71163412D01*
X67779121Y-71131948D01*
X67810050Y-71122867D01*
X67810050Y-71122866D01*
X67810053Y-71122866D01*
X67931128Y-71045056D01*
X68025377Y-70936286D01*
X68085165Y-70805370D01*
X68100500Y-70698712D01*
X68100500Y-70380701D01*
X68109939Y-70333248D01*
X68136330Y-70269535D01*
X68155250Y-70125826D01*
X68136330Y-69982117D01*
X68109937Y-69918398D01*
X68100500Y-69870950D01*
X68100500Y-67272553D01*
X68109939Y-67225100D01*
X68112001Y-67220122D01*
X68136330Y-67161387D01*
X68155250Y-67017678D01*
X68136330Y-66873969D01*
X68109937Y-66810250D01*
X68100500Y-66762802D01*
X68100500Y-64254875D01*
X68109939Y-64207422D01*
X68136330Y-64143709D01*
X68155250Y-64000000D01*
X68136330Y-63856291D01*
X68109937Y-63792572D01*
X68100500Y-63745124D01*
X68100500Y-61254875D01*
X68109939Y-61207422D01*
X68117555Y-61189036D01*
X68136330Y-61143709D01*
X68155250Y-61000000D01*
X68136330Y-60856291D01*
X68109937Y-60792572D01*
X68100500Y-60745124D01*
X68100500Y-58254875D01*
X68109939Y-58207422D01*
X68136330Y-58143709D01*
X68155250Y-58000000D01*
X68136330Y-57856291D01*
X68109937Y-57792572D01*
X68100500Y-57745124D01*
X68100500Y-55254875D01*
X68109939Y-55207422D01*
X68115033Y-55195124D01*
X68136330Y-55143709D01*
X68155250Y-55000000D01*
X68136330Y-54856291D01*
X68109937Y-54792572D01*
X68100500Y-54745124D01*
X68100500Y-52254875D01*
X68109939Y-52207422D01*
X68136330Y-52143709D01*
X68155250Y-52000000D01*
X68136330Y-51856291D01*
X68109937Y-51792572D01*
X68100500Y-51745124D01*
X68100500Y-49254875D01*
X68109939Y-49207422D01*
X68136330Y-49143709D01*
X68155250Y-49000000D01*
X68155250Y-48999999D01*
X68155250Y-48991871D01*
X68159049Y-48991871D01*
X68166388Y-48940418D01*
X68191556Y-48904124D01*
X70708863Y-46386819D01*
X70770186Y-46353334D01*
X70796544Y-46350500D01*
X72454456Y-46350500D01*
X72521495Y-46370185D01*
X72567250Y-46422989D01*
X72577194Y-46492147D01*
X72548169Y-46555703D01*
X72542137Y-46562181D01*
X70695877Y-48408439D01*
X70634554Y-48441924D01*
X70608128Y-48443208D01*
X70608128Y-48444750D01*
X70600000Y-48444750D01*
X70456291Y-48463670D01*
X70456287Y-48463671D01*
X70322377Y-48519137D01*
X70207379Y-48607379D01*
X70119137Y-48722377D01*
X70063671Y-48856287D01*
X70063670Y-48856291D01*
X70044750Y-48999999D01*
X70044750Y-49000000D01*
X70063670Y-49143708D01*
X70063670Y-49143709D01*
X70090061Y-49207422D01*
X70099500Y-49254875D01*
X70099500Y-51745124D01*
X70090062Y-51792572D01*
X70073807Y-51831818D01*
X70063669Y-51856293D01*
X70046575Y-51986136D01*
X70044750Y-52000000D01*
X70058639Y-52105499D01*
X70063670Y-52143708D01*
X70063670Y-52143709D01*
X70090061Y-52207422D01*
X70099500Y-52254875D01*
X70099500Y-54745124D01*
X70090062Y-54792575D01*
X70063669Y-54856293D01*
X70047656Y-54977926D01*
X70044750Y-55000000D01*
X70048874Y-55031328D01*
X70063670Y-55143708D01*
X70063670Y-55143709D01*
X70090061Y-55207422D01*
X70099500Y-55254875D01*
X70099500Y-57745124D01*
X70090062Y-57792575D01*
X70063669Y-57856293D01*
X70044750Y-57999999D01*
X70044750Y-58000000D01*
X70063670Y-58143708D01*
X70063670Y-58143709D01*
X70090061Y-58207422D01*
X70099500Y-58254875D01*
X70099500Y-60745124D01*
X70090062Y-60792575D01*
X70063669Y-60856293D01*
X70050969Y-60952764D01*
X70044750Y-61000000D01*
X70057915Y-61100000D01*
X70063670Y-61143708D01*
X70063670Y-61143709D01*
X70090061Y-61207422D01*
X70099500Y-61254875D01*
X70099500Y-63745124D01*
X70090062Y-63792575D01*
X70063669Y-63856293D01*
X70044750Y-63999999D01*
X70044750Y-64000000D01*
X70063670Y-64143708D01*
X70063670Y-64143709D01*
X70090061Y-64207422D01*
X70099500Y-64254875D01*
X70099500Y-66762802D01*
X70090062Y-66810253D01*
X70063669Y-66873971D01*
X70044750Y-67017677D01*
X70044750Y-67017678D01*
X70053772Y-67086209D01*
X70063670Y-67161386D01*
X70063670Y-67161387D01*
X70090061Y-67225100D01*
X70099500Y-67272553D01*
X70099500Y-69870950D01*
X70090062Y-69918401D01*
X70063669Y-69982119D01*
X70044750Y-70125825D01*
X70044750Y-70125826D01*
X70063670Y-70269535D01*
X70076288Y-70299999D01*
X70090061Y-70333248D01*
X70099500Y-70380701D01*
X70099500Y-70698710D01*
X70114834Y-70805369D01*
X70143996Y-70869223D01*
X70174623Y-70936286D01*
X70268872Y-71045056D01*
X70389947Y-71122866D01*
X70389950Y-71122867D01*
X70389949Y-71122867D01*
X70528036Y-71163412D01*
X70528038Y-71163413D01*
X70528039Y-71163413D01*
X70671962Y-71163413D01*
X70671962Y-71163412D01*
X70779121Y-71131948D01*
X70810050Y-71122867D01*
X70810050Y-71122866D01*
X70810053Y-71122866D01*
X70931128Y-71045056D01*
X71025377Y-70936286D01*
X71085165Y-70805370D01*
X71100500Y-70698712D01*
X71100500Y-70380701D01*
X71109939Y-70333248D01*
X71136330Y-70269535D01*
X71155250Y-70125826D01*
X71136330Y-69982117D01*
X71109937Y-69918398D01*
X71100500Y-69870950D01*
X71100500Y-67272553D01*
X71109939Y-67225100D01*
X71112001Y-67220122D01*
X71136330Y-67161387D01*
X71155250Y-67017678D01*
X71136330Y-66873969D01*
X71109937Y-66810250D01*
X71100500Y-66762802D01*
X71100500Y-64254875D01*
X71109939Y-64207422D01*
X71136330Y-64143709D01*
X71155250Y-64000000D01*
X71136330Y-63856291D01*
X71109937Y-63792572D01*
X71100500Y-63745124D01*
X71100500Y-61254875D01*
X71109939Y-61207422D01*
X71117555Y-61189036D01*
X71136330Y-61143709D01*
X71155250Y-61000000D01*
X71136330Y-60856291D01*
X71109937Y-60792572D01*
X71100500Y-60745124D01*
X71100500Y-58254875D01*
X71109939Y-58207422D01*
X71136330Y-58143709D01*
X71155250Y-58000000D01*
X71136330Y-57856291D01*
X71109937Y-57792572D01*
X71100500Y-57745124D01*
X71100500Y-55254875D01*
X71109939Y-55207422D01*
X71115033Y-55195124D01*
X71136330Y-55143709D01*
X71155250Y-55000000D01*
X71136330Y-54856291D01*
X71109937Y-54792572D01*
X71100500Y-54745124D01*
X71100500Y-52254875D01*
X71109939Y-52207422D01*
X71136330Y-52143709D01*
X71155250Y-52000000D01*
X71136330Y-51856291D01*
X71109937Y-51792572D01*
X71100500Y-51745124D01*
X71100500Y-49254875D01*
X71109939Y-49207422D01*
X71136330Y-49143709D01*
X71155250Y-49000000D01*
X71155250Y-48999999D01*
X71155250Y-48991871D01*
X71159049Y-48991871D01*
X71166388Y-48940418D01*
X71191556Y-48904124D01*
X73308863Y-46786819D01*
X73370186Y-46753334D01*
X73396544Y-46750500D01*
X75054456Y-46750500D01*
X75121495Y-46770185D01*
X75167250Y-46822989D01*
X75177194Y-46892147D01*
X75148169Y-46955703D01*
X75142137Y-46962181D01*
X73695877Y-48408439D01*
X73634554Y-48441924D01*
X73608128Y-48443208D01*
X73608128Y-48444750D01*
X73600000Y-48444750D01*
X73456291Y-48463670D01*
X73456287Y-48463671D01*
X73322377Y-48519137D01*
X73207379Y-48607379D01*
X73119137Y-48722377D01*
X73063671Y-48856287D01*
X73063670Y-48856291D01*
X73044750Y-48999999D01*
X73044750Y-49000000D01*
X73063670Y-49143708D01*
X73063670Y-49143709D01*
X73090061Y-49207422D01*
X73099500Y-49254875D01*
X73099500Y-51745124D01*
X73090062Y-51792572D01*
X73073807Y-51831818D01*
X73063669Y-51856293D01*
X73046575Y-51986136D01*
X73044750Y-52000000D01*
X73058639Y-52105499D01*
X73063670Y-52143708D01*
X73063670Y-52143709D01*
X73090061Y-52207422D01*
X73099500Y-52254875D01*
X73099500Y-54745124D01*
X73090062Y-54792575D01*
X73063669Y-54856293D01*
X73047656Y-54977926D01*
X73044750Y-55000000D01*
X73048874Y-55031328D01*
X73063670Y-55143708D01*
X73063670Y-55143709D01*
X73090061Y-55207422D01*
X73099500Y-55254875D01*
X73099500Y-57745124D01*
X73090062Y-57792575D01*
X73063669Y-57856293D01*
X73044750Y-57999999D01*
X73044750Y-58000000D01*
X73063670Y-58143708D01*
X73063670Y-58143709D01*
X73090061Y-58207422D01*
X73099500Y-58254875D01*
X73099500Y-60745124D01*
X73090062Y-60792575D01*
X73063669Y-60856293D01*
X73050969Y-60952764D01*
X73044750Y-61000000D01*
X73057915Y-61100000D01*
X73063670Y-61143708D01*
X73063670Y-61143709D01*
X73090061Y-61207422D01*
X73099500Y-61254875D01*
X73099500Y-63745124D01*
X73090062Y-63792575D01*
X73063669Y-63856293D01*
X73044750Y-63999999D01*
X73044750Y-64000000D01*
X73063670Y-64143708D01*
X73063670Y-64143709D01*
X73090061Y-64207422D01*
X73099500Y-64254875D01*
X73099500Y-66762802D01*
X73090062Y-66810253D01*
X73063669Y-66873971D01*
X73044750Y-67017677D01*
X73044750Y-67017678D01*
X73053772Y-67086209D01*
X73063670Y-67161386D01*
X73063670Y-67161387D01*
X73090061Y-67225100D01*
X73099500Y-67272553D01*
X73099500Y-69870950D01*
X73090062Y-69918401D01*
X73063669Y-69982119D01*
X73044750Y-70125825D01*
X73044750Y-70125826D01*
X73063670Y-70269535D01*
X73076288Y-70299999D01*
X73090061Y-70333248D01*
X73099500Y-70380701D01*
X73099500Y-70698710D01*
X73114834Y-70805369D01*
X73143996Y-70869223D01*
X73174623Y-70936286D01*
X73268872Y-71045056D01*
X73389947Y-71122866D01*
X73389950Y-71122867D01*
X73389949Y-71122867D01*
X73528036Y-71163412D01*
X73528038Y-71163413D01*
X73528039Y-71163413D01*
X73671962Y-71163413D01*
X73671962Y-71163412D01*
X73779121Y-71131948D01*
X73810050Y-71122867D01*
X73810050Y-71122866D01*
X73810053Y-71122866D01*
X73931128Y-71045056D01*
X74025377Y-70936286D01*
X74085165Y-70805370D01*
X74100500Y-70698712D01*
X74100500Y-70380701D01*
X74109939Y-70333248D01*
X74136330Y-70269535D01*
X74155250Y-70125826D01*
X74136330Y-69982117D01*
X74109937Y-69918398D01*
X74100500Y-69870950D01*
X74100500Y-67272553D01*
X74109939Y-67225100D01*
X74112001Y-67220122D01*
X74136330Y-67161387D01*
X74155250Y-67017678D01*
X74136330Y-66873969D01*
X74109937Y-66810250D01*
X74100500Y-66762802D01*
X74100500Y-64254875D01*
X74109939Y-64207422D01*
X74136330Y-64143709D01*
X74155250Y-64000000D01*
X74136330Y-63856291D01*
X74109937Y-63792572D01*
X74100500Y-63745124D01*
X74100500Y-61254875D01*
X74109939Y-61207422D01*
X74117555Y-61189036D01*
X74136330Y-61143709D01*
X74155250Y-61000000D01*
X74136330Y-60856291D01*
X74109937Y-60792572D01*
X74100500Y-60745124D01*
X74100500Y-58254875D01*
X74109939Y-58207422D01*
X74136330Y-58143709D01*
X74155250Y-58000000D01*
X74136330Y-57856291D01*
X74109937Y-57792572D01*
X74100500Y-57745124D01*
X74100500Y-55254875D01*
X74109939Y-55207422D01*
X74115033Y-55195124D01*
X74136330Y-55143709D01*
X74155250Y-55000000D01*
X74136330Y-54856291D01*
X74109937Y-54792572D01*
X74100500Y-54745124D01*
X74100500Y-52254875D01*
X74109939Y-52207422D01*
X74136330Y-52143709D01*
X74155250Y-52000000D01*
X74136330Y-51856291D01*
X74109937Y-51792572D01*
X74100500Y-51745124D01*
X74100500Y-49254875D01*
X74109939Y-49207422D01*
X74136330Y-49143709D01*
X74155250Y-49000000D01*
X74155250Y-48999999D01*
X74155250Y-48991871D01*
X74159013Y-48991871D01*
X74166492Y-48940188D01*
X74191556Y-48904123D01*
X75908862Y-47186819D01*
X75970185Y-47153334D01*
X75996543Y-47150500D01*
X77654456Y-47150500D01*
X77721495Y-47170185D01*
X77767250Y-47222989D01*
X77777194Y-47292147D01*
X77748169Y-47355703D01*
X77742137Y-47362181D01*
X76695877Y-48408439D01*
X76634554Y-48441924D01*
X76608128Y-48443208D01*
X76608128Y-48444750D01*
X76600000Y-48444750D01*
X76456291Y-48463670D01*
X76456287Y-48463671D01*
X76322377Y-48519137D01*
X76207379Y-48607379D01*
X76119137Y-48722377D01*
X76063671Y-48856287D01*
X76063670Y-48856291D01*
X76044750Y-48999999D01*
X76044750Y-49000000D01*
X76063670Y-49143708D01*
X76063670Y-49143709D01*
X76090061Y-49207422D01*
X76099500Y-49254875D01*
X76099500Y-51745124D01*
X76090062Y-51792572D01*
X76073807Y-51831818D01*
X76063669Y-51856293D01*
X76046575Y-51986136D01*
X76044750Y-52000000D01*
X76058639Y-52105499D01*
X76063670Y-52143708D01*
X76063670Y-52143709D01*
X76090061Y-52207422D01*
X76099500Y-52254875D01*
X76099500Y-54745124D01*
X76090062Y-54792575D01*
X76063669Y-54856293D01*
X76047656Y-54977926D01*
X76044750Y-55000000D01*
X76048874Y-55031328D01*
X76063670Y-55143708D01*
X76063670Y-55143709D01*
X76090061Y-55207422D01*
X76099500Y-55254875D01*
X76099500Y-57745124D01*
X76090062Y-57792575D01*
X76063669Y-57856293D01*
X76044750Y-57999999D01*
X76044750Y-58000000D01*
X76063670Y-58143708D01*
X76063670Y-58143709D01*
X76090061Y-58207422D01*
X76099500Y-58254875D01*
X76099500Y-60745124D01*
X76090062Y-60792575D01*
X76063669Y-60856293D01*
X76050969Y-60952764D01*
X76044750Y-61000000D01*
X76057915Y-61100000D01*
X76063670Y-61143708D01*
X76063670Y-61143709D01*
X76090061Y-61207422D01*
X76099500Y-61254875D01*
X76099500Y-63745124D01*
X76090062Y-63792575D01*
X76063669Y-63856293D01*
X76044750Y-63999999D01*
X76044750Y-64000000D01*
X76063670Y-64143708D01*
X76063670Y-64143709D01*
X76090061Y-64207422D01*
X76099500Y-64254875D01*
X76099500Y-66762802D01*
X76090062Y-66810253D01*
X76063669Y-66873971D01*
X76044750Y-67017677D01*
X76044750Y-67017678D01*
X76053772Y-67086209D01*
X76063670Y-67161386D01*
X76063670Y-67161387D01*
X76090061Y-67225100D01*
X76099500Y-67272553D01*
X76099500Y-69870950D01*
X76090062Y-69918401D01*
X76063669Y-69982119D01*
X76044750Y-70125825D01*
X76044750Y-70125826D01*
X76063670Y-70269535D01*
X76076288Y-70299999D01*
X76090061Y-70333248D01*
X76099500Y-70380701D01*
X76099500Y-70698710D01*
X76114834Y-70805369D01*
X76143996Y-70869223D01*
X76174623Y-70936286D01*
X76268872Y-71045056D01*
X76389947Y-71122866D01*
X76389950Y-71122867D01*
X76389949Y-71122867D01*
X76528036Y-71163412D01*
X76528038Y-71163413D01*
X76528039Y-71163413D01*
X76671962Y-71163413D01*
X76671962Y-71163412D01*
X76779121Y-71131948D01*
X76810050Y-71122867D01*
X76810050Y-71122866D01*
X76810053Y-71122866D01*
X76931128Y-71045056D01*
X77025377Y-70936286D01*
X77085165Y-70805370D01*
X77100500Y-70698712D01*
X77100500Y-70380701D01*
X77109939Y-70333248D01*
X77136330Y-70269535D01*
X77155250Y-70125826D01*
X77136330Y-69982117D01*
X77109937Y-69918398D01*
X77100500Y-69870950D01*
X77100500Y-67272553D01*
X77109939Y-67225100D01*
X77112001Y-67220122D01*
X77136330Y-67161387D01*
X77155250Y-67017678D01*
X77136330Y-66873969D01*
X77109937Y-66810250D01*
X77100500Y-66762802D01*
X77100500Y-64254875D01*
X77109939Y-64207422D01*
X77136330Y-64143709D01*
X77155250Y-64000000D01*
X77136330Y-63856291D01*
X77109937Y-63792572D01*
X77100500Y-63745124D01*
X77100500Y-61254875D01*
X77109939Y-61207422D01*
X77117555Y-61189036D01*
X77136330Y-61143709D01*
X77155250Y-61000000D01*
X77136330Y-60856291D01*
X77109937Y-60792572D01*
X77100500Y-60745124D01*
X77100500Y-58254875D01*
X77109939Y-58207422D01*
X77136330Y-58143709D01*
X77155250Y-58000000D01*
X77136330Y-57856291D01*
X77109937Y-57792572D01*
X77100500Y-57745124D01*
X77100500Y-55254875D01*
X77109939Y-55207422D01*
X77115033Y-55195124D01*
X77136330Y-55143709D01*
X77155250Y-55000000D01*
X77136330Y-54856291D01*
X77109937Y-54792572D01*
X77100500Y-54745124D01*
X77100500Y-52254875D01*
X77109939Y-52207422D01*
X77136330Y-52143709D01*
X77155250Y-52000000D01*
X77136330Y-51856291D01*
X77109937Y-51792572D01*
X77100500Y-51745124D01*
X77100500Y-49254875D01*
X77109939Y-49207422D01*
X77136330Y-49143709D01*
X77155250Y-49000000D01*
X77155250Y-48999999D01*
X77155250Y-48991871D01*
X77159049Y-48991871D01*
X77166388Y-48940418D01*
X77191556Y-48904124D01*
X78508863Y-47586819D01*
X78570186Y-47553334D01*
X78596544Y-47550500D01*
X80254456Y-47550500D01*
X80321495Y-47570185D01*
X80367250Y-47622989D01*
X80377194Y-47692147D01*
X80348169Y-47755703D01*
X80342137Y-47762181D01*
X79695877Y-48408439D01*
X79634554Y-48441924D01*
X79608128Y-48443208D01*
X79608128Y-48444750D01*
X79600000Y-48444750D01*
X79456291Y-48463670D01*
X79456287Y-48463671D01*
X79322377Y-48519137D01*
X79207379Y-48607379D01*
X79119137Y-48722377D01*
X79063671Y-48856287D01*
X79063670Y-48856291D01*
X79044750Y-48999999D01*
X79044750Y-49000000D01*
X79063670Y-49143708D01*
X79063670Y-49143709D01*
X79090061Y-49207422D01*
X79099500Y-49254875D01*
X79099500Y-51745124D01*
X79090062Y-51792572D01*
X79073807Y-51831818D01*
X79063669Y-51856293D01*
X79046575Y-51986136D01*
X79044750Y-52000000D01*
X79058639Y-52105499D01*
X79063670Y-52143708D01*
X79063670Y-52143709D01*
X79090061Y-52207422D01*
X79099500Y-52254875D01*
X79099500Y-54745124D01*
X79090062Y-54792575D01*
X79063669Y-54856293D01*
X79047656Y-54977926D01*
X79044750Y-55000000D01*
X79048874Y-55031328D01*
X79063670Y-55143708D01*
X79063670Y-55143709D01*
X79090061Y-55207422D01*
X79099500Y-55254875D01*
X79099500Y-57745124D01*
X79090062Y-57792575D01*
X79063669Y-57856293D01*
X79044750Y-57999999D01*
X79044750Y-58000000D01*
X79063670Y-58143708D01*
X79063670Y-58143709D01*
X79090061Y-58207422D01*
X79099500Y-58254875D01*
X79099500Y-60745124D01*
X79090062Y-60792575D01*
X79063669Y-60856293D01*
X79050969Y-60952764D01*
X79044750Y-61000000D01*
X79057915Y-61100000D01*
X79063670Y-61143708D01*
X79063670Y-61143709D01*
X79090061Y-61207422D01*
X79099500Y-61254875D01*
X79099500Y-63745124D01*
X79090062Y-63792575D01*
X79063669Y-63856293D01*
X79044750Y-63999999D01*
X79044750Y-64000000D01*
X79063670Y-64143708D01*
X79063670Y-64143709D01*
X79090061Y-64207422D01*
X79099500Y-64254875D01*
X79099500Y-66762802D01*
X79090062Y-66810253D01*
X79063669Y-66873971D01*
X79044750Y-67017677D01*
X79044750Y-67017678D01*
X79053772Y-67086209D01*
X79063670Y-67161386D01*
X79063670Y-67161387D01*
X79090061Y-67225100D01*
X79099500Y-67272553D01*
X79099500Y-69870950D01*
X79090062Y-69918401D01*
X79063669Y-69982119D01*
X79044750Y-70125825D01*
X79044750Y-70125826D01*
X79063670Y-70269535D01*
X79076288Y-70299999D01*
X79090061Y-70333248D01*
X79099500Y-70380701D01*
X79099500Y-70698710D01*
X79114834Y-70805369D01*
X79143996Y-70869223D01*
X79174623Y-70936286D01*
X79268872Y-71045056D01*
X79389947Y-71122866D01*
X79389950Y-71122867D01*
X79389949Y-71122867D01*
X79528036Y-71163412D01*
X79528038Y-71163413D01*
X79528039Y-71163413D01*
X79671962Y-71163413D01*
X79671962Y-71163412D01*
X79779121Y-71131948D01*
X79810050Y-71122867D01*
X79810050Y-71122866D01*
X79810053Y-71122866D01*
X79931128Y-71045056D01*
X80025377Y-70936286D01*
X80085165Y-70805370D01*
X80100500Y-70698712D01*
X80100500Y-70380701D01*
X80109939Y-70333248D01*
X80136330Y-70269535D01*
X80155250Y-70125826D01*
X80136330Y-69982117D01*
X80109937Y-69918398D01*
X80100500Y-69870950D01*
X80100500Y-67272553D01*
X80109939Y-67225100D01*
X80112001Y-67220122D01*
X80136330Y-67161387D01*
X80155250Y-67017678D01*
X80136330Y-66873969D01*
X80109937Y-66810250D01*
X80100500Y-66762802D01*
X80100500Y-64254875D01*
X80109939Y-64207422D01*
X80136330Y-64143709D01*
X80155250Y-64000000D01*
X80136330Y-63856291D01*
X80109937Y-63792572D01*
X80100500Y-63745124D01*
X80100500Y-61254875D01*
X80109939Y-61207422D01*
X80117555Y-61189036D01*
X80136330Y-61143709D01*
X80155250Y-61000000D01*
X80136330Y-60856291D01*
X80109937Y-60792572D01*
X80100500Y-60745124D01*
X80100500Y-58254875D01*
X80109939Y-58207422D01*
X80136330Y-58143709D01*
X80155250Y-58000000D01*
X80136330Y-57856291D01*
X80109937Y-57792572D01*
X80100500Y-57745124D01*
X80100500Y-55254875D01*
X80109939Y-55207422D01*
X80115033Y-55195124D01*
X80136330Y-55143709D01*
X80155250Y-55000000D01*
X80136330Y-54856291D01*
X80109937Y-54792572D01*
X80100500Y-54745124D01*
X80100500Y-52254875D01*
X80109939Y-52207422D01*
X80136330Y-52143709D01*
X80155250Y-52000000D01*
X80136330Y-51856291D01*
X80109937Y-51792572D01*
X80100500Y-51745124D01*
X80100500Y-49254875D01*
X80109939Y-49207422D01*
X80136330Y-49143709D01*
X80155250Y-49000000D01*
X80155250Y-48999999D01*
X80155250Y-48991871D01*
X80159049Y-48991871D01*
X80166388Y-48940418D01*
X80191556Y-48904124D01*
X81108863Y-47986819D01*
X81170186Y-47953334D01*
X81196544Y-47950500D01*
X82854457Y-47950500D01*
X82921496Y-47970185D01*
X82967251Y-48022989D01*
X82977195Y-48092147D01*
X82948170Y-48155703D01*
X82942157Y-48162161D01*
X82753818Y-48350500D01*
X82695877Y-48408441D01*
X82634554Y-48441925D01*
X82608127Y-48443042D01*
X82608127Y-48444750D01*
X82599999Y-48444750D01*
X82456291Y-48463670D01*
X82456287Y-48463671D01*
X82322377Y-48519137D01*
X82207379Y-48607379D01*
X82119137Y-48722377D01*
X82063671Y-48856287D01*
X82063670Y-48856291D01*
X82044750Y-48999999D01*
X82044750Y-49000000D01*
X82063670Y-49143708D01*
X82063670Y-49143709D01*
X82090061Y-49207422D01*
X82099500Y-49254875D01*
X82099500Y-51745124D01*
X82090062Y-51792572D01*
X82073807Y-51831818D01*
X82063669Y-51856293D01*
X82046575Y-51986136D01*
X82044750Y-52000000D01*
X82058639Y-52105499D01*
X82063670Y-52143708D01*
X82063670Y-52143709D01*
X82090061Y-52207422D01*
X82099500Y-52254875D01*
X82099500Y-54745124D01*
X82090062Y-54792575D01*
X82063669Y-54856293D01*
X82047656Y-54977926D01*
X82044750Y-55000000D01*
X82048874Y-55031328D01*
X82063670Y-55143708D01*
X82063670Y-55143709D01*
X82090061Y-55207422D01*
X82099500Y-55254875D01*
X82099500Y-57745124D01*
X82090062Y-57792575D01*
X82063669Y-57856293D01*
X82044750Y-57999999D01*
X82044750Y-58000000D01*
X82063670Y-58143708D01*
X82063670Y-58143709D01*
X82090061Y-58207422D01*
X82099500Y-58254875D01*
X82099500Y-60745124D01*
X82090062Y-60792575D01*
X82063669Y-60856293D01*
X82050969Y-60952764D01*
X82044750Y-61000000D01*
X82057915Y-61100000D01*
X82063670Y-61143708D01*
X82063670Y-61143709D01*
X82090061Y-61207422D01*
X82099500Y-61254875D01*
X82099500Y-63745124D01*
X82090062Y-63792575D01*
X82063669Y-63856293D01*
X82044750Y-63999999D01*
X82044750Y-64000000D01*
X82063670Y-64143708D01*
X82063670Y-64143709D01*
X82090061Y-64207422D01*
X82099500Y-64254875D01*
X82099500Y-66762802D01*
X82090062Y-66810253D01*
X82063669Y-66873971D01*
X82044750Y-67017677D01*
X82044750Y-67017678D01*
X82053772Y-67086209D01*
X82063670Y-67161386D01*
X82063670Y-67161387D01*
X82090061Y-67225100D01*
X82099500Y-67272553D01*
X82099500Y-69870950D01*
X82090062Y-69918401D01*
X82063669Y-69982119D01*
X82044750Y-70125825D01*
X82044750Y-70125826D01*
X82063670Y-70269535D01*
X82076288Y-70299999D01*
X82090061Y-70333248D01*
X82099500Y-70380701D01*
X82099500Y-70698710D01*
X82114834Y-70805369D01*
X82143996Y-70869223D01*
X82174623Y-70936286D01*
X82268872Y-71045056D01*
X82389947Y-71122866D01*
X82389950Y-71122867D01*
X82389949Y-71122867D01*
X82528036Y-71163412D01*
X82528038Y-71163413D01*
X82528039Y-71163413D01*
X82671962Y-71163413D01*
X82671962Y-71163412D01*
X82779121Y-71131948D01*
X82810050Y-71122867D01*
X82810050Y-71122866D01*
X82810053Y-71122866D01*
X82931128Y-71045056D01*
X83025377Y-70936286D01*
X83085165Y-70805370D01*
X83100500Y-70698712D01*
X83100500Y-70380701D01*
X83109939Y-70333248D01*
X83136330Y-70269535D01*
X83155250Y-70125826D01*
X83136330Y-69982117D01*
X83109937Y-69918398D01*
X83100500Y-69870950D01*
X83100500Y-67272553D01*
X83109939Y-67225100D01*
X83112001Y-67220122D01*
X83136330Y-67161387D01*
X83155250Y-67017678D01*
X83136330Y-66873969D01*
X83109937Y-66810250D01*
X83100500Y-66762802D01*
X83100500Y-64254875D01*
X83109939Y-64207422D01*
X83136330Y-64143709D01*
X83155250Y-64000000D01*
X83136330Y-63856291D01*
X83109937Y-63792572D01*
X83100500Y-63745124D01*
X83100500Y-61254875D01*
X83109939Y-61207422D01*
X83117555Y-61189036D01*
X83136330Y-61143709D01*
X83155250Y-61000000D01*
X83136330Y-60856291D01*
X83109937Y-60792572D01*
X83100500Y-60745124D01*
X83100500Y-58254875D01*
X83109939Y-58207422D01*
X83136330Y-58143709D01*
X83155250Y-58000000D01*
X83136330Y-57856291D01*
X83109937Y-57792572D01*
X83100500Y-57745124D01*
X83100500Y-55254875D01*
X83109939Y-55207422D01*
X83115033Y-55195124D01*
X83136330Y-55143709D01*
X83155250Y-55000000D01*
X83136330Y-54856291D01*
X83109937Y-54792572D01*
X83100500Y-54745124D01*
X83100500Y-52254875D01*
X83109939Y-52207422D01*
X83136330Y-52143709D01*
X83155250Y-52000000D01*
X83136330Y-51856291D01*
X83109937Y-51792572D01*
X83100500Y-51745124D01*
X83100500Y-49254875D01*
X83109939Y-49207422D01*
X83136330Y-49143709D01*
X83155250Y-49000000D01*
X83155250Y-48999999D01*
X83155250Y-48991871D01*
X83159049Y-48991871D01*
X83166388Y-48940418D01*
X83191556Y-48904124D01*
X83708863Y-48386819D01*
X83770186Y-48353334D01*
X83796544Y-48350500D01*
X85176858Y-48350500D01*
X85243897Y-48370185D01*
X85289652Y-48422989D01*
X85299596Y-48492147D01*
X85270571Y-48555703D01*
X85252345Y-48572875D01*
X85207381Y-48607377D01*
X85207380Y-48607378D01*
X85207379Y-48607379D01*
X85190405Y-48629500D01*
X85119137Y-48722377D01*
X85063671Y-48856287D01*
X85063670Y-48856291D01*
X85044750Y-48999999D01*
X85044750Y-49000000D01*
X85063670Y-49143708D01*
X85063670Y-49143709D01*
X85090061Y-49207422D01*
X85099500Y-49254875D01*
X85099500Y-51745124D01*
X85090062Y-51792572D01*
X85073807Y-51831818D01*
X85063669Y-51856293D01*
X85046575Y-51986136D01*
X85044750Y-52000000D01*
X85058639Y-52105499D01*
X85063670Y-52143708D01*
X85063670Y-52143709D01*
X85090061Y-52207422D01*
X85099500Y-52254875D01*
X85099500Y-54745124D01*
X85090062Y-54792575D01*
X85063669Y-54856293D01*
X85047656Y-54977926D01*
X85044750Y-55000000D01*
X85048874Y-55031328D01*
X85063670Y-55143708D01*
X85063670Y-55143709D01*
X85090061Y-55207422D01*
X85099500Y-55254875D01*
X85099500Y-57745124D01*
X85090062Y-57792575D01*
X85063669Y-57856293D01*
X85044750Y-57999999D01*
X85044750Y-58000000D01*
X85063670Y-58143708D01*
X85063670Y-58143709D01*
X85090061Y-58207422D01*
X85099500Y-58254875D01*
X85099500Y-60745124D01*
X85090062Y-60792575D01*
X85063669Y-60856293D01*
X85050969Y-60952764D01*
X85044750Y-61000000D01*
X85057915Y-61100000D01*
X85063670Y-61143708D01*
X85063670Y-61143709D01*
X85090061Y-61207422D01*
X85099500Y-61254875D01*
X85099500Y-63745124D01*
X85090062Y-63792575D01*
X85063669Y-63856293D01*
X85044750Y-63999999D01*
X85044750Y-64000000D01*
X85063670Y-64143708D01*
X85063670Y-64143709D01*
X85090061Y-64207422D01*
X85099500Y-64254875D01*
X85099500Y-66762802D01*
X85090062Y-66810253D01*
X85063669Y-66873971D01*
X85044750Y-67017677D01*
X85044750Y-67017678D01*
X85053772Y-67086209D01*
X85063670Y-67161386D01*
X85063670Y-67161387D01*
X85090061Y-67225100D01*
X85099500Y-67272553D01*
X85099500Y-69870950D01*
X85090062Y-69918401D01*
X85063669Y-69982119D01*
X85044750Y-70125825D01*
X85044750Y-70125826D01*
X85063670Y-70269535D01*
X85076288Y-70299999D01*
X85090061Y-70333248D01*
X85099500Y-70380701D01*
X85099500Y-70698710D01*
X85114834Y-70805369D01*
X85143996Y-70869223D01*
X85174623Y-70936286D01*
X85268872Y-71045056D01*
X85389947Y-71122866D01*
X85389950Y-71122867D01*
X85389949Y-71122867D01*
X85528036Y-71163412D01*
X85528038Y-71163413D01*
X85528039Y-71163413D01*
X85671962Y-71163413D01*
X85671962Y-71163412D01*
X85779121Y-71131948D01*
X85810050Y-71122867D01*
X85810050Y-71122866D01*
X85810053Y-71122866D01*
X85931128Y-71045056D01*
X86025377Y-70936286D01*
X86085165Y-70805370D01*
X86100500Y-70698712D01*
X86100500Y-70380701D01*
X86109939Y-70333248D01*
X86136330Y-70269535D01*
X86155250Y-70125826D01*
X86136330Y-69982117D01*
X86109937Y-69918398D01*
X86100500Y-69870950D01*
X86100500Y-67272553D01*
X86109939Y-67225100D01*
X86112001Y-67220122D01*
X86136330Y-67161387D01*
X86155250Y-67017678D01*
X86136330Y-66873969D01*
X86109937Y-66810250D01*
X86100500Y-66762802D01*
X86100500Y-64254875D01*
X86109939Y-64207422D01*
X86136330Y-64143709D01*
X86155250Y-64000000D01*
X86136330Y-63856291D01*
X86109937Y-63792572D01*
X86100500Y-63745124D01*
X86100500Y-61254875D01*
X86109939Y-61207422D01*
X86117555Y-61189036D01*
X86136330Y-61143709D01*
X86155250Y-61000000D01*
X86136330Y-60856291D01*
X86109937Y-60792572D01*
X86100500Y-60745124D01*
X86100500Y-58254875D01*
X86109939Y-58207422D01*
X86136330Y-58143709D01*
X86155250Y-58000000D01*
X86136330Y-57856291D01*
X86109937Y-57792572D01*
X86100500Y-57745124D01*
X86100500Y-55254875D01*
X86109939Y-55207422D01*
X86115033Y-55195124D01*
X86136330Y-55143709D01*
X86155250Y-55000000D01*
X86136330Y-54856291D01*
X86109937Y-54792572D01*
X86100500Y-54745124D01*
X86100500Y-52254875D01*
X86109939Y-52207422D01*
X86136330Y-52143709D01*
X86155250Y-52000000D01*
X86136330Y-51856291D01*
X86109937Y-51792572D01*
X86100500Y-51745124D01*
X86100500Y-49254875D01*
X86109939Y-49207422D01*
X86136330Y-49143709D01*
X86155250Y-49000000D01*
X86155250Y-48999999D01*
X86155250Y-48991871D01*
X86159049Y-48991871D01*
X86166388Y-48940418D01*
X86191557Y-48904123D01*
X86308864Y-48786818D01*
X86370187Y-48753334D01*
X86396544Y-48750500D01*
X87936203Y-48750500D01*
X88003242Y-48770185D01*
X88048997Y-48822989D01*
X88059141Y-48890685D01*
X88051680Y-48947361D01*
X88044750Y-48999999D01*
X88044750Y-49000000D01*
X88063670Y-49143708D01*
X88063670Y-49143709D01*
X88090061Y-49207422D01*
X88099500Y-49254875D01*
X88099500Y-51745124D01*
X88090062Y-51792572D01*
X88073807Y-51831818D01*
X88063669Y-51856293D01*
X88046575Y-51986136D01*
X88044750Y-52000000D01*
X88058639Y-52105499D01*
X88063670Y-52143708D01*
X88063670Y-52143709D01*
X88090061Y-52207422D01*
X88099500Y-52254875D01*
X88099500Y-54745124D01*
X88090062Y-54792575D01*
X88063669Y-54856293D01*
X88047656Y-54977926D01*
X88044750Y-55000000D01*
X88048874Y-55031328D01*
X88063670Y-55143708D01*
X88063670Y-55143709D01*
X88090061Y-55207422D01*
X88099500Y-55254875D01*
X88099500Y-57745124D01*
X88090062Y-57792575D01*
X88063669Y-57856293D01*
X88044750Y-57999999D01*
X88044750Y-58000000D01*
X88063670Y-58143708D01*
X88063670Y-58143709D01*
X88090061Y-58207422D01*
X88099500Y-58254875D01*
X88099500Y-60745124D01*
X88090062Y-60792575D01*
X88063669Y-60856293D01*
X88050969Y-60952764D01*
X88044750Y-61000000D01*
X88057915Y-61100000D01*
X88063670Y-61143708D01*
X88063670Y-61143709D01*
X88090061Y-61207422D01*
X88099500Y-61254875D01*
X88099500Y-63745124D01*
X88090062Y-63792575D01*
X88063669Y-63856293D01*
X88044750Y-63999999D01*
X88044750Y-64000000D01*
X88063670Y-64143708D01*
X88063670Y-64143709D01*
X88090061Y-64207422D01*
X88099500Y-64254875D01*
X88099500Y-66762802D01*
X88090062Y-66810253D01*
X88063669Y-66873971D01*
X88044750Y-67017677D01*
X88044750Y-67017678D01*
X88053772Y-67086209D01*
X88063670Y-67161386D01*
X88063670Y-67161387D01*
X88090061Y-67225100D01*
X88099500Y-67272553D01*
X88099500Y-69870950D01*
X88090062Y-69918401D01*
X88063669Y-69982119D01*
X88044750Y-70125825D01*
X88044750Y-70125826D01*
X88063670Y-70269535D01*
X88076288Y-70299999D01*
X88090061Y-70333248D01*
X88099500Y-70380701D01*
X88099500Y-70698710D01*
X88114834Y-70805369D01*
X88143996Y-70869223D01*
X88174623Y-70936286D01*
X88268872Y-71045056D01*
X88389947Y-71122866D01*
X88389950Y-71122867D01*
X88389949Y-71122867D01*
X88528036Y-71163412D01*
X88528038Y-71163413D01*
X88528039Y-71163413D01*
X88671962Y-71163413D01*
X88671962Y-71163412D01*
X88779121Y-71131948D01*
X88810050Y-71122867D01*
X88810050Y-71122866D01*
X88810053Y-71122866D01*
X88931128Y-71045056D01*
X89025377Y-70936286D01*
X89085165Y-70805370D01*
X89100500Y-70698712D01*
X89100500Y-70380701D01*
X89109939Y-70333248D01*
X89136330Y-70269535D01*
X89155250Y-70125826D01*
X89136330Y-69982117D01*
X89109937Y-69918398D01*
X89100500Y-69870950D01*
X89100500Y-67272553D01*
X89109939Y-67225100D01*
X89112001Y-67220122D01*
X89136330Y-67161387D01*
X89155250Y-67017678D01*
X89136330Y-66873969D01*
X89109937Y-66810250D01*
X89100500Y-66762802D01*
X89100500Y-64254875D01*
X89109939Y-64207422D01*
X89136330Y-64143709D01*
X89155250Y-64000000D01*
X89136330Y-63856291D01*
X89109937Y-63792572D01*
X89100500Y-63745124D01*
X89100500Y-61254875D01*
X89109939Y-61207422D01*
X89117555Y-61189036D01*
X89136330Y-61143709D01*
X89155250Y-61000000D01*
X89136330Y-60856291D01*
X89109937Y-60792572D01*
X89100500Y-60745124D01*
X89100500Y-58254875D01*
X89109939Y-58207422D01*
X89136330Y-58143709D01*
X89155250Y-58000000D01*
X89136330Y-57856291D01*
X89109937Y-57792572D01*
X89100500Y-57745124D01*
X89100500Y-55254875D01*
X89109939Y-55207422D01*
X89115033Y-55195124D01*
X89136330Y-55143709D01*
X89155250Y-55000000D01*
X89136330Y-54856291D01*
X89109937Y-54792572D01*
X89100500Y-54745124D01*
X89100500Y-52254875D01*
X89109939Y-52207422D01*
X89136330Y-52143709D01*
X89155250Y-52000000D01*
X89136330Y-51856291D01*
X89109937Y-51792572D01*
X89100500Y-51745124D01*
X89100500Y-49474500D01*
X89120185Y-49407461D01*
X89172989Y-49361706D01*
X89224500Y-49350500D01*
X91658456Y-49350500D01*
X91725495Y-49370185D01*
X91746137Y-49386819D01*
X96758440Y-54399122D01*
X96791925Y-54460445D01*
X96793067Y-54486873D01*
X96794750Y-54486873D01*
X96794750Y-54495000D01*
X96813670Y-54638708D01*
X96813671Y-54638712D01*
X96869137Y-54772622D01*
X96869138Y-54772624D01*
X96869139Y-54772625D01*
X96957379Y-54887621D01*
X97072375Y-54975861D01*
X97206291Y-55031330D01*
X97333280Y-55048048D01*
X97349999Y-55050250D01*
X97350000Y-55050250D01*
X97350001Y-55050250D01*
X97364977Y-55048278D01*
X97493709Y-55031330D01*
X97627625Y-54975861D01*
X97742621Y-54887621D01*
X97830861Y-54772625D01*
X97886330Y-54638709D01*
X97905250Y-54495000D01*
X97886330Y-54351291D01*
X97830861Y-54217375D01*
X97742621Y-54102379D01*
X97627625Y-54014139D01*
X97627621Y-54014137D01*
X97564752Y-53988096D01*
X97510348Y-53944255D01*
X97488283Y-53877961D01*
X97505562Y-53810262D01*
X97556699Y-53762651D01*
X97564727Y-53758984D01*
X97632625Y-53730861D01*
X97747621Y-53642621D01*
X97835861Y-53527625D01*
X97891330Y-53393709D01*
X97910250Y-53250000D01*
X97891330Y-53106291D01*
X97835861Y-52972375D01*
X97747621Y-52857379D01*
X97632625Y-52769139D01*
X97632621Y-52769137D01*
X97504396Y-52716025D01*
X97449992Y-52672184D01*
X97427927Y-52605890D01*
X97445206Y-52538191D01*
X97496343Y-52490580D01*
X97504363Y-52486916D01*
X97627625Y-52435861D01*
X97742621Y-52347621D01*
X97830861Y-52232625D01*
X97886330Y-52098709D01*
X97905250Y-51955000D01*
X97903909Y-51944818D01*
X97893404Y-51865024D01*
X97886330Y-51811291D01*
X97830861Y-51677375D01*
X97742621Y-51562379D01*
X97627625Y-51474139D01*
X97627624Y-51474138D01*
X97627622Y-51474137D01*
X97532074Y-51434561D01*
X97477670Y-51390721D01*
X97455605Y-51324427D01*
X97472884Y-51256727D01*
X97524021Y-51209116D01*
X97532074Y-51205439D01*
X97556429Y-51195351D01*
X97627625Y-51165861D01*
X97742621Y-51077621D01*
X97830861Y-50962625D01*
X97886330Y-50828709D01*
X97905250Y-50685000D01*
X97886330Y-50541291D01*
X97830861Y-50407375D01*
X97742621Y-50292379D01*
X97627625Y-50204139D01*
X97627624Y-50204138D01*
X97627622Y-50204137D01*
X97532074Y-50164561D01*
X97477670Y-50120721D01*
X97455605Y-50054427D01*
X97472884Y-49986727D01*
X97524021Y-49939116D01*
X97532074Y-49935439D01*
X97552852Y-49926832D01*
X97627625Y-49895861D01*
X97742621Y-49807621D01*
X97830861Y-49692625D01*
X97886330Y-49558709D01*
X97905250Y-49415000D01*
X97904257Y-49407461D01*
X97898320Y-49362362D01*
X97886330Y-49271291D01*
X97830861Y-49137375D01*
X97742621Y-49022379D01*
X97627625Y-48934139D01*
X97627624Y-48934138D01*
X97627622Y-48934137D01*
X97532074Y-48894561D01*
X97477670Y-48850721D01*
X97455605Y-48784427D01*
X97472884Y-48716727D01*
X97524021Y-48669116D01*
X97532074Y-48665439D01*
X97583094Y-48644306D01*
X97627625Y-48625861D01*
X97742621Y-48537621D01*
X97830861Y-48422625D01*
X97886330Y-48288709D01*
X97905250Y-48145000D01*
X97886330Y-48001291D01*
X97830861Y-47867375D01*
X97742621Y-47752379D01*
X97627625Y-47664139D01*
X97627624Y-47664138D01*
X97627622Y-47664137D01*
X97532074Y-47624561D01*
X97477670Y-47580721D01*
X97455605Y-47514427D01*
X97472884Y-47446727D01*
X97524021Y-47399116D01*
X97532074Y-47395439D01*
X97552852Y-47386832D01*
X97627625Y-47355861D01*
X97742621Y-47267621D01*
X97830861Y-47152625D01*
X97886330Y-47018709D01*
X97905250Y-46875000D01*
X97886330Y-46731291D01*
X97830861Y-46597375D01*
X97794497Y-46549985D01*
X97769304Y-46484818D01*
X97783342Y-46416373D01*
X97832156Y-46366383D01*
X97892874Y-46350500D01*
X99958456Y-46350500D01*
X100025495Y-46370185D01*
X100046137Y-46386819D01*
X100958304Y-47298986D01*
X100991789Y-47360309D01*
X100986805Y-47430001D01*
X100953865Y-47477456D01*
X100954382Y-47478002D01*
X100952374Y-47479904D01*
X100920743Y-47512684D01*
X100874534Y-47601021D01*
X100874533Y-47601021D01*
X100854851Y-47668053D01*
X100854848Y-47668065D01*
X100844500Y-47740042D01*
X100844500Y-48940500D01*
X100824815Y-49007539D01*
X100772011Y-49053294D01*
X100720500Y-49064500D01*
X99536092Y-49064500D01*
X99469053Y-49044815D01*
X99449587Y-49026913D01*
X99448372Y-49028129D01*
X99442627Y-49022384D01*
X99442621Y-49022379D01*
X99327625Y-48934139D01*
X99327624Y-48934138D01*
X99327622Y-48934137D01*
X99193712Y-48878671D01*
X99193710Y-48878670D01*
X99193709Y-48878670D01*
X99102638Y-48866680D01*
X99050001Y-48859750D01*
X99049999Y-48859750D01*
X98906291Y-48878670D01*
X98906287Y-48878671D01*
X98772377Y-48934137D01*
X98657379Y-49022379D01*
X98569137Y-49137377D01*
X98513671Y-49271287D01*
X98513670Y-49271291D01*
X98495743Y-49407461D01*
X98494750Y-49415000D01*
X98502583Y-49474500D01*
X98513670Y-49558708D01*
X98513671Y-49558712D01*
X98569137Y-49692622D01*
X98569138Y-49692624D01*
X98569139Y-49692625D01*
X98657379Y-49807621D01*
X98772375Y-49895861D01*
X98906291Y-49951330D01*
X99033280Y-49968048D01*
X99049999Y-49970250D01*
X99050000Y-49970250D01*
X99050001Y-49970250D01*
X99064977Y-49968278D01*
X99193709Y-49951330D01*
X99327625Y-49895861D01*
X99442621Y-49807621D01*
X99442623Y-49807617D01*
X99442627Y-49807615D01*
X99448372Y-49801871D01*
X99450888Y-49804387D01*
X99494183Y-49772797D01*
X99536092Y-49765500D01*
X100720500Y-49765500D01*
X100787539Y-49785185D01*
X100833294Y-49837989D01*
X100844500Y-49889500D01*
X100844500Y-50210500D01*
X100824815Y-50277539D01*
X100772011Y-50323294D01*
X100720500Y-50334500D01*
X100136092Y-50334500D01*
X100069053Y-50314815D01*
X100049587Y-50296913D01*
X100048372Y-50298129D01*
X100042627Y-50292384D01*
X100042621Y-50292379D01*
X99927625Y-50204139D01*
X99927624Y-50204138D01*
X99927622Y-50204137D01*
X99793712Y-50148671D01*
X99793710Y-50148670D01*
X99793709Y-50148670D01*
X99702638Y-50136680D01*
X99650001Y-50129750D01*
X99649999Y-50129750D01*
X99506291Y-50148670D01*
X99506287Y-50148671D01*
X99372377Y-50204137D01*
X99257379Y-50292379D01*
X99169137Y-50407377D01*
X99113671Y-50541287D01*
X99113670Y-50541291D01*
X99105629Y-50602371D01*
X99094750Y-50685000D01*
X99102227Y-50741796D01*
X99113670Y-50828708D01*
X99113671Y-50828712D01*
X99169137Y-50962622D01*
X99169138Y-50962624D01*
X99169139Y-50962625D01*
X99257379Y-51077621D01*
X99372375Y-51165861D01*
X99506291Y-51221330D01*
X99633280Y-51238048D01*
X99649999Y-51240250D01*
X99650000Y-51240250D01*
X99650001Y-51240250D01*
X99664977Y-51238278D01*
X99793709Y-51221330D01*
X99927625Y-51165861D01*
X100042621Y-51077621D01*
X100042623Y-51077617D01*
X100042627Y-51077615D01*
X100048372Y-51071871D01*
X100050888Y-51074387D01*
X100094183Y-51042797D01*
X100136092Y-51035500D01*
X100720500Y-51035500D01*
X100787539Y-51055185D01*
X100833294Y-51107989D01*
X100844500Y-51159500D01*
X100844500Y-51442819D01*
X100824815Y-51509858D01*
X100772011Y-51555613D01*
X100702853Y-51565557D01*
X100645014Y-51541195D01*
X100557625Y-51474139D01*
X100557623Y-51474138D01*
X100423712Y-51418671D01*
X100423710Y-51418670D01*
X100423709Y-51418670D01*
X100332638Y-51406680D01*
X100280001Y-51399750D01*
X100279999Y-51399750D01*
X100136291Y-51418670D01*
X100136287Y-51418671D01*
X100002377Y-51474137D01*
X99887379Y-51562379D01*
X99799137Y-51677377D01*
X99743671Y-51811287D01*
X99743670Y-51811291D01*
X99726091Y-51944818D01*
X99724750Y-51955000D01*
X99743201Y-52095150D01*
X99743670Y-52098708D01*
X99743671Y-52098712D01*
X99799137Y-52232622D01*
X99799138Y-52232624D01*
X99799139Y-52232625D01*
X99887379Y-52347621D01*
X100002375Y-52435861D01*
X100136291Y-52491330D01*
X100263280Y-52508048D01*
X100279999Y-52510250D01*
X100280000Y-52510250D01*
X100280001Y-52510250D01*
X100294977Y-52508278D01*
X100423709Y-52491330D01*
X100557625Y-52435861D01*
X100645014Y-52368804D01*
X100710182Y-52343610D01*
X100778627Y-52357648D01*
X100828617Y-52406461D01*
X100844500Y-52467180D01*
X100844500Y-52565679D01*
X100824815Y-52632718D01*
X100772011Y-52678473D01*
X100744119Y-52686483D01*
X100744142Y-52686566D01*
X100739512Y-52687806D01*
X100736687Y-52688617D01*
X100736484Y-52688644D01*
X100736290Y-52688670D01*
X100602377Y-52744137D01*
X100487379Y-52832379D01*
X100399137Y-52947377D01*
X100343671Y-53081287D01*
X100343670Y-53081291D01*
X100324750Y-53225000D01*
X100339009Y-53333309D01*
X100343670Y-53368708D01*
X100343671Y-53368712D01*
X100399137Y-53502622D01*
X100399138Y-53502624D01*
X100399139Y-53502625D01*
X100487379Y-53617621D01*
X100602375Y-53705861D01*
X100736291Y-53761330D01*
X100736680Y-53761381D01*
X100736982Y-53761514D01*
X100744141Y-53763433D01*
X100743841Y-53764548D01*
X100800574Y-53789641D01*
X100839050Y-53847962D01*
X100844500Y-53884320D01*
X100844500Y-62655500D01*
X100824815Y-62722539D01*
X100772011Y-62768294D01*
X100720500Y-62779500D01*
X98926544Y-62779500D01*
X98859505Y-62759815D01*
X98838863Y-62743181D01*
X98736819Y-62641137D01*
X98703334Y-62579814D01*
X98700500Y-62553456D01*
X98700500Y-60736092D01*
X98720185Y-60669053D01*
X98738114Y-60649609D01*
X98736874Y-60648369D01*
X98742619Y-60642623D01*
X98742621Y-60642621D01*
X98830861Y-60527625D01*
X98886330Y-60393709D01*
X98905250Y-60250000D01*
X98886330Y-60106291D01*
X98830861Y-59972375D01*
X98742621Y-59857379D01*
X98627625Y-59769139D01*
X98627624Y-59769138D01*
X98627622Y-59769137D01*
X98493712Y-59713671D01*
X98493710Y-59713670D01*
X98493709Y-59713670D01*
X98421854Y-59704210D01*
X98350001Y-59694750D01*
X98349999Y-59694750D01*
X98206291Y-59713670D01*
X98206287Y-59713671D01*
X98072377Y-59769137D01*
X97957379Y-59857379D01*
X97869137Y-59972377D01*
X97813671Y-60106287D01*
X97813670Y-60106291D01*
X97794750Y-60250000D01*
X97796792Y-60265514D01*
X97813670Y-60393708D01*
X97813671Y-60393712D01*
X97869138Y-60527623D01*
X97869139Y-60527625D01*
X97957380Y-60642623D01*
X97963126Y-60648369D01*
X97960574Y-60650920D01*
X97992091Y-60693873D01*
X97999500Y-60736092D01*
X97999500Y-62700788D01*
X97996861Y-62726232D01*
X97994957Y-62735311D01*
X97994957Y-62735316D01*
X97998548Y-62764121D01*
X97999396Y-62777795D01*
X97999499Y-62779032D01*
X98002666Y-62798015D01*
X98003403Y-62803077D01*
X98009426Y-62851390D01*
X98011524Y-62858435D01*
X98013907Y-62865379D01*
X98013908Y-62865381D01*
X98030270Y-62895616D01*
X98037082Y-62908203D01*
X98039421Y-62912747D01*
X98060802Y-62956484D01*
X98060804Y-62956486D01*
X98060805Y-62956488D01*
X98065062Y-62962451D01*
X98069583Y-62968259D01*
X98105398Y-63001230D01*
X98109096Y-63004778D01*
X98447362Y-63343044D01*
X98463489Y-63362902D01*
X98468563Y-63370669D01*
X98491469Y-63388497D01*
X98501757Y-63397583D01*
X98502689Y-63398373D01*
X98511258Y-63404490D01*
X98518367Y-63409565D01*
X98522462Y-63412619D01*
X98560875Y-63442518D01*
X98567333Y-63446012D01*
X98573934Y-63449240D01*
X98620593Y-63463131D01*
X98625437Y-63464682D01*
X98671512Y-63480500D01*
X98671515Y-63480501D01*
X98678730Y-63481704D01*
X98686044Y-63482616D01*
X98686046Y-63482617D01*
X98686047Y-63482616D01*
X98686048Y-63482617D01*
X98734668Y-63480606D01*
X98739793Y-63480500D01*
X100720500Y-63480500D01*
X100787539Y-63500185D01*
X100833294Y-63552989D01*
X100844500Y-63604500D01*
X100844500Y-65198000D01*
X100824815Y-65265039D01*
X100772011Y-65310794D01*
X100720500Y-65322000D01*
X100141092Y-65322000D01*
X100074053Y-65302315D01*
X100054587Y-65284413D01*
X100053372Y-65285629D01*
X100047627Y-65279884D01*
X100047621Y-65279879D01*
X99932625Y-65191639D01*
X99932624Y-65191638D01*
X99932622Y-65191637D01*
X99798712Y-65136171D01*
X99798710Y-65136170D01*
X99798709Y-65136170D01*
X99726854Y-65126710D01*
X99655001Y-65117250D01*
X99654999Y-65117250D01*
X99511291Y-65136170D01*
X99511287Y-65136171D01*
X99377377Y-65191637D01*
X99262379Y-65279879D01*
X99174137Y-65394877D01*
X99118671Y-65528787D01*
X99118670Y-65528791D01*
X99099750Y-65672499D01*
X99099750Y-65672500D01*
X99118670Y-65816208D01*
X99118671Y-65816212D01*
X99174137Y-65950122D01*
X99174138Y-65950124D01*
X99174139Y-65950125D01*
X99262379Y-66065121D01*
X99377375Y-66153361D01*
X99511291Y-66208830D01*
X99638280Y-66225548D01*
X99654999Y-66227750D01*
X99655000Y-66227750D01*
X99655001Y-66227750D01*
X99669977Y-66225778D01*
X99798709Y-66208830D01*
X99932625Y-66153361D01*
X100047621Y-66065121D01*
X100047623Y-66065117D01*
X100047627Y-66065115D01*
X100053372Y-66059371D01*
X100055888Y-66061887D01*
X100099183Y-66030297D01*
X100141092Y-66023000D01*
X100720500Y-66023000D01*
X100787539Y-66042685D01*
X100833294Y-66095489D01*
X100844500Y-66147000D01*
X100844500Y-66430319D01*
X100824815Y-66497358D01*
X100772011Y-66543113D01*
X100702853Y-66553057D01*
X100645014Y-66528695D01*
X100557625Y-66461639D01*
X100557623Y-66461638D01*
X100423712Y-66406171D01*
X100423710Y-66406170D01*
X100423709Y-66406170D01*
X100351854Y-66396710D01*
X100280001Y-66387250D01*
X100279999Y-66387250D01*
X100136291Y-66406170D01*
X100136287Y-66406171D01*
X100002377Y-66461637D01*
X99887379Y-66549879D01*
X99799137Y-66664877D01*
X99743671Y-66798787D01*
X99743670Y-66798791D01*
X99724750Y-66942499D01*
X99724750Y-66942500D01*
X99743670Y-67086208D01*
X99743671Y-67086212D01*
X99799137Y-67220122D01*
X99799138Y-67220124D01*
X99799139Y-67220125D01*
X99887379Y-67335121D01*
X100002375Y-67423361D01*
X100136291Y-67478830D01*
X100263280Y-67495548D01*
X100279999Y-67497750D01*
X100280000Y-67497750D01*
X100280001Y-67497750D01*
X100294977Y-67495778D01*
X100423709Y-67478830D01*
X100557625Y-67423361D01*
X100645014Y-67356304D01*
X100710182Y-67331110D01*
X100778627Y-67345148D01*
X100828617Y-67393961D01*
X100844500Y-67454680D01*
X100844500Y-67553179D01*
X100824815Y-67620218D01*
X100772011Y-67665973D01*
X100744119Y-67673983D01*
X100744142Y-67674066D01*
X100739512Y-67675306D01*
X100736687Y-67676117D01*
X100736484Y-67676144D01*
X100736290Y-67676170D01*
X100602377Y-67731637D01*
X100487379Y-67819879D01*
X100399137Y-67934877D01*
X100343671Y-68068787D01*
X100343670Y-68068791D01*
X100324750Y-68212499D01*
X100324750Y-68212500D01*
X100343670Y-68356208D01*
X100343671Y-68356212D01*
X100399137Y-68490122D01*
X100399138Y-68490124D01*
X100399139Y-68490125D01*
X100487379Y-68605121D01*
X100602375Y-68693361D01*
X100736291Y-68748830D01*
X100736680Y-68748881D01*
X100736982Y-68749014D01*
X100744141Y-68750933D01*
X100743841Y-68752048D01*
X100800574Y-68777141D01*
X100839050Y-68835462D01*
X100844500Y-68871820D01*
X100844500Y-70285500D01*
X100824815Y-70352539D01*
X100772011Y-70398294D01*
X100720500Y-70409500D01*
X99526092Y-70409500D01*
X99459053Y-70389815D01*
X99439587Y-70371913D01*
X99438372Y-70373129D01*
X99432627Y-70367384D01*
X99432621Y-70367379D01*
X99317625Y-70279139D01*
X99317624Y-70279138D01*
X99317622Y-70279137D01*
X99183712Y-70223671D01*
X99183710Y-70223670D01*
X99183709Y-70223670D01*
X99111854Y-70214210D01*
X99040001Y-70204750D01*
X99039999Y-70204750D01*
X98896291Y-70223670D01*
X98896287Y-70223671D01*
X98762377Y-70279137D01*
X98647379Y-70367379D01*
X98559137Y-70482377D01*
X98503671Y-70616287D01*
X98503670Y-70616291D01*
X98484750Y-70759999D01*
X98484750Y-70760000D01*
X98503670Y-70903708D01*
X98503671Y-70903712D01*
X98559137Y-71037622D01*
X98559138Y-71037624D01*
X98559139Y-71037625D01*
X98647379Y-71152621D01*
X98762375Y-71240861D01*
X98896291Y-71296330D01*
X99023280Y-71313048D01*
X99039999Y-71315250D01*
X99040000Y-71315250D01*
X99040001Y-71315250D01*
X99054977Y-71313278D01*
X99183709Y-71296330D01*
X99317625Y-71240861D01*
X99432621Y-71152621D01*
X99432623Y-71152617D01*
X99432627Y-71152615D01*
X99438372Y-71146871D01*
X99440888Y-71149387D01*
X99484183Y-71117797D01*
X99526092Y-71110500D01*
X100720500Y-71110500D01*
X100787539Y-71130185D01*
X100833294Y-71182989D01*
X100844500Y-71234500D01*
X100844500Y-71626002D01*
X100850338Y-71680312D01*
X100861543Y-71731818D01*
X100861545Y-71731824D01*
X100863957Y-71740615D01*
X100868779Y-71758192D01*
X100868783Y-71758203D01*
X100918105Y-71844818D01*
X100918110Y-71844825D01*
X100918112Y-71844828D01*
X100932735Y-71861704D01*
X100963863Y-71897628D01*
X100963866Y-71897631D01*
X100963867Y-71897632D01*
X100996641Y-71929257D01*
X101084976Y-71975465D01*
X101084977Y-71975465D01*
X101084977Y-71975466D01*
X101129218Y-71988456D01*
X101152015Y-71995150D01*
X101152019Y-71995150D01*
X101152021Y-71995151D01*
X101163652Y-71996823D01*
X101224000Y-72005500D01*
X101224001Y-72005500D01*
X107226000Y-72005500D01*
X107280313Y-71999661D01*
X107331824Y-71988455D01*
X107358198Y-71981219D01*
X107413113Y-71949948D01*
X107444818Y-71931894D01*
X107444819Y-71931892D01*
X107444828Y-71931888D01*
X107497632Y-71886133D01*
X107529257Y-71853359D01*
X107575465Y-71765024D01*
X107577470Y-71758198D01*
X107592708Y-71706301D01*
X107595150Y-71697985D01*
X107605500Y-71626000D01*
X107605500Y-51242804D01*
X107614939Y-51195351D01*
X107636330Y-51143709D01*
X107655250Y-51000000D01*
X107636330Y-50856291D01*
X107614937Y-50804643D01*
X107605500Y-50757195D01*
X107605500Y-48874000D01*
X107599661Y-48819687D01*
X107588455Y-48768176D01*
X107581219Y-48741802D01*
X107552210Y-48690859D01*
X107536143Y-48622862D01*
X107559388Y-48556972D01*
X107614566Y-48514110D01*
X107659965Y-48505500D01*
X109867809Y-48505500D01*
X109934848Y-48525185D01*
X109980603Y-48577989D01*
X109991809Y-48629500D01*
X109991809Y-71600485D01*
X109997647Y-71654795D01*
X110008852Y-71706301D01*
X110008855Y-71706310D01*
X110016088Y-71732675D01*
X110016092Y-71732686D01*
X110065414Y-71819301D01*
X110065419Y-71819308D01*
X110065421Y-71819311D01*
X110073866Y-71829057D01*
X110111172Y-71872111D01*
X110111175Y-71872114D01*
X110111176Y-71872115D01*
X110143950Y-71903740D01*
X110232285Y-71949948D01*
X110232286Y-71949948D01*
X110232286Y-71949949D01*
X110277600Y-71963254D01*
X110299324Y-71969633D01*
X110299328Y-71969633D01*
X110299330Y-71969634D01*
X110310961Y-71971306D01*
X110371309Y-71979983D01*
X110371310Y-71979983D01*
X113623805Y-71979983D01*
X113623808Y-71979983D01*
X113677615Y-71974253D01*
X113728672Y-71963254D01*
X113754575Y-71956232D01*
X113841403Y-71907250D01*
X113894391Y-71861708D01*
X113926149Y-71829060D01*
X113972712Y-71740911D01*
X113992666Y-71673952D01*
X114003305Y-71602012D01*
X114005981Y-70937788D01*
X114004055Y-70905429D01*
X114003842Y-70903709D01*
X114000206Y-70874277D01*
X113999530Y-70869226D01*
X113999530Y-70869225D01*
X113999530Y-70869223D01*
X113966362Y-70775211D01*
X113957336Y-70760000D01*
X113930704Y-70715116D01*
X113903322Y-70677146D01*
X113880075Y-70611257D01*
X113889336Y-70557164D01*
X113920314Y-70482375D01*
X113936330Y-70443709D01*
X113955250Y-70300000D01*
X113955250Y-70299999D01*
X113955250Y-70291871D01*
X113959049Y-70291871D01*
X113966388Y-70240418D01*
X113991556Y-70204124D01*
X114613046Y-69582634D01*
X114632902Y-69566511D01*
X114640669Y-69561437D01*
X114658496Y-69538531D01*
X114667545Y-69528285D01*
X114668362Y-69527319D01*
X114668376Y-69527306D01*
X114679570Y-69511626D01*
X114682615Y-69507543D01*
X114712514Y-69469130D01*
X114712514Y-69469129D01*
X114712517Y-69469126D01*
X114712518Y-69469121D01*
X114716016Y-69462657D01*
X114719236Y-69456070D01*
X114719240Y-69456066D01*
X114733131Y-69409404D01*
X114734686Y-69404550D01*
X114750500Y-69358488D01*
X114750500Y-69358483D01*
X114751705Y-69351258D01*
X114752617Y-69343950D01*
X114750606Y-69295320D01*
X114750500Y-69290196D01*
X114750500Y-58700000D01*
X125000000Y-58700000D01*
X125000000Y-63550000D01*
X130100000Y-63550000D01*
X130100000Y-58700000D01*
X125000000Y-58700000D01*
X114750500Y-58700000D01*
X114750500Y-57996544D01*
X114770185Y-57929505D01*
X114786819Y-57908863D01*
X115108863Y-57586819D01*
X115170186Y-57553334D01*
X115196544Y-57550500D01*
X129653908Y-57550500D01*
X129720947Y-57570185D01*
X129740412Y-57588086D01*
X129741628Y-57586871D01*
X129747372Y-57592615D01*
X129747377Y-57592619D01*
X129747379Y-57592621D01*
X129862375Y-57680861D01*
X129996291Y-57736330D01*
X130123280Y-57753048D01*
X130139999Y-57755250D01*
X130140000Y-57755250D01*
X130140001Y-57755250D01*
X130154977Y-57753278D01*
X130283709Y-57736330D01*
X130417625Y-57680861D01*
X130532621Y-57592621D01*
X130620861Y-57477625D01*
X130676330Y-57343709D01*
X130695250Y-57200000D01*
X130676330Y-57056291D01*
X130620861Y-56922375D01*
X130532621Y-56807379D01*
X130417625Y-56719139D01*
X130417624Y-56719138D01*
X130417622Y-56719137D01*
X130283712Y-56663671D01*
X130283710Y-56663670D01*
X130283709Y-56663670D01*
X130211854Y-56654210D01*
X130140001Y-56644750D01*
X130139999Y-56644750D01*
X129996291Y-56663670D01*
X129996287Y-56663671D01*
X129862377Y-56719137D01*
X129747372Y-56807384D01*
X129741628Y-56813129D01*
X129739111Y-56810612D01*
X129695817Y-56842203D01*
X129653908Y-56849500D01*
X129533797Y-56849500D01*
X129466758Y-56829815D01*
X129421003Y-56777011D01*
X129410858Y-56709314D01*
X129416868Y-56663670D01*
X129425250Y-56600000D01*
X129406330Y-56456291D01*
X129350861Y-56322375D01*
X129262621Y-56207379D01*
X129147625Y-56119139D01*
X129147624Y-56119138D01*
X129147622Y-56119137D01*
X129013712Y-56063671D01*
X129013710Y-56063670D01*
X129013709Y-56063670D01*
X128941854Y-56054210D01*
X128870001Y-56044750D01*
X128869999Y-56044750D01*
X128726291Y-56063670D01*
X128726287Y-56063671D01*
X128592377Y-56119137D01*
X128477372Y-56207384D01*
X128471628Y-56213129D01*
X128469111Y-56210612D01*
X128425817Y-56242203D01*
X128383908Y-56249500D01*
X128263797Y-56249500D01*
X128196758Y-56229815D01*
X128151003Y-56177011D01*
X128140858Y-56109314D01*
X128146868Y-56063670D01*
X128155250Y-56000000D01*
X128140858Y-55890685D01*
X128151623Y-55821651D01*
X128198003Y-55769395D01*
X128263797Y-55750500D01*
X130923908Y-55750500D01*
X130990947Y-55770185D01*
X131010412Y-55788086D01*
X131011628Y-55786871D01*
X131017372Y-55792615D01*
X131017377Y-55792619D01*
X131017379Y-55792621D01*
X131132375Y-55880861D01*
X131266291Y-55936330D01*
X131393280Y-55953048D01*
X131409999Y-55955250D01*
X131410000Y-55955250D01*
X131410001Y-55955250D01*
X131424977Y-55953278D01*
X131553709Y-55936330D01*
X131687625Y-55880861D01*
X131802621Y-55792621D01*
X131890861Y-55677625D01*
X131946330Y-55543709D01*
X131965250Y-55400000D01*
X131946330Y-55256291D01*
X131890861Y-55122375D01*
X131802621Y-55007379D01*
X131687625Y-54919139D01*
X131687624Y-54919138D01*
X131687622Y-54919137D01*
X131553712Y-54863671D01*
X131553710Y-54863670D01*
X131553709Y-54863670D01*
X131481854Y-54854210D01*
X131410001Y-54844750D01*
X131409999Y-54844750D01*
X131266291Y-54863670D01*
X131266287Y-54863671D01*
X131132377Y-54919137D01*
X131017372Y-55007384D01*
X131011628Y-55013129D01*
X131009111Y-55010612D01*
X130965817Y-55042203D01*
X130923908Y-55049500D01*
X114159381Y-55049500D01*
X114092342Y-55029815D01*
X114046587Y-54977011D01*
X114036643Y-54907853D01*
X114040546Y-54890084D01*
X114040636Y-54889781D01*
X114040638Y-54889778D01*
X114060593Y-54822819D01*
X114071233Y-54750877D01*
X114072349Y-54473999D01*
X114092304Y-54407041D01*
X114145292Y-54361499D01*
X114196348Y-54350500D01*
X132064201Y-54350500D01*
X132091324Y-54350500D01*
X132158363Y-54370185D01*
X132179005Y-54386819D01*
X133415867Y-55623681D01*
X133442747Y-55663909D01*
X133469139Y-55727625D01*
X133557379Y-55842621D01*
X133672375Y-55930861D01*
X133672376Y-55930861D01*
X133672377Y-55930862D01*
X133717013Y-55949350D01*
X133806291Y-55986330D01*
X133933280Y-56003048D01*
X133949999Y-56005250D01*
X133950000Y-56005250D01*
X133950001Y-56005250D01*
X133964977Y-56003278D01*
X134093709Y-55986330D01*
X134227625Y-55930861D01*
X134342621Y-55842621D01*
X134430861Y-55727625D01*
X134486330Y-55593709D01*
X134505250Y-55450000D01*
X134486330Y-55306291D01*
X134459937Y-55242572D01*
X134450500Y-55195124D01*
X134450500Y-54617138D01*
X134453334Y-54590779D01*
X134454358Y-54586073D01*
X134450816Y-54536547D01*
X134450500Y-54527701D01*
X134450500Y-54104875D01*
X134459939Y-54057422D01*
X134486330Y-53993709D01*
X134505250Y-53850000D01*
X134486330Y-53706291D01*
X134430861Y-53572375D01*
X134342621Y-53457379D01*
X134227625Y-53369139D01*
X134227623Y-53369138D01*
X134163909Y-53342747D01*
X134123681Y-53315867D01*
X134088885Y-53281071D01*
X134072250Y-53260428D01*
X134069645Y-53256374D01*
X134069643Y-53256372D01*
X134032114Y-53223853D01*
X134025647Y-53217833D01*
X134016093Y-53208279D01*
X134005285Y-53200188D01*
X133998404Y-53194644D01*
X133960873Y-53162123D01*
X133960872Y-53162122D01*
X133960867Y-53162119D01*
X133956483Y-53160117D01*
X133933694Y-53146596D01*
X133929831Y-53143704D01*
X133929829Y-53143703D01*
X133883290Y-53126345D01*
X133875122Y-53122961D01*
X133829957Y-53102335D01*
X133829955Y-53102334D01*
X133825182Y-53101648D01*
X133799500Y-53095093D01*
X133794986Y-53093409D01*
X133745446Y-53089865D01*
X133736659Y-53088920D01*
X133723299Y-53087000D01*
X133723297Y-53087000D01*
X133709808Y-53087000D01*
X133700961Y-53086684D01*
X133651429Y-53083141D01*
X133651425Y-53083141D01*
X133646715Y-53084166D01*
X133620357Y-53087000D01*
X114202441Y-53087000D01*
X114135402Y-53067315D01*
X114089647Y-53014511D01*
X114078442Y-52962500D01*
X114104996Y-46375535D01*
X114104995Y-46375534D01*
X114104996Y-46375530D01*
X114099268Y-46320691D01*
X114091729Y-46285696D01*
X114088070Y-46268711D01*
X114088067Y-46268699D01*
X114088063Y-46268680D01*
X114080718Y-46241802D01*
X114080716Y-46241797D01*
X114031391Y-46155177D01*
X114031388Y-46155174D01*
X114031387Y-46155172D01*
X113995596Y-46113867D01*
X113985635Y-46102371D01*
X113952858Y-46070743D01*
X113864521Y-46024534D01*
X113864521Y-46024533D01*
X113797489Y-46004851D01*
X113797477Y-46004848D01*
X113725500Y-45994500D01*
X113725499Y-45994500D01*
X107121309Y-45994500D01*
X107121306Y-45994500D01*
X107066996Y-46000338D01*
X107015490Y-46011543D01*
X107015481Y-46011546D01*
X106989116Y-46018779D01*
X106989105Y-46018783D01*
X106902490Y-46068105D01*
X106902482Y-46068111D01*
X106849680Y-46113863D01*
X106818052Y-46146640D01*
X106771843Y-46234977D01*
X106771842Y-46234977D01*
X106752160Y-46302009D01*
X106752157Y-46302021D01*
X106741809Y-46373998D01*
X106741809Y-48126002D01*
X106747647Y-48180312D01*
X106758852Y-48231818D01*
X106758854Y-48231824D01*
X106766090Y-48258198D01*
X106783464Y-48288708D01*
X106795099Y-48309141D01*
X106811166Y-48377138D01*
X106787921Y-48443028D01*
X106732743Y-48485890D01*
X106687344Y-48494500D01*
X104229500Y-48494500D01*
X104162461Y-48474815D01*
X104116706Y-48422011D01*
X104105500Y-48370500D01*
X104105500Y-45629500D01*
X104125185Y-45562461D01*
X104177989Y-45516706D01*
X104229500Y-45505500D01*
X114770500Y-45505500D01*
X114837539Y-45525185D01*
X114883294Y-45577989D01*
X114894500Y-45629500D01*
X114894500Y-51726002D01*
X114900338Y-51780312D01*
X114911543Y-51831818D01*
X114911546Y-51831827D01*
X114918779Y-51858192D01*
X114918783Y-51858203D01*
X114968105Y-51944818D01*
X114968110Y-51944825D01*
X114968112Y-51944828D01*
X114994580Y-51975374D01*
X115013863Y-51997628D01*
X115013866Y-51997631D01*
X115013867Y-51997632D01*
X115046641Y-52029257D01*
X115134976Y-52075465D01*
X115134977Y-52075465D01*
X115134977Y-52075466D01*
X115179218Y-52088456D01*
X115202015Y-52095150D01*
X115202019Y-52095150D01*
X115202021Y-52095151D01*
X115213652Y-52096823D01*
X115274000Y-52105500D01*
X115274001Y-52105500D01*
X133476000Y-52105500D01*
X133530313Y-52099661D01*
X133581824Y-52088455D01*
X133608198Y-52081219D01*
X133637074Y-52064775D01*
X133694818Y-52031894D01*
X133694819Y-52031892D01*
X133694828Y-52031888D01*
X133747632Y-51986133D01*
X133779257Y-51953359D01*
X133825465Y-51865024D01*
X133827470Y-51858198D01*
X133841244Y-51811287D01*
X133845150Y-51797985D01*
X133855500Y-51726000D01*
X133855500Y-50874000D01*
X133849661Y-50819687D01*
X133838455Y-50768176D01*
X133831219Y-50741802D01*
X133831216Y-50741796D01*
X133781894Y-50655181D01*
X133781890Y-50655176D01*
X133781888Y-50655172D01*
X133736133Y-50602368D01*
X133703359Y-50570743D01*
X133615024Y-50524535D01*
X133615023Y-50524534D01*
X133615022Y-50524534D01*
X133615022Y-50524533D01*
X133547990Y-50504851D01*
X133547978Y-50504848D01*
X133476001Y-50494500D01*
X133476000Y-50494500D01*
X127465426Y-50494500D01*
X127398387Y-50474815D01*
X127352632Y-50422011D01*
X127342688Y-50352853D01*
X127344769Y-50341903D01*
X127350500Y-50317722D01*
X127350500Y-49086298D01*
X127350500Y-49086291D01*
X127335241Y-48955745D01*
X127275237Y-48790883D01*
X127230180Y-48722377D01*
X127178832Y-48644306D01*
X127178831Y-48644305D01*
X127051222Y-48523911D01*
X127051219Y-48523909D01*
X127051218Y-48523908D01*
X127012498Y-48501553D01*
X126964284Y-48450986D01*
X126950500Y-48394167D01*
X126950500Y-46536978D01*
X126970185Y-46469939D01*
X127000451Y-46437516D01*
X127118530Y-46349610D01*
X127231302Y-46215214D01*
X127310040Y-46058433D01*
X127318075Y-46024533D01*
X127336711Y-45945903D01*
X127371325Y-45885210D01*
X127433258Y-45852867D01*
X127457368Y-45850500D01*
X134379943Y-45850500D01*
X134446982Y-45870185D01*
X134492737Y-45922989D01*
X134503104Y-45960101D01*
X134504758Y-45974253D01*
X134564762Y-46139115D01*
X134564764Y-46139119D01*
X134661167Y-46285693D01*
X134661168Y-46285694D01*
X134788778Y-46406090D01*
X134788780Y-46406090D01*
X134788782Y-46406092D01*
X134827498Y-46428444D01*
X134875714Y-46479009D01*
X134889500Y-46535832D01*
X134889500Y-48393020D01*
X134869815Y-48460059D01*
X134839548Y-48492483D01*
X134721469Y-48580390D01*
X134608698Y-48714785D01*
X134608697Y-48714787D01*
X134529961Y-48871562D01*
X134528276Y-48878671D01*
X134489500Y-49042279D01*
X134489500Y-50273709D01*
X134494645Y-50317722D01*
X134504759Y-50404256D01*
X134504760Y-50404259D01*
X134564762Y-50569115D01*
X134564764Y-50569119D01*
X134661167Y-50715693D01*
X134661168Y-50715694D01*
X134788778Y-50836089D01*
X134788780Y-50836090D01*
X134788782Y-50836092D01*
X134940719Y-50923812D01*
X135108790Y-50974130D01*
X135283935Y-50984331D01*
X135456711Y-50953865D01*
X135617804Y-50884377D01*
X135758530Y-50779610D01*
X135871302Y-50645214D01*
X135950040Y-50488433D01*
X135990500Y-50317721D01*
X135990500Y-49086291D01*
X135975241Y-48955745D01*
X135915237Y-48790883D01*
X135870180Y-48722377D01*
X135818832Y-48644306D01*
X135818831Y-48644305D01*
X135691222Y-48523911D01*
X135691219Y-48523909D01*
X135691218Y-48523908D01*
X135652498Y-48501553D01*
X135604284Y-48450986D01*
X135590500Y-48394167D01*
X135590500Y-46536978D01*
X135610185Y-46469939D01*
X135640451Y-46437516D01*
X135758530Y-46349610D01*
X135871302Y-46215214D01*
X135950040Y-46058433D01*
X135990500Y-45887721D01*
X135990500Y-45156291D01*
X135975241Y-45025745D01*
X135915237Y-44860883D01*
X135865187Y-44784786D01*
X135818832Y-44714306D01*
X135818831Y-44714305D01*
X135691221Y-44593910D01*
X135539281Y-44506188D01*
X135539282Y-44506188D01*
X135371210Y-44455870D01*
X135371205Y-44455869D01*
X135196066Y-44445669D01*
X135196065Y-44445669D01*
X135138220Y-44455869D01*
X135023293Y-44476134D01*
X135023291Y-44476134D01*
X135023289Y-44476135D01*
X135023287Y-44476136D01*
X134862198Y-44545622D01*
X134862190Y-44545626D01*
X134721469Y-44650390D01*
X134608698Y-44784785D01*
X134608697Y-44784787D01*
X134529959Y-44941566D01*
X134503289Y-45054097D01*
X134468675Y-45114790D01*
X134406742Y-45147133D01*
X134382632Y-45149500D01*
X127460057Y-45149500D01*
X127393018Y-45129815D01*
X127347263Y-45077011D01*
X127336896Y-45039899D01*
X127335241Y-45025746D01*
X127304603Y-44941566D01*
X127275237Y-44860883D01*
X127225187Y-44784786D01*
X127178832Y-44714306D01*
X127178831Y-44714305D01*
X127051221Y-44593910D01*
X126899281Y-44506188D01*
X126899282Y-44506188D01*
X126731210Y-44455870D01*
X126731205Y-44455869D01*
X126556066Y-44445669D01*
X126556065Y-44445669D01*
X126498220Y-44455869D01*
X126383293Y-44476134D01*
X126383291Y-44476134D01*
X126383289Y-44476135D01*
X126383287Y-44476136D01*
X126222198Y-44545622D01*
X126222190Y-44545626D01*
X126081469Y-44650390D01*
X125968698Y-44784785D01*
X125968697Y-44784787D01*
X125889961Y-44941562D01*
X125889960Y-44941567D01*
X125849500Y-45112279D01*
X125849500Y-45843709D01*
X125855432Y-45894456D01*
X125864759Y-45974256D01*
X125864760Y-45974259D01*
X125924762Y-46139115D01*
X125924764Y-46139119D01*
X126021167Y-46285693D01*
X126021168Y-46285694D01*
X126148778Y-46406090D01*
X126148780Y-46406090D01*
X126148782Y-46406092D01*
X126187498Y-46428444D01*
X126235714Y-46479009D01*
X126249500Y-46535832D01*
X126249500Y-48393020D01*
X126229815Y-48460059D01*
X126199548Y-48492483D01*
X126081469Y-48580390D01*
X125968698Y-48714785D01*
X125968697Y-48714787D01*
X125889961Y-48871562D01*
X125888276Y-48878671D01*
X125854216Y-49022384D01*
X125849500Y-49042281D01*
X125849500Y-50273717D01*
X125859131Y-50356104D01*
X125847363Y-50424975D01*
X125800228Y-50476551D01*
X125735970Y-50494500D01*
X117179500Y-50494500D01*
X117112461Y-50474815D01*
X117066706Y-50422011D01*
X117055500Y-50370500D01*
X117055500Y-44474000D01*
X117049661Y-44419687D01*
X117038455Y-44368176D01*
X117031219Y-44341802D01*
X117027332Y-44334976D01*
X116981894Y-44255181D01*
X116981890Y-44255176D01*
X116981888Y-44255172D01*
X116946097Y-44213867D01*
X116936136Y-44202371D01*
X116903359Y-44170743D01*
X116815022Y-44124534D01*
X116815022Y-44124533D01*
X116747990Y-44104851D01*
X116747978Y-44104848D01*
X116676001Y-44094500D01*
X116676000Y-44094500D01*
X101224000Y-44094500D01*
X101223997Y-44094500D01*
X101169687Y-44100338D01*
X101118181Y-44111543D01*
X101118172Y-44111546D01*
X101091807Y-44118779D01*
X101091796Y-44118783D01*
X101005181Y-44168105D01*
X101005173Y-44168111D01*
X100952371Y-44213863D01*
X100920743Y-44246640D01*
X100874534Y-44334977D01*
X100874533Y-44334977D01*
X100854851Y-44402009D01*
X100854848Y-44402021D01*
X100844500Y-44473998D01*
X100844500Y-45894456D01*
X100824815Y-45961495D01*
X100772011Y-46007250D01*
X100702853Y-46017194D01*
X100639297Y-45988169D01*
X100632819Y-45982137D01*
X100437637Y-45786955D01*
X100421511Y-45767098D01*
X100416437Y-45759331D01*
X100393524Y-45741497D01*
X100383248Y-45732422D01*
X100382309Y-45731627D01*
X100382307Y-45731625D01*
X100366651Y-45720447D01*
X100362544Y-45717385D01*
X100354086Y-45710802D01*
X100324126Y-45687483D01*
X100324124Y-45687482D01*
X100317640Y-45683973D01*
X100311067Y-45680759D01*
X100264409Y-45666868D01*
X100259532Y-45665306D01*
X100213484Y-45649498D01*
X100206287Y-45648297D01*
X100198951Y-45647382D01*
X100150332Y-45649394D01*
X100145207Y-45649500D01*
X70649211Y-45649500D01*
X70623765Y-45646861D01*
X70614685Y-45644957D01*
X70614684Y-45644957D01*
X70614683Y-45644957D01*
X70585877Y-45648548D01*
X70572211Y-45649396D01*
X70570965Y-45649499D01*
X70551960Y-45652669D01*
X70546903Y-45653405D01*
X70498607Y-45659426D01*
X70491570Y-45661520D01*
X70484619Y-45663907D01*
X70441809Y-45687074D01*
X70437258Y-45689417D01*
X70393513Y-45710804D01*
X70387520Y-45715081D01*
X70381743Y-45719579D01*
X70348769Y-45755398D01*
X70345222Y-45759095D01*
X67695877Y-48408440D01*
X67634554Y-48441925D01*
X67608127Y-48443042D01*
X67608127Y-48444750D01*
X67599999Y-48444750D01*
X67456291Y-48463670D01*
X67456287Y-48463671D01*
X67322377Y-48519137D01*
X67207379Y-48607379D01*
X67119137Y-48722377D01*
X67063671Y-48856287D01*
X67063670Y-48856291D01*
X67044750Y-48999999D01*
X67044750Y-49000000D01*
X67063670Y-49143708D01*
X67063670Y-49143709D01*
X67090061Y-49207422D01*
X67099500Y-49254875D01*
X67099500Y-51745124D01*
X67090062Y-51792572D01*
X67073807Y-51831818D01*
X67063669Y-51856293D01*
X67046575Y-51986136D01*
X67044750Y-52000000D01*
X67058639Y-52105499D01*
X67063670Y-52143708D01*
X67063670Y-52143709D01*
X67090061Y-52207422D01*
X67099500Y-52254875D01*
X67099500Y-54745124D01*
X67090062Y-54792575D01*
X67063669Y-54856293D01*
X67047656Y-54977926D01*
X67044750Y-55000000D01*
X67048874Y-55031328D01*
X67063670Y-55143708D01*
X67063670Y-55143709D01*
X67090061Y-55207422D01*
X67099500Y-55254875D01*
X67099500Y-57745124D01*
X67090062Y-57792575D01*
X67063669Y-57856293D01*
X67044750Y-57999999D01*
X67044750Y-58000000D01*
X67063670Y-58143708D01*
X67063670Y-58143709D01*
X67090061Y-58207422D01*
X67099500Y-58254875D01*
X67099500Y-60745124D01*
X67090062Y-60792575D01*
X67063669Y-60856293D01*
X67050969Y-60952764D01*
X67044750Y-61000000D01*
X67057915Y-61100000D01*
X67063670Y-61143708D01*
X67063670Y-61143709D01*
X67090061Y-61207422D01*
X67099500Y-61254875D01*
X67099500Y-63745124D01*
X67090062Y-63792575D01*
X67063669Y-63856293D01*
X67044750Y-63999999D01*
X67044750Y-64000000D01*
X67063670Y-64143708D01*
X67063670Y-64143709D01*
X67090061Y-64207422D01*
X67099500Y-64254875D01*
X67099500Y-66762802D01*
X67090062Y-66810253D01*
X67063669Y-66873971D01*
X67044750Y-67017677D01*
X67044750Y-67017678D01*
X67053772Y-67086209D01*
X67063670Y-67161386D01*
X67063670Y-67161387D01*
X67090061Y-67225100D01*
X67099500Y-67272553D01*
X67099500Y-69870950D01*
X67090062Y-69918401D01*
X67063669Y-69982119D01*
X67044750Y-70125825D01*
X67044750Y-70125826D01*
X66155138Y-70125826D01*
X66155138Y-44006092D01*
X66155735Y-43993938D01*
X66158664Y-43964201D01*
X66170175Y-43847322D01*
X66174914Y-43823498D01*
X66215907Y-43688360D01*
X66225201Y-43665923D01*
X66291770Y-43541382D01*
X66305265Y-43521185D01*
X66394848Y-43412027D01*
X66412027Y-43394848D01*
X66521185Y-43305265D01*
X66541382Y-43291770D01*
X66665923Y-43225201D01*
X66688360Y-43215907D01*
X66823498Y-43174914D01*
X66847322Y-43170175D01*
X66993939Y-43155735D01*
X67006093Y-43155138D01*
X67065892Y-43155138D01*
X136586000Y-43155138D01*
X136653039Y-43174823D01*
G37*
%TD.AperFunction*%
%TD*%
%TA.AperFunction,Conductor*%
%TO.N,+3V3*%
G36*
X113792538Y-46269685D02*
G01*
X113838293Y-46322489D01*
X113849498Y-46374500D01*
X113815735Y-54749847D01*
X113795780Y-54816806D01*
X113742792Y-54862348D01*
X113673594Y-54872013D01*
X113644290Y-54863910D01*
X113643709Y-54863670D01*
X113643708Y-54863669D01*
X113643706Y-54863669D01*
X113500001Y-54844750D01*
X113499999Y-54844750D01*
X113356291Y-54863670D01*
X113356287Y-54863671D01*
X113222377Y-54919137D01*
X113107379Y-55007379D01*
X113019137Y-55122377D01*
X112963671Y-55256287D01*
X112963670Y-55256291D01*
X112944750Y-55399999D01*
X112944750Y-55400000D01*
X112963670Y-55543708D01*
X112963671Y-55543712D01*
X113019137Y-55677622D01*
X113019138Y-55677624D01*
X113019139Y-55677625D01*
X113107379Y-55792621D01*
X113222375Y-55880861D01*
X113356291Y-55936330D01*
X113483280Y-55953048D01*
X113499999Y-55955250D01*
X113500000Y-55955250D01*
X113500001Y-55955250D01*
X113551525Y-55948466D01*
X113643709Y-55936330D01*
X113643709Y-55936329D01*
X113651766Y-55935269D01*
X113652087Y-55937710D01*
X113709498Y-55939063D01*
X113767370Y-55978212D01*
X113794890Y-56042434D01*
X113783319Y-56111339D01*
X113759451Y-56144865D01*
X113186955Y-56717361D01*
X113167106Y-56733482D01*
X113159331Y-56738562D01*
X113141499Y-56761472D01*
X113132394Y-56771784D01*
X113131624Y-56772694D01*
X113120439Y-56788359D01*
X113117378Y-56792463D01*
X113087482Y-56830873D01*
X113083980Y-56837344D01*
X113080760Y-56843932D01*
X113066871Y-56890582D01*
X113065309Y-56895457D01*
X113049499Y-56941513D01*
X113048296Y-56948717D01*
X113047382Y-56956048D01*
X113049394Y-57004667D01*
X113049500Y-57009792D01*
X113049500Y-59813908D01*
X113029815Y-59880947D01*
X113011913Y-59900412D01*
X113013129Y-59901628D01*
X113007384Y-59907372D01*
X112919137Y-60022377D01*
X112863671Y-60156287D01*
X112863670Y-60156291D01*
X112844750Y-60299999D01*
X112844750Y-60300000D01*
X112863670Y-60443708D01*
X112863671Y-60443712D01*
X112919137Y-60577622D01*
X112919138Y-60577624D01*
X112919139Y-60577625D01*
X113007379Y-60692621D01*
X113122375Y-60780861D01*
X113122376Y-60780861D01*
X113122377Y-60780862D01*
X113167013Y-60799350D01*
X113256291Y-60836330D01*
X113372451Y-60851623D01*
X113399999Y-60855250D01*
X113400000Y-60855250D01*
X113400001Y-60855250D01*
X113435679Y-60850552D01*
X113509314Y-60840858D01*
X113578349Y-60851623D01*
X113630605Y-60898003D01*
X113649500Y-60963797D01*
X113649500Y-64503455D01*
X113629815Y-64570494D01*
X113613181Y-64591137D01*
X113495877Y-64708440D01*
X113434554Y-64741924D01*
X113408128Y-64743208D01*
X113408128Y-64744750D01*
X113400000Y-64744750D01*
X113256291Y-64763670D01*
X113256287Y-64763671D01*
X113122377Y-64819137D01*
X113007379Y-64907379D01*
X112919137Y-65022377D01*
X112863671Y-65156287D01*
X112863670Y-65156291D01*
X112844750Y-65299999D01*
X112844750Y-65300000D01*
X112863670Y-65443708D01*
X112863671Y-65443712D01*
X112919137Y-65577622D01*
X112919138Y-65577624D01*
X112919139Y-65577625D01*
X113007379Y-65692621D01*
X113122375Y-65780861D01*
X113256291Y-65836330D01*
X113383280Y-65853048D01*
X113399999Y-65855250D01*
X113400000Y-65855250D01*
X113400001Y-65855250D01*
X113414977Y-65853278D01*
X113543709Y-65836330D01*
X113599222Y-65813335D01*
X113668691Y-65805867D01*
X113731170Y-65837142D01*
X113766822Y-65897231D01*
X113770673Y-65928397D01*
X113756691Y-69396762D01*
X113736736Y-69463721D01*
X113720373Y-69483943D01*
X113495877Y-69708440D01*
X113434554Y-69741925D01*
X113408127Y-69743042D01*
X113408127Y-69744750D01*
X113399999Y-69744750D01*
X113256291Y-69763670D01*
X113256287Y-69763671D01*
X113122377Y-69819137D01*
X113007379Y-69907379D01*
X112919137Y-70022377D01*
X112863671Y-70156287D01*
X112863670Y-70156291D01*
X112844750Y-70299999D01*
X112844750Y-70300000D01*
X112863670Y-70443708D01*
X112863671Y-70443712D01*
X112919137Y-70577622D01*
X112919138Y-70577624D01*
X112919139Y-70577625D01*
X113007379Y-70692621D01*
X113122375Y-70780861D01*
X113256291Y-70836330D01*
X113383280Y-70853048D01*
X113399999Y-70855250D01*
X113400000Y-70855250D01*
X113400001Y-70855250D01*
X113414977Y-70853278D01*
X113543709Y-70836330D01*
X113579032Y-70821698D01*
X113648499Y-70814229D01*
X113710978Y-70845503D01*
X113746632Y-70905591D01*
X113750483Y-70936759D01*
X113747807Y-71600983D01*
X113727853Y-71667942D01*
X113674865Y-71713484D01*
X113623808Y-71724483D01*
X110371309Y-71724483D01*
X110304270Y-71704798D01*
X110258515Y-71651994D01*
X110247309Y-71600483D01*
X110247309Y-48250000D01*
X107121309Y-48250000D01*
X107054270Y-48230315D01*
X107008515Y-48177511D01*
X106997309Y-48126000D01*
X106997309Y-46374000D01*
X107016994Y-46306961D01*
X107069798Y-46261206D01*
X107121309Y-46250000D01*
X113725499Y-46250000D01*
X113792538Y-46269685D01*
G37*
%TD.AperFunction*%
%TD*%
%TA.AperFunction,Conductor*%
%TO.N,+5V*%
G36*
X116743039Y-44369685D02*
G01*
X116788794Y-44422489D01*
X116800000Y-44474000D01*
X116800000Y-50750000D01*
X126008268Y-50750000D01*
X126075307Y-50769685D01*
X126093358Y-50783802D01*
X126148782Y-50836092D01*
X126300719Y-50923812D01*
X126468790Y-50974130D01*
X126643935Y-50984331D01*
X126816711Y-50953865D01*
X126977804Y-50884377D01*
X127118530Y-50779610D01*
X127118530Y-50779609D01*
X127124323Y-50775297D01*
X127126100Y-50777683D01*
X127176388Y-50752112D01*
X127199177Y-50750000D01*
X133476000Y-50750000D01*
X133543039Y-50769685D01*
X133588794Y-50822489D01*
X133600000Y-50874000D01*
X133600000Y-51726000D01*
X133580315Y-51793039D01*
X133527511Y-51838794D01*
X133476000Y-51850000D01*
X115274000Y-51850000D01*
X115206961Y-51830315D01*
X115161206Y-51777511D01*
X115150000Y-51726000D01*
X115150000Y-45250000D01*
X103850000Y-45250000D01*
X103850000Y-46250000D01*
X101100000Y-46250000D01*
X101100000Y-44474000D01*
X101119685Y-44406961D01*
X101172489Y-44361206D01*
X101224000Y-44350000D01*
X116676000Y-44350000D01*
X116743039Y-44369685D01*
G37*
%TD.AperFunction*%
%TD*%
%TA.AperFunction,Conductor*%
%TO.N,+5V*%
G36*
X103850000Y-48750000D02*
G01*
X107226000Y-48750000D01*
X107293039Y-48769685D01*
X107338794Y-48822489D01*
X107350000Y-48874000D01*
X107350000Y-71626000D01*
X107330315Y-71693039D01*
X107277511Y-71738794D01*
X107226000Y-71750000D01*
X101224000Y-71750000D01*
X101156961Y-71730315D01*
X101111206Y-71677511D01*
X101100000Y-71626000D01*
X101100000Y-71234500D01*
X101119685Y-71167461D01*
X101172489Y-71121706D01*
X101224000Y-71110500D01*
X101833895Y-71110500D01*
X101900934Y-71130185D01*
X101910661Y-71138023D01*
X101910930Y-71137673D01*
X101949751Y-71167461D01*
X102032375Y-71230861D01*
X102166291Y-71286330D01*
X102293280Y-71303048D01*
X102309999Y-71305250D01*
X102310000Y-71305250D01*
X102310001Y-71305250D01*
X102324977Y-71303278D01*
X102453709Y-71286330D01*
X102587625Y-71230861D01*
X102702621Y-71142621D01*
X102790861Y-71027625D01*
X102846330Y-70893709D01*
X102865250Y-70750000D01*
X102846330Y-70606291D01*
X102790861Y-70472375D01*
X102702621Y-70357379D01*
X102587625Y-70269139D01*
X102587624Y-70269138D01*
X102587622Y-70269137D01*
X102453712Y-70213671D01*
X102453710Y-70213670D01*
X102453709Y-70213670D01*
X102381854Y-70204210D01*
X102310001Y-70194750D01*
X102309999Y-70194750D01*
X102166291Y-70213670D01*
X102166287Y-70213671D01*
X102032377Y-70269137D01*
X102011053Y-70285500D01*
X101917379Y-70357379D01*
X101917378Y-70357380D01*
X101917377Y-70357381D01*
X101914608Y-70360990D01*
X101858179Y-70402191D01*
X101816235Y-70409500D01*
X101224000Y-70409500D01*
X101156961Y-70389815D01*
X101111206Y-70337011D01*
X101100000Y-70285500D01*
X101100000Y-68798222D01*
X101119685Y-68731183D01*
X101152438Y-68699955D01*
X101151176Y-68698310D01*
X101212976Y-68650888D01*
X101272621Y-68605121D01*
X101272623Y-68605119D01*
X101278372Y-68599371D01*
X101280888Y-68601887D01*
X101324183Y-68570297D01*
X101366092Y-68563000D01*
X101823895Y-68563000D01*
X101890934Y-68582685D01*
X101900661Y-68590523D01*
X101900930Y-68590173D01*
X101920411Y-68605121D01*
X102022375Y-68683361D01*
X102156291Y-68738830D01*
X102283280Y-68755548D01*
X102299999Y-68757750D01*
X102300000Y-68757750D01*
X102300001Y-68757750D01*
X102314977Y-68755778D01*
X102443709Y-68738830D01*
X102577625Y-68683361D01*
X102692621Y-68595121D01*
X102780861Y-68480125D01*
X102836330Y-68346209D01*
X102855250Y-68202500D01*
X102836330Y-68058791D01*
X102780861Y-67924875D01*
X102692621Y-67809879D01*
X102577625Y-67721639D01*
X102577624Y-67721638D01*
X102577622Y-67721637D01*
X102482074Y-67682061D01*
X102427670Y-67638221D01*
X102405605Y-67571927D01*
X102422884Y-67504227D01*
X102474021Y-67456616D01*
X102482074Y-67452939D01*
X102502852Y-67444332D01*
X102577625Y-67413361D01*
X102692621Y-67325121D01*
X102780861Y-67210125D01*
X102836330Y-67076209D01*
X102855250Y-66932500D01*
X102836330Y-66788791D01*
X102780861Y-66654875D01*
X102692621Y-66539879D01*
X102577625Y-66451639D01*
X102577624Y-66451638D01*
X102577622Y-66451637D01*
X102482074Y-66412061D01*
X102427670Y-66368221D01*
X102405605Y-66301927D01*
X102422884Y-66234227D01*
X102474021Y-66186616D01*
X102482074Y-66182939D01*
X102502852Y-66174332D01*
X102577625Y-66143361D01*
X102692621Y-66055121D01*
X102780861Y-65940125D01*
X102836330Y-65806209D01*
X102855250Y-65662500D01*
X102836330Y-65518791D01*
X102780861Y-65384875D01*
X102692621Y-65269879D01*
X102577625Y-65181639D01*
X102577624Y-65181638D01*
X102577622Y-65181637D01*
X102443712Y-65126171D01*
X102443710Y-65126170D01*
X102443709Y-65126170D01*
X102371854Y-65116710D01*
X102300001Y-65107250D01*
X102299999Y-65107250D01*
X102156291Y-65126170D01*
X102156287Y-65126171D01*
X102022377Y-65181637D01*
X102001053Y-65198000D01*
X101907379Y-65269879D01*
X101907378Y-65269880D01*
X101907377Y-65269881D01*
X101904608Y-65273490D01*
X101848179Y-65314691D01*
X101806235Y-65322000D01*
X101224000Y-65322000D01*
X101156961Y-65302315D01*
X101111206Y-65249511D01*
X101100000Y-65198000D01*
X101100000Y-63604500D01*
X101119685Y-63537461D01*
X101172489Y-63491706D01*
X101224000Y-63480500D01*
X101818908Y-63480500D01*
X101885947Y-63500185D01*
X101905412Y-63518086D01*
X101906628Y-63516871D01*
X101912372Y-63522615D01*
X101912377Y-63522619D01*
X101912379Y-63522621D01*
X102027375Y-63610861D01*
X102161291Y-63666330D01*
X102288280Y-63683048D01*
X102304999Y-63685250D01*
X102305000Y-63685250D01*
X102305001Y-63685250D01*
X102319977Y-63683278D01*
X102448709Y-63666330D01*
X102582625Y-63610861D01*
X102697621Y-63522621D01*
X102785861Y-63407625D01*
X102841330Y-63273709D01*
X102860250Y-63130000D01*
X102841330Y-62986291D01*
X102785861Y-62852375D01*
X102697621Y-62737379D01*
X102582625Y-62649139D01*
X102582624Y-62649138D01*
X102582622Y-62649137D01*
X102448712Y-62593671D01*
X102448710Y-62593670D01*
X102448709Y-62593670D01*
X102376854Y-62584210D01*
X102305001Y-62574750D01*
X102304999Y-62574750D01*
X102161291Y-62593670D01*
X102161287Y-62593671D01*
X102027377Y-62649137D01*
X101912372Y-62737384D01*
X101906628Y-62743129D01*
X101904111Y-62740612D01*
X101860817Y-62772203D01*
X101818908Y-62779500D01*
X101224000Y-62779500D01*
X101156961Y-62759815D01*
X101111206Y-62707011D01*
X101100000Y-62655500D01*
X101100000Y-53810722D01*
X101119685Y-53743683D01*
X101152438Y-53712455D01*
X101151176Y-53710810D01*
X101212976Y-53663388D01*
X101272621Y-53617621D01*
X101272623Y-53617619D01*
X101278372Y-53611871D01*
X101280888Y-53614387D01*
X101324183Y-53582797D01*
X101366092Y-53575500D01*
X101838908Y-53575500D01*
X101905947Y-53595185D01*
X101925412Y-53613086D01*
X101926628Y-53611871D01*
X101932372Y-53617615D01*
X101932377Y-53617619D01*
X101932379Y-53617621D01*
X102047375Y-53705861D01*
X102047376Y-53705861D01*
X102047377Y-53705862D01*
X102092013Y-53724350D01*
X102181291Y-53761330D01*
X102308280Y-53778048D01*
X102324999Y-53780250D01*
X102325000Y-53780250D01*
X102325001Y-53780250D01*
X102339977Y-53778278D01*
X102468709Y-53761330D01*
X102602625Y-53705861D01*
X102717621Y-53617621D01*
X102805861Y-53502625D01*
X102861330Y-53368709D01*
X102880250Y-53225000D01*
X102861330Y-53081291D01*
X102805861Y-52947375D01*
X102717621Y-52832379D01*
X102602625Y-52744139D01*
X102602624Y-52744138D01*
X102602622Y-52744137D01*
X102507074Y-52704561D01*
X102452670Y-52660721D01*
X102430605Y-52594427D01*
X102447884Y-52526727D01*
X102499021Y-52479116D01*
X102507074Y-52475439D01*
X102527852Y-52466832D01*
X102602625Y-52435861D01*
X102717621Y-52347621D01*
X102805861Y-52232625D01*
X102861330Y-52098709D01*
X102880250Y-51955000D01*
X102861330Y-51811291D01*
X102805861Y-51677375D01*
X102717621Y-51562379D01*
X102602625Y-51474139D01*
X102602624Y-51474138D01*
X102602622Y-51474137D01*
X102507074Y-51434561D01*
X102452670Y-51390721D01*
X102430605Y-51324427D01*
X102447884Y-51256727D01*
X102499021Y-51209116D01*
X102507074Y-51205439D01*
X102527852Y-51196832D01*
X102602625Y-51165861D01*
X102717621Y-51077621D01*
X102805861Y-50962625D01*
X102861330Y-50828709D01*
X102880250Y-50685000D01*
X102861330Y-50541291D01*
X102805861Y-50407375D01*
X102717621Y-50292379D01*
X102602625Y-50204139D01*
X102602624Y-50204138D01*
X102602622Y-50204137D01*
X102507074Y-50164561D01*
X102452670Y-50120721D01*
X102430605Y-50054427D01*
X102447884Y-49986727D01*
X102499021Y-49939116D01*
X102507074Y-49935439D01*
X102527852Y-49926832D01*
X102602625Y-49895861D01*
X102717621Y-49807621D01*
X102805861Y-49692625D01*
X102861330Y-49558709D01*
X102880250Y-49415000D01*
X102861330Y-49271291D01*
X102805861Y-49137375D01*
X102717621Y-49022379D01*
X102602625Y-48934139D01*
X102602621Y-48934137D01*
X102494574Y-48889383D01*
X102440170Y-48845542D01*
X102418105Y-48779248D01*
X102435384Y-48711549D01*
X102486521Y-48663938D01*
X102494553Y-48660269D01*
X102577625Y-48625861D01*
X102692621Y-48537621D01*
X102780861Y-48422625D01*
X102836330Y-48288709D01*
X102855250Y-48145000D01*
X102836330Y-48001291D01*
X102780861Y-47867375D01*
X102692621Y-47752379D01*
X102577625Y-47664139D01*
X102577624Y-47664138D01*
X102577622Y-47664137D01*
X102443712Y-47608671D01*
X102443710Y-47608670D01*
X102443709Y-47608670D01*
X102352638Y-47596680D01*
X102300001Y-47589750D01*
X102291873Y-47589750D01*
X102291873Y-47586243D01*
X102238613Y-47577772D01*
X102204122Y-47553440D01*
X101136319Y-46485637D01*
X101102834Y-46424314D01*
X101100000Y-46397956D01*
X101100000Y-46250000D01*
X103850000Y-46250000D01*
X103850000Y-48750000D01*
G37*
%TD.AperFunction*%
%TD*%
M02*
