M48
; DRILL file {KiCad 7.0.11-7.0.11~ubuntu22.04.1} date Fri 16 Aug 2024 07:19:43 AM CEST
; FORMAT={-:-/ absolute / inch / decimal}
; #@! TF.CreationDate,2024-08-16T07:19:43+02:00
; #@! TF.GenerationSoftware,Kicad,Pcbnew,7.0.11-7.0.11~ubuntu22.04.1
; #@! TF.FileFunction,Plated,1,2,PTH
FMAT,2
INCH
; #@! TA.AperFunction,Plated,PTH,ViaDrill
T1C0.0118
; #@! TA.AperFunction,Plated,PTH,ComponentDrill
T2C0.0118
; #@! TA.AperFunction,Plated,PTH,ComponentDrill
T3C0.0236
%
G90
G05
T1
X2.6614Y-1.9291
X2.6614Y-2.0472
X2.6614Y-2.1654
X2.6614Y-2.2835
X2.6614Y-2.4016
X2.6614Y-2.5197
X2.6614Y-2.6385
X2.6614Y-2.7609
X2.6856Y-1.7961
X2.7795Y-1.9291
X2.7795Y-2.0472
X2.7795Y-2.1654
X2.7795Y-2.2835
X2.7795Y-2.4016
X2.7795Y-2.5197
X2.7795Y-2.6385
X2.7795Y-2.7609
X2.8976Y-1.9291
X2.8976Y-2.0472
X2.8976Y-2.1654
X2.8976Y-2.2835
X2.8976Y-2.4016
X2.8976Y-2.5197
X2.8976Y-2.6385
X2.8976Y-2.7609
X3.0157Y-1.9291
X3.0157Y-2.0472
X3.0157Y-2.1654
X3.0157Y-2.2835
X3.0157Y-2.4016
X3.0157Y-2.5197
X3.0157Y-2.6385
X3.0157Y-2.7609
X3.0856Y-2.7961
X3.1339Y-1.9291
X3.1339Y-2.0472
X3.1339Y-2.1654
X3.1339Y-2.2835
X3.1339Y-2.4016
X3.1339Y-2.5197
X3.1339Y-2.6385
X3.1339Y-2.7609
X3.1856Y-2.2961
X3.1856Y-2.7961
X3.252Y-1.9291
X3.252Y-2.0472
X3.252Y-2.1654
X3.252Y-2.2835
X3.252Y-2.4016
X3.252Y-2.5197
X3.252Y-2.6385
X3.252Y-2.7609
X3.3701Y-1.9291
X3.3701Y-2.0472
X3.3701Y-2.1654
X3.3701Y-2.2835
X3.3701Y-2.4016
X3.3701Y-2.5197
X3.3701Y-2.6385
X3.3701Y-2.7609
X3.4882Y-1.9291
X3.4882Y-2.0472
X3.4882Y-2.1654
X3.4882Y-2.2835
X3.4882Y-2.4016
X3.4882Y-2.5197
X3.4882Y-2.6385
X3.4882Y-2.7609
X3.6856Y-2.7961
X3.8327Y-1.8455
X3.8327Y-1.8955
X3.8327Y-1.9455
X3.8327Y-1.9955
X3.8327Y-2.0455
X3.8327Y-2.1455
X3.8327Y-2.2382
X3.8327Y-2.2717
X3.8327Y-2.8228
X3.8329Y-2.0965
X3.872Y-2.372
X3.8992Y-2.7858
X3.8996Y-1.9455
X3.9232Y-1.9955
X3.9234Y-2.5855
X3.948Y-2.0455
X3.948Y-2.6355
X3.9717Y-2.0955
X3.9717Y-2.6855
X4.0207Y-2.2461
X4.0276Y-1.8455
X4.0276Y-1.8955
X4.0276Y-2.1455
X4.0276Y-2.5851
X4.0276Y-2.6351
X4.0276Y-2.6851
X4.0278Y-2.4354
X4.0278Y-2.4854
X4.0278Y-2.7354
X4.028Y-2.7854
X4.0285Y-1.9455
X4.0285Y-1.9955
X4.0285Y-2.0455
X4.0285Y-2.0955
X4.1378Y-1.939
X4.1378Y-1.9783
X4.1673Y-2.0079
X4.1762Y-2.7702
X4.1772Y-2.1781
X4.1772Y-2.3716
X4.1772Y-2.5719
X4.2165Y-2.0079
X4.2362Y-1.8701
X4.2856Y-1.9961
X4.3839Y-1.8898
X4.3839Y-1.9291
X4.4124Y-2.6983
X4.4134Y-1.9587
X4.4134Y-2.1097
X4.4134Y-2.3031
X4.4134Y-2.5
X4.4626Y-1.9587
X4.4646Y-2.374
X4.4646Y-2.5709
X4.4646Y-2.7677
X4.4685Y-2.1811
X4.5856Y-2.7961
X4.6856Y-1.7961
X4.6856Y-1.8961
X4.6856Y-2.2961
X4.6856Y-2.3961
X4.6856Y-2.4961
X4.6856Y-2.5961
X4.6856Y-2.6961
X4.7856Y-1.7961
X4.7856Y-1.8961
X4.7856Y-2.2961
X4.7856Y-2.3961
X4.7856Y-2.4961
X4.7856Y-2.5961
X4.7856Y-2.6961
X4.8856Y-2.2961
X4.8856Y-2.3961
X4.8856Y-2.4961
X4.8856Y-2.5961
X4.8856Y-2.6961
X4.9856Y-2.2961
X4.9856Y-2.5961
X4.9856Y-2.6961
X5.0236Y-2.2047
X5.0608Y-2.0103
X5.0736Y-2.2283
X5.0856Y-2.5961
X5.0856Y-2.6961
X5.1236Y-2.252
X5.1437Y-1.9114
X5.1736Y-2.1811
X5.1856Y-2.2961
X5.1856Y-2.3961
X5.1856Y-2.4961
X5.1856Y-2.5961
X5.1856Y-2.6961
X5.248Y-2.01
X5.2736Y-2.1201
X5.2736Y-2.1831
X5.2856Y-1.8961
X5.2856Y-2.2961
X5.2856Y-2.3961
X5.2856Y-2.4961
X5.2856Y-2.5961
X5.2856Y-2.6961
T2
X4.9646Y-2.378
X4.9646Y-2.4331
X4.9921Y-2.3504
X4.9921Y-2.4055
X4.9921Y-2.4606
X5.0197Y-2.378
X5.0197Y-2.4331
X5.0472Y-2.3504
X5.0472Y-2.4055
X5.0472Y-2.4606
X5.0748Y-2.378
X5.0748Y-2.4331
T3
G00X4.9843Y-1.8031
M15
G01X4.9843Y-1.7795
M16
G05
G00X4.9843Y-1.9776
M15
G01X4.9843Y-1.9343
M16
G05
G00X5.3244Y-1.8031
M15
G01X5.3244Y-1.7795
M16
G05
G00X5.3244Y-1.9776
M15
G01X5.3244Y-1.9343
M16
G05
M30
