%TF.GenerationSoftware,KiCad,Pcbnew,7.0.11-7.0.11~ubuntu22.04.1*%
%TF.CreationDate,2024-08-16T07:19:45+02:00*%
%TF.ProjectId,Fri3dGadget,46726933-6447-4616-9467-65742e6b6963,rev?*%
%TF.SameCoordinates,Original*%
%TF.FileFunction,Paste,Top*%
%TF.FilePolarity,Positive*%
%FSLAX46Y46*%
G04 Gerber Fmt 4.6, Leading zero omitted, Abs format (unit mm)*
G04 Created by KiCad (PCBNEW 7.0.11-7.0.11~ubuntu22.04.1) date 2024-08-16 07:19:45*
%MOMM*%
%LPD*%
G01*
G04 APERTURE LIST*
G04 Aperture macros list*
%AMRoundRect*
0 Rectangle with rounded corners*
0 $1 Rounding radius*
0 $2 $3 $4 $5 $6 $7 $8 $9 X,Y pos of 4 corners*
0 Add a 4 corners polygon primitive as box body*
4,1,4,$2,$3,$4,$5,$6,$7,$8,$9,$2,$3,0*
0 Add four circle primitives for the rounded corners*
1,1,$1+$1,$2,$3*
1,1,$1+$1,$4,$5*
1,1,$1+$1,$6,$7*
1,1,$1+$1,$8,$9*
0 Add four rect primitives between the rounded corners*
20,1,$1+$1,$2,$3,$4,$5,0*
20,1,$1+$1,$4,$5,$6,$7,0*
20,1,$1+$1,$6,$7,$8,$9,0*
20,1,$1+$1,$8,$9,$2,$3,0*%
G04 Aperture macros list end*
%ADD10RoundRect,0.250000X0.262500X0.450000X-0.262500X0.450000X-0.262500X-0.450000X0.262500X-0.450000X0*%
%ADD11RoundRect,0.250000X0.450000X-0.262500X0.450000X0.262500X-0.450000X0.262500X-0.450000X-0.262500X0*%
%ADD12RoundRect,0.243750X0.150260X-0.494975X0.494975X-0.150260X-0.150260X0.494975X-0.494975X0.150260X0*%
%ADD13RoundRect,0.250000X0.132583X-0.503814X0.503814X-0.132583X-0.132583X0.503814X-0.503814X0.132583X0*%
%ADD14RoundRect,0.250000X-0.475000X0.250000X-0.475000X-0.250000X0.475000X-0.250000X0.475000X0.250000X0*%
%ADD15RoundRect,0.375000X-0.625000X-0.375000X0.625000X-0.375000X0.625000X0.375000X-0.625000X0.375000X0*%
%ADD16RoundRect,0.500000X-0.500000X-1.400000X0.500000X-1.400000X0.500000X1.400000X-0.500000X1.400000X0*%
%ADD17RoundRect,0.250000X-0.450000X0.262500X-0.450000X-0.262500X0.450000X-0.262500X0.450000X0.262500X0*%
%ADD18R,0.900000X0.900000*%
%ADD19R,0.900000X1.500000*%
%ADD20R,1.500000X0.900000*%
%ADD21RoundRect,0.150000X-0.150000X0.587500X-0.150000X-0.587500X0.150000X-0.587500X0.150000X0.587500X0*%
%ADD22RoundRect,0.250000X0.250000X0.475000X-0.250000X0.475000X-0.250000X-0.475000X0.250000X-0.475000X0*%
%ADD23RoundRect,0.150000X-0.825000X-0.150000X0.825000X-0.150000X0.825000X0.150000X-0.825000X0.150000X0*%
%ADD24RoundRect,0.150000X0.150000X0.500000X-0.150000X0.500000X-0.150000X-0.500000X0.150000X-0.500000X0*%
%ADD25RoundRect,0.075000X0.075000X0.575000X-0.075000X0.575000X-0.075000X-0.575000X0.075000X-0.575000X0*%
%ADD26RoundRect,0.250000X0.475000X-0.250000X0.475000X0.250000X-0.475000X0.250000X-0.475000X-0.250000X0*%
G04 APERTURE END LIST*
D10*
%TO.C,R3*%
X124762500Y-46000000D03*
X122937500Y-46000000D03*
%TD*%
D11*
%TO.C,R11*%
X112100000Y-65325000D03*
X112100000Y-63500000D03*
%TD*%
D12*
%TO.C,D51*%
X79600000Y-67017678D03*
X80925826Y-65691852D03*
%TD*%
D10*
%TO.C,R2*%
X124762500Y-48000000D03*
X122937500Y-48000000D03*
%TD*%
D13*
%TO.C,R8*%
X91600000Y-60982322D03*
X92890470Y-59691852D03*
%TD*%
D12*
%TO.C,D9*%
X67600000Y-52000000D03*
X68925826Y-50674174D03*
%TD*%
%TO.C,D41*%
X73600000Y-61000000D03*
X74925826Y-59674174D03*
%TD*%
D13*
%TO.C,R15*%
X91600000Y-63982322D03*
X92890470Y-62691852D03*
%TD*%
D12*
%TO.C,D36*%
X67600000Y-70125826D03*
X68925826Y-68800000D03*
%TD*%
D13*
%TO.C,R6*%
X91600000Y-54982322D03*
X92890470Y-53691852D03*
%TD*%
D11*
%TO.C,R17*%
X112100000Y-55412500D03*
X112100000Y-53587500D03*
%TD*%
D12*
%TO.C,D25*%
X79600000Y-55000000D03*
X80925826Y-53674174D03*
%TD*%
D14*
%TO.C,C2*%
X102550000Y-57275000D03*
X102550000Y-59175000D03*
%TD*%
D12*
%TO.C,D43*%
X73600000Y-67017678D03*
X74925826Y-65691852D03*
%TD*%
D15*
%TO.C,U4*%
X106450000Y-45200000D03*
X106450000Y-47500000D03*
D16*
X112750000Y-47500000D03*
D15*
X106450000Y-49800000D03*
%TD*%
D12*
%TO.C,D15*%
X85600000Y-52000000D03*
X86925826Y-50674174D03*
%TD*%
D13*
%TO.C,R5*%
X91600000Y-51982322D03*
X92890470Y-50691852D03*
%TD*%
D12*
%TO.C,D63*%
X88600000Y-67017678D03*
X89925826Y-65691852D03*
%TD*%
%TO.C,D10*%
X70600000Y-52000000D03*
X71925826Y-50674174D03*
%TD*%
%TO.C,D61*%
X88600000Y-61000000D03*
X89925826Y-59674174D03*
%TD*%
%TO.C,D8*%
X88600000Y-49000000D03*
X89925826Y-47674174D03*
%TD*%
%TO.C,D38*%
X70600000Y-64000000D03*
X71925826Y-62674174D03*
%TD*%
%TO.C,D58*%
X85600000Y-64000000D03*
X86925826Y-62674174D03*
%TD*%
%TO.C,D28*%
X82600000Y-58000000D03*
X83925826Y-56674174D03*
%TD*%
%TO.C,D7*%
X85560000Y-49000000D03*
X86885826Y-47674174D03*
%TD*%
%TO.C,D34*%
X67600000Y-64000000D03*
X68925826Y-62674174D03*
%TD*%
%TO.C,D27*%
X82600000Y-55000000D03*
X83925826Y-53674174D03*
%TD*%
%TO.C,D62*%
X88600000Y-64000000D03*
X89925826Y-62674174D03*
%TD*%
%TO.C,D40*%
X70600000Y-70125826D03*
X71925826Y-68800000D03*
%TD*%
%TO.C,D50*%
X79600000Y-64000000D03*
X80925826Y-62674174D03*
%TD*%
%TO.C,D48*%
X76600000Y-70125826D03*
X77925826Y-68800000D03*
%TD*%
%TO.C,D13*%
X79600000Y-52000000D03*
X80925826Y-50674174D03*
%TD*%
%TO.C,D33*%
X67600000Y-61000000D03*
X68925826Y-59674174D03*
%TD*%
D10*
%TO.C,R1*%
X124762500Y-50000000D03*
X122937500Y-50000000D03*
%TD*%
D17*
%TO.C,R14*%
X106075000Y-68537500D03*
X106075000Y-70362500D03*
%TD*%
D12*
%TO.C,D32*%
X88600000Y-58000000D03*
X89925826Y-56674174D03*
%TD*%
%TO.C,D19*%
X70600000Y-55000000D03*
X71925826Y-53674174D03*
%TD*%
%TO.C,D45*%
X76600000Y-61000000D03*
X77925826Y-59674174D03*
%TD*%
%TO.C,D17*%
X67600000Y-55000000D03*
X68925826Y-53674174D03*
%TD*%
D14*
%TO.C,C4*%
X115125000Y-53550000D03*
X115125000Y-55450000D03*
%TD*%
D12*
%TO.C,D60*%
X85600000Y-70125826D03*
X86925826Y-68800000D03*
%TD*%
D11*
%TO.C,R13*%
X112075000Y-70362500D03*
X112075000Y-68537500D03*
%TD*%
D12*
%TO.C,D14*%
X82600000Y-52000000D03*
X83925826Y-50674174D03*
%TD*%
%TO.C,D22*%
X73600000Y-58000000D03*
X74925826Y-56674174D03*
%TD*%
D17*
%TO.C,R12*%
X106100000Y-63500000D03*
X106100000Y-65325000D03*
%TD*%
D12*
%TO.C,D5*%
X79600000Y-49000000D03*
X80925826Y-47674174D03*
%TD*%
%TO.C,D37*%
X70600000Y-61000000D03*
X71925826Y-59674174D03*
%TD*%
%TO.C,D44*%
X73600000Y-70125826D03*
X74925826Y-68800000D03*
%TD*%
D18*
%TO.C,U1*%
X128900000Y-59700000D03*
X127500000Y-59700000D03*
X126100000Y-59700000D03*
X128900000Y-61100000D03*
X127500000Y-61100000D03*
X126100000Y-61100000D03*
X128900000Y-62500000D03*
X127500000Y-62500000D03*
X126100000Y-62500000D03*
D19*
X135220000Y-53850000D03*
X133950000Y-53850000D03*
X132680000Y-53850000D03*
X131410000Y-53850000D03*
X130140000Y-53850000D03*
X128870000Y-53850000D03*
X127600000Y-53850000D03*
X126330000Y-53850000D03*
X125060000Y-53850000D03*
X123790000Y-53850000D03*
X122520000Y-53850000D03*
X121250000Y-53850000D03*
X119980000Y-53850000D03*
X118710000Y-53850000D03*
D20*
X117460000Y-55615000D03*
X117460000Y-56885000D03*
X117460000Y-58155000D03*
X117460000Y-59425000D03*
X117460000Y-60695000D03*
X117460000Y-61965000D03*
X117460000Y-63235000D03*
X117460000Y-64505000D03*
X117460000Y-65775000D03*
X117460000Y-67045000D03*
X117460000Y-68315000D03*
X117460000Y-69585000D03*
D19*
X118710000Y-71350000D03*
X119980000Y-71350000D03*
X121250000Y-71350000D03*
X122520000Y-71350000D03*
X123790000Y-71350000D03*
X125060000Y-71350000D03*
X126330000Y-71350000D03*
X127600000Y-71350000D03*
X128870000Y-71350000D03*
X130140000Y-71350000D03*
X131410000Y-71350000D03*
X132680000Y-71350000D03*
X133950000Y-71350000D03*
X135220000Y-71350000D03*
%TD*%
D12*
%TO.C,D11*%
X73600000Y-52000000D03*
X74925826Y-50674174D03*
%TD*%
D21*
%TO.C,Q1*%
X110050000Y-58537500D03*
X108150000Y-58537500D03*
X109100000Y-60412500D03*
%TD*%
%TO.C,Q5*%
X110050000Y-53625000D03*
X108150000Y-53625000D03*
X109100000Y-55500000D03*
%TD*%
D12*
%TO.C,D55*%
X82600000Y-67017678D03*
X83925826Y-65691852D03*
%TD*%
D17*
%TO.C,R10*%
X106100000Y-58412500D03*
X106100000Y-60237500D03*
%TD*%
D22*
%TO.C,C3*%
X102775000Y-45125000D03*
X100875000Y-45125000D03*
%TD*%
D12*
%TO.C,D29*%
X85600000Y-55000000D03*
X86925826Y-53674174D03*
%TD*%
%TO.C,D39*%
X70600000Y-67017678D03*
X71925826Y-65691852D03*
%TD*%
%TO.C,D47*%
X76600000Y-67017678D03*
X77925826Y-65691852D03*
%TD*%
%TO.C,D46*%
X76600000Y-64000000D03*
X77925826Y-62674174D03*
%TD*%
%TO.C,D35*%
X67600000Y-67017678D03*
X68925826Y-65691852D03*
%TD*%
D21*
%TO.C,Q3*%
X110025000Y-68600000D03*
X108125000Y-68600000D03*
X109075000Y-70475000D03*
%TD*%
D12*
%TO.C,D6*%
X82520000Y-49000000D03*
X83845826Y-47674174D03*
%TD*%
D11*
%TO.C,R9*%
X112100000Y-60325000D03*
X112100000Y-58500000D03*
%TD*%
D23*
%TO.C,U3*%
X97350000Y-46875000D03*
X97350000Y-48145000D03*
X97350000Y-49415000D03*
X97350000Y-50685000D03*
X97350000Y-51955000D03*
X97350000Y-53225000D03*
X97350000Y-54495000D03*
X97350000Y-55765000D03*
X102300000Y-55765000D03*
X102300000Y-54495000D03*
X102300000Y-53225000D03*
X102300000Y-51955000D03*
X102300000Y-50685000D03*
X102300000Y-49415000D03*
X102300000Y-48145000D03*
X102300000Y-46875000D03*
%TD*%
D24*
%TO.C,J1*%
X134120000Y-50320000D03*
X133320000Y-50320000D03*
D25*
X132170000Y-50320000D03*
X131170000Y-50320000D03*
X130670000Y-50320000D03*
X129670000Y-50320000D03*
D24*
X128520000Y-50320000D03*
X127720000Y-50320000D03*
X127720000Y-50320000D03*
X128520000Y-50320000D03*
D25*
X129170000Y-50320000D03*
X130170000Y-50320000D03*
X131670000Y-50320000D03*
X132670000Y-50320000D03*
D24*
X133320000Y-50320000D03*
X134120000Y-50320000D03*
%TD*%
D12*
%TO.C,D26*%
X79600000Y-58000000D03*
X80925826Y-56674174D03*
%TD*%
%TO.C,D1*%
X67520000Y-49000000D03*
X68845826Y-47674174D03*
%TD*%
%TO.C,D23*%
X76600000Y-55000000D03*
X77925826Y-53674174D03*
%TD*%
%TO.C,D24*%
X76600000Y-58000000D03*
X77925826Y-56674174D03*
%TD*%
%TO.C,D64*%
X88600000Y-70125826D03*
X89925826Y-68800000D03*
%TD*%
%TO.C,D16*%
X88600000Y-52000000D03*
X89925826Y-50674174D03*
%TD*%
D13*
%TO.C,R7*%
X91600000Y-57982322D03*
X92890470Y-56691852D03*
%TD*%
D21*
%TO.C,Q2*%
X110000000Y-63500000D03*
X108100000Y-63500000D03*
X109050000Y-65375000D03*
%TD*%
D12*
%TO.C,D59*%
X85600000Y-67017678D03*
X86925826Y-65691852D03*
%TD*%
%TO.C,D54*%
X82600000Y-64000000D03*
X83925826Y-62674174D03*
%TD*%
%TO.C,D12*%
X76600000Y-52000000D03*
X77925826Y-50674174D03*
%TD*%
D26*
%TO.C,C1*%
X115050000Y-46550000D03*
X115050000Y-44650000D03*
%TD*%
D12*
%TO.C,D20*%
X70600000Y-58000000D03*
X71925826Y-56674174D03*
%TD*%
%TO.C,D42*%
X73600000Y-64000000D03*
X74925826Y-62674174D03*
%TD*%
D13*
%TO.C,R19*%
X91600000Y-70108148D03*
X92890470Y-68817678D03*
%TD*%
D23*
%TO.C,U2*%
X97355000Y-61860000D03*
X97355000Y-63130000D03*
X97355000Y-64400000D03*
X97355000Y-65670000D03*
X97355000Y-66940000D03*
X97355000Y-68210000D03*
X97355000Y-69480000D03*
X97355000Y-70750000D03*
X102305000Y-70750000D03*
X102305000Y-69480000D03*
X102305000Y-68210000D03*
X102305000Y-66940000D03*
X102305000Y-65670000D03*
X102305000Y-64400000D03*
X102305000Y-63130000D03*
X102305000Y-61860000D03*
%TD*%
D12*
%TO.C,D3*%
X73520000Y-49000000D03*
X74845826Y-47674174D03*
%TD*%
%TO.C,D31*%
X88600000Y-55000000D03*
X89925826Y-53674174D03*
%TD*%
%TO.C,D53*%
X82600000Y-61000000D03*
X83925826Y-59674174D03*
%TD*%
%TO.C,D2*%
X70480000Y-49000000D03*
X71805826Y-47674174D03*
%TD*%
%TO.C,D30*%
X85600000Y-58000000D03*
X86925826Y-56674174D03*
%TD*%
%TO.C,D56*%
X82600000Y-70125826D03*
X83925826Y-68800000D03*
%TD*%
%TO.C,D18*%
X67600000Y-58000000D03*
X68925826Y-56674174D03*
%TD*%
D13*
%TO.C,R16*%
X91600000Y-67000000D03*
X92890470Y-65709530D03*
%TD*%
D12*
%TO.C,D57*%
X85600000Y-61000000D03*
X86925826Y-59674174D03*
%TD*%
%TO.C,D52*%
X79600000Y-70125826D03*
X80925826Y-68800000D03*
%TD*%
%TO.C,D4*%
X76560000Y-49000000D03*
X77885826Y-47674174D03*
%TD*%
%TO.C,D49*%
X79600000Y-61000000D03*
X80925826Y-59674174D03*
%TD*%
D13*
%TO.C,R4*%
X91600000Y-48982322D03*
X92890470Y-47691852D03*
%TD*%
D12*
%TO.C,D21*%
X73600000Y-55000000D03*
X74925826Y-53674174D03*
%TD*%
D17*
%TO.C,R18*%
X106100000Y-53500000D03*
X106100000Y-55325000D03*
%TD*%
M02*
