%TF.GenerationSoftware,KiCad,Pcbnew,7.0.11-7.0.11~ubuntu22.04.1*%
%TF.CreationDate,2024-08-16T07:19:45+02:00*%
%TF.ProjectId,Fri3dGadget,46726933-6447-4616-9467-65742e6b6963,rev?*%
%TF.SameCoordinates,Original*%
%TF.FileFunction,Soldermask,Top*%
%TF.FilePolarity,Negative*%
%FSLAX46Y46*%
G04 Gerber Fmt 4.6, Leading zero omitted, Abs format (unit mm)*
G04 Created by KiCad (PCBNEW 7.0.11-7.0.11~ubuntu22.04.1) date 2024-08-16 07:19:45*
%MOMM*%
%LPD*%
G01*
G04 APERTURE LIST*
G04 Aperture macros list*
%AMRoundRect*
0 Rectangle with rounded corners*
0 $1 Rounding radius*
0 $2 $3 $4 $5 $6 $7 $8 $9 X,Y pos of 4 corners*
0 Add a 4 corners polygon primitive as box body*
4,1,4,$2,$3,$4,$5,$6,$7,$8,$9,$2,$3,0*
0 Add four circle primitives for the rounded corners*
1,1,$1+$1,$2,$3*
1,1,$1+$1,$4,$5*
1,1,$1+$1,$6,$7*
1,1,$1+$1,$8,$9*
0 Add four rect primitives between the rounded corners*
20,1,$1+$1,$2,$3,$4,$5,0*
20,1,$1+$1,$4,$5,$6,$7,0*
20,1,$1+$1,$6,$7,$8,$9,0*
20,1,$1+$1,$8,$9,$2,$3,0*%
G04 Aperture macros list end*
%ADD10C,0.500000*%
%ADD11C,0.150000*%
%ADD12RoundRect,0.250000X0.262500X0.450000X-0.262500X0.450000X-0.262500X-0.450000X0.262500X-0.450000X0*%
%ADD13RoundRect,0.250000X0.450000X-0.262500X0.450000X0.262500X-0.450000X0.262500X-0.450000X-0.262500X0*%
%ADD14RoundRect,0.243750X0.150260X-0.494975X0.494975X-0.150260X-0.150260X0.494975X-0.494975X0.150260X0*%
%ADD15RoundRect,0.250000X0.132583X-0.503814X0.503814X-0.132583X-0.132583X0.503814X-0.503814X0.132583X0*%
%ADD16RoundRect,0.250000X-0.475000X0.250000X-0.475000X-0.250000X0.475000X-0.250000X0.475000X0.250000X0*%
%ADD17RoundRect,0.375000X-0.625000X-0.375000X0.625000X-0.375000X0.625000X0.375000X-0.625000X0.375000X0*%
%ADD18RoundRect,0.500000X-0.500000X-1.400000X0.500000X-1.400000X0.500000X1.400000X-0.500000X1.400000X0*%
%ADD19RoundRect,0.250000X-0.450000X0.262500X-0.450000X-0.262500X0.450000X-0.262500X0.450000X0.262500X0*%
%ADD20R,0.900000X1.500000*%
%ADD21R,1.500000X0.900000*%
%ADD22C,0.600000*%
%ADD23R,3.900000X3.900000*%
%ADD24RoundRect,0.150000X-0.150000X0.587500X-0.150000X-0.587500X0.150000X-0.587500X0.150000X0.587500X0*%
%ADD25RoundRect,0.250000X0.250000X0.475000X-0.250000X0.475000X-0.250000X-0.475000X0.250000X-0.475000X0*%
%ADD26RoundRect,0.150000X-0.825000X-0.150000X0.825000X-0.150000X0.825000X0.150000X-0.825000X0.150000X0*%
%ADD27RoundRect,0.150000X0.150000X0.500000X-0.150000X0.500000X-0.150000X-0.500000X0.150000X-0.500000X0*%
%ADD28RoundRect,0.075000X0.075000X0.575000X-0.075000X0.575000X-0.075000X-0.575000X0.075000X-0.575000X0*%
%ADD29O,1.000000X2.100000*%
%ADD30O,1.000000X1.600000*%
%ADD31RoundRect,0.250000X0.475000X-0.250000X0.475000X0.250000X-0.475000X0.250000X-0.475000X-0.250000X0*%
G04 APERTURE END LIST*
D10*
X103600000Y-43900000D02*
X66600000Y-43900000D01*
X115350000Y-73200000D02*
X66600000Y-73200000D01*
D11*
X115900414Y-72372744D02*
X115150414Y-72372744D01*
X115900414Y-71944173D02*
X115471842Y-72265601D01*
X115150414Y-71944173D02*
X115578985Y-72372744D01*
X115900414Y-71622744D02*
X115400414Y-71622744D01*
X115150414Y-71622744D02*
X115186128Y-71658458D01*
X115186128Y-71658458D02*
X115221842Y-71622744D01*
X115221842Y-71622744D02*
X115186128Y-71587030D01*
X115186128Y-71587030D02*
X115150414Y-71622744D01*
X115150414Y-71622744D02*
X115221842Y-71622744D01*
X115828985Y-70837030D02*
X115864700Y-70872744D01*
X115864700Y-70872744D02*
X115900414Y-70979887D01*
X115900414Y-70979887D02*
X115900414Y-71051315D01*
X115900414Y-71051315D02*
X115864700Y-71158458D01*
X115864700Y-71158458D02*
X115793271Y-71229887D01*
X115793271Y-71229887D02*
X115721842Y-71265601D01*
X115721842Y-71265601D02*
X115578985Y-71301315D01*
X115578985Y-71301315D02*
X115471842Y-71301315D01*
X115471842Y-71301315D02*
X115328985Y-71265601D01*
X115328985Y-71265601D02*
X115257557Y-71229887D01*
X115257557Y-71229887D02*
X115186128Y-71158458D01*
X115186128Y-71158458D02*
X115150414Y-71051315D01*
X115150414Y-71051315D02*
X115150414Y-70979887D01*
X115150414Y-70979887D02*
X115186128Y-70872744D01*
X115186128Y-70872744D02*
X115221842Y-70837030D01*
X115900414Y-70194173D02*
X115507557Y-70194173D01*
X115507557Y-70194173D02*
X115436128Y-70229887D01*
X115436128Y-70229887D02*
X115400414Y-70301315D01*
X115400414Y-70301315D02*
X115400414Y-70444173D01*
X115400414Y-70444173D02*
X115436128Y-70515601D01*
X115864700Y-70194173D02*
X115900414Y-70265601D01*
X115900414Y-70265601D02*
X115900414Y-70444173D01*
X115900414Y-70444173D02*
X115864700Y-70515601D01*
X115864700Y-70515601D02*
X115793271Y-70551315D01*
X115793271Y-70551315D02*
X115721842Y-70551315D01*
X115721842Y-70551315D02*
X115650414Y-70515601D01*
X115650414Y-70515601D02*
X115614700Y-70444173D01*
X115614700Y-70444173D02*
X115614700Y-70265601D01*
X115614700Y-70265601D02*
X115578985Y-70194173D01*
X115900414Y-69515602D02*
X115150414Y-69515602D01*
X115864700Y-69515602D02*
X115900414Y-69587030D01*
X115900414Y-69587030D02*
X115900414Y-69729887D01*
X115900414Y-69729887D02*
X115864700Y-69801316D01*
X115864700Y-69801316D02*
X115828985Y-69837030D01*
X115828985Y-69837030D02*
X115757557Y-69872744D01*
X115757557Y-69872744D02*
X115543271Y-69872744D01*
X115543271Y-69872744D02*
X115471842Y-69837030D01*
X115471842Y-69837030D02*
X115436128Y-69801316D01*
X115436128Y-69801316D02*
X115400414Y-69729887D01*
X115400414Y-69729887D02*
X115400414Y-69587030D01*
X115400414Y-69587030D02*
X115436128Y-69515602D01*
X115150414Y-68658459D02*
X115900414Y-68479887D01*
X115900414Y-68479887D02*
X115364700Y-68337030D01*
X115364700Y-68337030D02*
X115900414Y-68194173D01*
X115900414Y-68194173D02*
X115150414Y-68015602D01*
X115900414Y-67622744D02*
X115864700Y-67694173D01*
X115864700Y-67694173D02*
X115828985Y-67729887D01*
X115828985Y-67729887D02*
X115757557Y-67765601D01*
X115757557Y-67765601D02*
X115543271Y-67765601D01*
X115543271Y-67765601D02*
X115471842Y-67729887D01*
X115471842Y-67729887D02*
X115436128Y-67694173D01*
X115436128Y-67694173D02*
X115400414Y-67622744D01*
X115400414Y-67622744D02*
X115400414Y-67515601D01*
X115400414Y-67515601D02*
X115436128Y-67444173D01*
X115436128Y-67444173D02*
X115471842Y-67408459D01*
X115471842Y-67408459D02*
X115543271Y-67372744D01*
X115543271Y-67372744D02*
X115757557Y-67372744D01*
X115757557Y-67372744D02*
X115828985Y-67408459D01*
X115828985Y-67408459D02*
X115864700Y-67444173D01*
X115864700Y-67444173D02*
X115900414Y-67515601D01*
X115900414Y-67515601D02*
X115900414Y-67622744D01*
X115900414Y-67051316D02*
X115400414Y-67051316D01*
X115543271Y-67051316D02*
X115471842Y-67015602D01*
X115471842Y-67015602D02*
X115436128Y-66979888D01*
X115436128Y-66979888D02*
X115400414Y-66908459D01*
X115400414Y-66908459D02*
X115400414Y-66837030D01*
X115900414Y-66587030D02*
X115150414Y-66587030D01*
X115614700Y-66515602D02*
X115900414Y-66301316D01*
X115400414Y-66301316D02*
X115686128Y-66587030D01*
X115864700Y-66015601D02*
X115900414Y-65944173D01*
X115900414Y-65944173D02*
X115900414Y-65801316D01*
X115900414Y-65801316D02*
X115864700Y-65729887D01*
X115864700Y-65729887D02*
X115793271Y-65694173D01*
X115793271Y-65694173D02*
X115757557Y-65694173D01*
X115757557Y-65694173D02*
X115686128Y-65729887D01*
X115686128Y-65729887D02*
X115650414Y-65801316D01*
X115650414Y-65801316D02*
X115650414Y-65908459D01*
X115650414Y-65908459D02*
X115614700Y-65979887D01*
X115614700Y-65979887D02*
X115543271Y-66015601D01*
X115543271Y-66015601D02*
X115507557Y-66015601D01*
X115507557Y-66015601D02*
X115436128Y-65979887D01*
X115436128Y-65979887D02*
X115400414Y-65908459D01*
X115400414Y-65908459D02*
X115400414Y-65801316D01*
X115400414Y-65801316D02*
X115436128Y-65729887D01*
X115900414Y-65372744D02*
X115150414Y-65372744D01*
X115900414Y-65051316D02*
X115507557Y-65051316D01*
X115507557Y-65051316D02*
X115436128Y-65087030D01*
X115436128Y-65087030D02*
X115400414Y-65158458D01*
X115400414Y-65158458D02*
X115400414Y-65265601D01*
X115400414Y-65265601D02*
X115436128Y-65337030D01*
X115436128Y-65337030D02*
X115471842Y-65372744D01*
X115900414Y-64587030D02*
X115864700Y-64658459D01*
X115864700Y-64658459D02*
X115828985Y-64694173D01*
X115828985Y-64694173D02*
X115757557Y-64729887D01*
X115757557Y-64729887D02*
X115543271Y-64729887D01*
X115543271Y-64729887D02*
X115471842Y-64694173D01*
X115471842Y-64694173D02*
X115436128Y-64658459D01*
X115436128Y-64658459D02*
X115400414Y-64587030D01*
X115400414Y-64587030D02*
X115400414Y-64479887D01*
X115400414Y-64479887D02*
X115436128Y-64408459D01*
X115436128Y-64408459D02*
X115471842Y-64372745D01*
X115471842Y-64372745D02*
X115543271Y-64337030D01*
X115543271Y-64337030D02*
X115757557Y-64337030D01*
X115757557Y-64337030D02*
X115828985Y-64372745D01*
X115828985Y-64372745D02*
X115864700Y-64408459D01*
X115864700Y-64408459D02*
X115900414Y-64479887D01*
X115900414Y-64479887D02*
X115900414Y-64587030D01*
X115400414Y-64015602D02*
X116150414Y-64015602D01*
X115436128Y-64015602D02*
X115400414Y-63944174D01*
X115400414Y-63944174D02*
X115400414Y-63801316D01*
X115400414Y-63801316D02*
X115436128Y-63729888D01*
X115436128Y-63729888D02*
X115471842Y-63694174D01*
X115471842Y-63694174D02*
X115543271Y-63658459D01*
X115543271Y-63658459D02*
X115757557Y-63658459D01*
X115757557Y-63658459D02*
X115828985Y-63694174D01*
X115828985Y-63694174D02*
X115864700Y-63729888D01*
X115864700Y-63729888D02*
X115900414Y-63801316D01*
X115900414Y-63801316D02*
X115900414Y-63944174D01*
X115900414Y-63944174D02*
X115864700Y-64015602D01*
X115900414Y-62765602D02*
X115150414Y-62765602D01*
X115150414Y-62765602D02*
X115150414Y-62479888D01*
X115150414Y-62479888D02*
X115186128Y-62408459D01*
X115186128Y-62408459D02*
X115221842Y-62372745D01*
X115221842Y-62372745D02*
X115293271Y-62337031D01*
X115293271Y-62337031D02*
X115400414Y-62337031D01*
X115400414Y-62337031D02*
X115471842Y-62372745D01*
X115471842Y-62372745D02*
X115507557Y-62408459D01*
X115507557Y-62408459D02*
X115543271Y-62479888D01*
X115543271Y-62479888D02*
X115543271Y-62765602D01*
X115900414Y-62015602D02*
X115400414Y-62015602D01*
X115150414Y-62015602D02*
X115186128Y-62051316D01*
X115186128Y-62051316D02*
X115221842Y-62015602D01*
X115221842Y-62015602D02*
X115186128Y-61979888D01*
X115186128Y-61979888D02*
X115150414Y-62015602D01*
X115150414Y-62015602D02*
X115221842Y-62015602D01*
X115900414Y-61729888D02*
X115400414Y-61337031D01*
X115400414Y-61729888D02*
X115900414Y-61337031D01*
X115864700Y-60765602D02*
X115900414Y-60837030D01*
X115900414Y-60837030D02*
X115900414Y-60979888D01*
X115900414Y-60979888D02*
X115864700Y-61051316D01*
X115864700Y-61051316D02*
X115793271Y-61087030D01*
X115793271Y-61087030D02*
X115507557Y-61087030D01*
X115507557Y-61087030D02*
X115436128Y-61051316D01*
X115436128Y-61051316D02*
X115400414Y-60979888D01*
X115400414Y-60979888D02*
X115400414Y-60837030D01*
X115400414Y-60837030D02*
X115436128Y-60765602D01*
X115436128Y-60765602D02*
X115507557Y-60729888D01*
X115507557Y-60729888D02*
X115578985Y-60729888D01*
X115578985Y-60729888D02*
X115650414Y-61087030D01*
X115900414Y-60301316D02*
X115864700Y-60372745D01*
X115864700Y-60372745D02*
X115793271Y-60408459D01*
X115793271Y-60408459D02*
X115150414Y-60408459D01*
X115186128Y-59622745D02*
X115150414Y-59694174D01*
X115150414Y-59694174D02*
X115150414Y-59801316D01*
X115150414Y-59801316D02*
X115186128Y-59908459D01*
X115186128Y-59908459D02*
X115257557Y-59979888D01*
X115257557Y-59979888D02*
X115328985Y-60015602D01*
X115328985Y-60015602D02*
X115471842Y-60051316D01*
X115471842Y-60051316D02*
X115578985Y-60051316D01*
X115578985Y-60051316D02*
X115721842Y-60015602D01*
X115721842Y-60015602D02*
X115793271Y-59979888D01*
X115793271Y-59979888D02*
X115864700Y-59908459D01*
X115864700Y-59908459D02*
X115900414Y-59801316D01*
X115900414Y-59801316D02*
X115900414Y-59729888D01*
X115900414Y-59729888D02*
X115864700Y-59622745D01*
X115864700Y-59622745D02*
X115828985Y-59587031D01*
X115828985Y-59587031D02*
X115578985Y-59587031D01*
X115578985Y-59587031D02*
X115578985Y-59729888D01*
X115900414Y-58944174D02*
X115507557Y-58944174D01*
X115507557Y-58944174D02*
X115436128Y-58979888D01*
X115436128Y-58979888D02*
X115400414Y-59051316D01*
X115400414Y-59051316D02*
X115400414Y-59194174D01*
X115400414Y-59194174D02*
X115436128Y-59265602D01*
X115864700Y-58944174D02*
X115900414Y-59015602D01*
X115900414Y-59015602D02*
X115900414Y-59194174D01*
X115900414Y-59194174D02*
X115864700Y-59265602D01*
X115864700Y-59265602D02*
X115793271Y-59301316D01*
X115793271Y-59301316D02*
X115721842Y-59301316D01*
X115721842Y-59301316D02*
X115650414Y-59265602D01*
X115650414Y-59265602D02*
X115614700Y-59194174D01*
X115614700Y-59194174D02*
X115614700Y-59015602D01*
X115614700Y-59015602D02*
X115578985Y-58944174D01*
X115900414Y-58265603D02*
X115150414Y-58265603D01*
X115864700Y-58265603D02*
X115900414Y-58337031D01*
X115900414Y-58337031D02*
X115900414Y-58479888D01*
X115900414Y-58479888D02*
X115864700Y-58551317D01*
X115864700Y-58551317D02*
X115828985Y-58587031D01*
X115828985Y-58587031D02*
X115757557Y-58622745D01*
X115757557Y-58622745D02*
X115543271Y-58622745D01*
X115543271Y-58622745D02*
X115471842Y-58587031D01*
X115471842Y-58587031D02*
X115436128Y-58551317D01*
X115436128Y-58551317D02*
X115400414Y-58479888D01*
X115400414Y-58479888D02*
X115400414Y-58337031D01*
X115400414Y-58337031D02*
X115436128Y-58265603D01*
X115400414Y-57587032D02*
X116007557Y-57587032D01*
X116007557Y-57587032D02*
X116078985Y-57622746D01*
X116078985Y-57622746D02*
X116114700Y-57658460D01*
X116114700Y-57658460D02*
X116150414Y-57729889D01*
X116150414Y-57729889D02*
X116150414Y-57837032D01*
X116150414Y-57837032D02*
X116114700Y-57908460D01*
X115864700Y-57587032D02*
X115900414Y-57658460D01*
X115900414Y-57658460D02*
X115900414Y-57801317D01*
X115900414Y-57801317D02*
X115864700Y-57872746D01*
X115864700Y-57872746D02*
X115828985Y-57908460D01*
X115828985Y-57908460D02*
X115757557Y-57944174D01*
X115757557Y-57944174D02*
X115543271Y-57944174D01*
X115543271Y-57944174D02*
X115471842Y-57908460D01*
X115471842Y-57908460D02*
X115436128Y-57872746D01*
X115436128Y-57872746D02*
X115400414Y-57801317D01*
X115400414Y-57801317D02*
X115400414Y-57658460D01*
X115400414Y-57658460D02*
X115436128Y-57587032D01*
X115864700Y-56944175D02*
X115900414Y-57015603D01*
X115900414Y-57015603D02*
X115900414Y-57158461D01*
X115900414Y-57158461D02*
X115864700Y-57229889D01*
X115864700Y-57229889D02*
X115793271Y-57265603D01*
X115793271Y-57265603D02*
X115507557Y-57265603D01*
X115507557Y-57265603D02*
X115436128Y-57229889D01*
X115436128Y-57229889D02*
X115400414Y-57158461D01*
X115400414Y-57158461D02*
X115400414Y-57015603D01*
X115400414Y-57015603D02*
X115436128Y-56944175D01*
X115436128Y-56944175D02*
X115507557Y-56908461D01*
X115507557Y-56908461D02*
X115578985Y-56908461D01*
X115578985Y-56908461D02*
X115650414Y-57265603D01*
X115400414Y-56694175D02*
X115400414Y-56408461D01*
X115150414Y-56587032D02*
X115793271Y-56587032D01*
X115793271Y-56587032D02*
X115864700Y-56551318D01*
X115864700Y-56551318D02*
X115900414Y-56479889D01*
X115900414Y-56479889D02*
X115900414Y-56408461D01*
%TO.C,G\u002A\u002A\u002A*%
G36*
X118769953Y-49246818D02*
G01*
X118769953Y-49875334D01*
X118700118Y-49875334D01*
X118630283Y-49875334D01*
X118630283Y-49246818D01*
X118630283Y-48618303D01*
X118700118Y-48618303D01*
X118769953Y-48618303D01*
X118769953Y-49246818D01*
G37*
G36*
X117054007Y-48668185D02*
G01*
X117054007Y-48718068D01*
X116684879Y-48718068D01*
X116315750Y-48718068D01*
X116315750Y-48966984D01*
X116315750Y-49215901D01*
X116639985Y-49221383D01*
X116964219Y-49226866D01*
X116970532Y-49281736D01*
X116976846Y-49336606D01*
X116646298Y-49336606D01*
X116315750Y-49336606D01*
X116315750Y-49605970D01*
X116315750Y-49875334D01*
X116245915Y-49875334D01*
X116176080Y-49875334D01*
X116176080Y-49246818D01*
X116176080Y-48618303D01*
X116615043Y-48618303D01*
X117054007Y-48618303D01*
X117054007Y-48668185D01*
G37*
G36*
X120934171Y-50196483D02*
G01*
X121053500Y-50203170D01*
X121146189Y-50216107D01*
X121218801Y-50236760D01*
X121277900Y-50266595D01*
X121330049Y-50307078D01*
X121343952Y-50320183D01*
X121391719Y-50375338D01*
X121429693Y-50433838D01*
X121436609Y-50448338D01*
X121458083Y-50536272D01*
X121461138Y-50640910D01*
X121446319Y-50743842D01*
X121426086Y-50803968D01*
X121372717Y-50891751D01*
X121299690Y-50958664D01*
X121203017Y-51006372D01*
X121078715Y-51036540D01*
X120922798Y-51050837D01*
X120831453Y-51052553D01*
X120605617Y-51052553D01*
X120605617Y-51252082D01*
X120605617Y-51451610D01*
X120535782Y-51451610D01*
X120465947Y-51451610D01*
X120465947Y-50823095D01*
X120465947Y-50288956D01*
X120605617Y-50288956D01*
X120605617Y-50610896D01*
X120605617Y-50932836D01*
X120840824Y-50932836D01*
X120946631Y-50931892D01*
X121022328Y-50928157D01*
X121077685Y-50920272D01*
X121122472Y-50906880D01*
X121163890Y-50887942D01*
X121250466Y-50832215D01*
X121302820Y-50766992D01*
X121326631Y-50683359D01*
X121329621Y-50627882D01*
X121316408Y-50518050D01*
X121274544Y-50433027D01*
X121200691Y-50366774D01*
X121177648Y-50352890D01*
X121136395Y-50332904D01*
X121090144Y-50318905D01*
X121029805Y-50309374D01*
X120946284Y-50302792D01*
X120851617Y-50298433D01*
X120605617Y-50288956D01*
X120465947Y-50288956D01*
X120465947Y-50194580D01*
X120781638Y-50194580D01*
X120934171Y-50196483D01*
G37*
G36*
X120570699Y-48621921D02*
G01*
X120703028Y-48624802D01*
X120802569Y-48628348D01*
X120876438Y-48633364D01*
X120931754Y-48640653D01*
X120975634Y-48651020D01*
X121015194Y-48665268D01*
X121036575Y-48674547D01*
X121167182Y-48754175D01*
X121270693Y-48860940D01*
X121344102Y-48990164D01*
X121384403Y-49137169D01*
X121391402Y-49226629D01*
X121380530Y-49379106D01*
X121342084Y-49508298D01*
X121272879Y-49622508D01*
X121214174Y-49688390D01*
X121145547Y-49750023D01*
X121074361Y-49797020D01*
X120994014Y-49831168D01*
X120897904Y-49854253D01*
X120779430Y-49868065D01*
X120631990Y-49874389D01*
X120523704Y-49875334D01*
X120206560Y-49875334D01*
X120206560Y-49759290D01*
X120325596Y-49759290D01*
X120620241Y-49752073D01*
X120739691Y-49748456D01*
X120827085Y-49743672D01*
X120890271Y-49736675D01*
X120937097Y-49726421D01*
X120975414Y-49711862D01*
X120994698Y-49702181D01*
X121106277Y-49621306D01*
X121190096Y-49516660D01*
X121243874Y-49395184D01*
X121265329Y-49263820D01*
X121252178Y-49129512D01*
X121216508Y-49027337D01*
X121150319Y-48918549D01*
X121063795Y-48836522D01*
X120954792Y-48775334D01*
X120907009Y-48756260D01*
X120858190Y-48743342D01*
X120798909Y-48735374D01*
X120719737Y-48731149D01*
X120611247Y-48729460D01*
X120595640Y-48729370D01*
X120336253Y-48728044D01*
X120330924Y-49243667D01*
X120325596Y-49759290D01*
X120206560Y-49759290D01*
X120206560Y-49245234D01*
X120206560Y-48615134D01*
X120570699Y-48621921D01*
G37*
G36*
X116886024Y-50197954D02*
G01*
X117018362Y-50235060D01*
X117124772Y-50298043D01*
X117148504Y-50318722D01*
X117178065Y-50350450D01*
X117179530Y-50373121D01*
X117160625Y-50397558D01*
X117129346Y-50425767D01*
X117099631Y-50429871D01*
X117059345Y-50408784D01*
X117027734Y-50385632D01*
X116928569Y-50332662D01*
X116809127Y-50303723D01*
X116681552Y-50299586D01*
X116557991Y-50321017D01*
X116481547Y-50351053D01*
X116369922Y-50428431D01*
X116285373Y-50528684D01*
X116228786Y-50645099D01*
X116201046Y-50770963D01*
X116203040Y-50899563D01*
X116235652Y-51024185D01*
X116299770Y-51138117D01*
X116367994Y-51211573D01*
X116455646Y-51277197D01*
X116545297Y-51317180D01*
X116650349Y-51336196D01*
X116734761Y-51339532D01*
X116858087Y-51331194D01*
X116956183Y-51302991D01*
X117040322Y-51251175D01*
X117065388Y-51229683D01*
X117095270Y-51205734D01*
X117117198Y-51207105D01*
X117147819Y-51235776D01*
X117151753Y-51239958D01*
X117196808Y-51287916D01*
X117107103Y-51349634D01*
X116967093Y-51422305D01*
X116812450Y-51459876D01*
X116649694Y-51461083D01*
X116583260Y-51451000D01*
X116435812Y-51402977D01*
X116308002Y-51324308D01*
X116203382Y-51220254D01*
X116125502Y-51096077D01*
X116077912Y-50957039D01*
X116064163Y-50808402D01*
X116076787Y-50700429D01*
X116111429Y-50575458D01*
X116162140Y-50474474D01*
X116237025Y-50382359D01*
X116259234Y-50360145D01*
X116358429Y-50277946D01*
X116461612Y-50224178D01*
X116579558Y-50194806D01*
X116723044Y-50185794D01*
X116724784Y-50185793D01*
X116886024Y-50197954D01*
G37*
G36*
X120066890Y-50821831D02*
G01*
X120066890Y-51451610D01*
X119997403Y-51451610D01*
X119927917Y-51451610D01*
X119922580Y-50959136D01*
X119917243Y-50466662D01*
X119677809Y-50879704D01*
X119598052Y-51016053D01*
X119535066Y-51120625D01*
X119486609Y-51196730D01*
X119450442Y-51247675D01*
X119424323Y-51276772D01*
X119406012Y-51287327D01*
X119401743Y-51287379D01*
X119377360Y-51267413D01*
X119335270Y-51212382D01*
X119275826Y-51122805D01*
X119199378Y-50999204D01*
X119136060Y-50892930D01*
X119069210Y-50779916D01*
X119008387Y-50678119D01*
X118956733Y-50592712D01*
X118917388Y-50528868D01*
X118893491Y-50491760D01*
X118888363Y-50484894D01*
X118882383Y-50497845D01*
X118877439Y-50548139D01*
X118873629Y-50633225D01*
X118871055Y-50750549D01*
X118869817Y-50897561D01*
X118869717Y-50958775D01*
X118869717Y-51451610D01*
X118809859Y-51451610D01*
X118750000Y-51451610D01*
X118750000Y-50823095D01*
X118750000Y-50194580D01*
X118805117Y-50194580D01*
X118823032Y-50196822D01*
X118841369Y-50206105D01*
X118862830Y-50226261D01*
X118890119Y-50261125D01*
X118925937Y-50314529D01*
X118972988Y-50390308D01*
X119033974Y-50492294D01*
X119111598Y-50624321D01*
X119128672Y-50653496D01*
X119200301Y-50775280D01*
X119265520Y-50884884D01*
X119321604Y-50977830D01*
X119365827Y-51049642D01*
X119395464Y-51095844D01*
X119407766Y-51111962D01*
X119420162Y-51095265D01*
X119449620Y-51048452D01*
X119493422Y-50976064D01*
X119548849Y-50882641D01*
X119613180Y-50772725D01*
X119679567Y-50658034D01*
X119758825Y-50520787D01*
X119821163Y-50414280D01*
X119869372Y-50334559D01*
X119906244Y-50277664D01*
X119934567Y-50239640D01*
X119957134Y-50216530D01*
X119976735Y-50204377D01*
X119996160Y-50199223D01*
X120003801Y-50198304D01*
X120066890Y-50192051D01*
X120066890Y-50821831D01*
G37*
G36*
X119596184Y-48618526D02*
G01*
X119699171Y-48619485D01*
X119772322Y-48621619D01*
X119820671Y-48625363D01*
X119849252Y-48631156D01*
X119863100Y-48639433D01*
X119867249Y-48650633D01*
X119867361Y-48653816D01*
X119855466Y-48681502D01*
X119822767Y-48733523D01*
X119773738Y-48803338D01*
X119712857Y-48884403D01*
X119686655Y-48917923D01*
X119505949Y-49146517D01*
X119610574Y-49173025D01*
X119683234Y-49196579D01*
X119749348Y-49226396D01*
X119773652Y-49241154D01*
X119831429Y-49301801D01*
X119877262Y-49385802D01*
X119903262Y-49476814D01*
X119906390Y-49516182D01*
X119894278Y-49594046D01*
X119863069Y-49678392D01*
X119820455Y-49751079D01*
X119794625Y-49779797D01*
X119715085Y-49829261D01*
X119609714Y-49865098D01*
X119490984Y-49884891D01*
X119371364Y-49886221D01*
X119298704Y-49875967D01*
X119173293Y-49840366D01*
X119073596Y-49791686D01*
X119046706Y-49773727D01*
X119009591Y-49742611D01*
X119001695Y-49716163D01*
X119012108Y-49689424D01*
X119031025Y-49654117D01*
X119039142Y-49640440D01*
X119057538Y-49646118D01*
X119101220Y-49666298D01*
X119155234Y-49693759D01*
X119282712Y-49745219D01*
X119410090Y-49768175D01*
X119529998Y-49762866D01*
X119635065Y-49729533D01*
X119710891Y-49675722D01*
X119747729Y-49630566D01*
X119764270Y-49581107D01*
X119767596Y-49522157D01*
X119755109Y-49427848D01*
X119715725Y-49356850D01*
X119646564Y-49306671D01*
X119544744Y-49274818D01*
X119468804Y-49263675D01*
X119402067Y-49255279D01*
X119365936Y-49244798D01*
X119351191Y-49227611D01*
X119348586Y-49203381D01*
X119361734Y-49165592D01*
X119399521Y-49102372D01*
X119459463Y-49017565D01*
X119517667Y-48941848D01*
X119686747Y-48728044D01*
X119368020Y-48722561D01*
X119049293Y-48717079D01*
X119049293Y-48667691D01*
X119049293Y-48618303D01*
X119458327Y-48618303D01*
X119596184Y-48618526D01*
G37*
G36*
X117781018Y-48620144D02*
G01*
X117899717Y-48626709D01*
X117991731Y-48639566D01*
X118063605Y-48660279D01*
X118121889Y-48690414D01*
X118173128Y-48731539D01*
X118195328Y-48753728D01*
X118266540Y-48850483D01*
X118303491Y-48959012D01*
X118311037Y-49050908D01*
X118294618Y-49165681D01*
X118249150Y-49270956D01*
X118180324Y-49357336D01*
X118093825Y-49415426D01*
X118089212Y-49417389D01*
X118049237Y-49436128D01*
X118031729Y-49448656D01*
X118031697Y-49448929D01*
X118042497Y-49466485D01*
X118071300Y-49508757D01*
X118112711Y-49568133D01*
X118161337Y-49637002D01*
X118211782Y-49707754D01*
X118258652Y-49772776D01*
X118296552Y-49824458D01*
X118316244Y-49850393D01*
X118320011Y-49866755D01*
X118293318Y-49873869D01*
X118258610Y-49874662D01*
X118225151Y-49872972D01*
X118197863Y-49864921D01*
X118170820Y-49845027D01*
X118138093Y-49807811D01*
X118093755Y-49747792D01*
X118042772Y-49675133D01*
X117904201Y-49476276D01*
X117678633Y-49476276D01*
X117453064Y-49476276D01*
X117453064Y-49675805D01*
X117453064Y-49875334D01*
X117383229Y-49875334D01*
X117313394Y-49875334D01*
X117313394Y-49246818D01*
X117313394Y-48712680D01*
X117453064Y-48712680D01*
X117453064Y-49034620D01*
X117453064Y-49356559D01*
X117693139Y-49356559D01*
X117830090Y-49353610D01*
X117931478Y-49344877D01*
X117995383Y-49330532D01*
X117998352Y-49329343D01*
X118054859Y-49295324D01*
X118109642Y-49246829D01*
X118117428Y-49238024D01*
X118149272Y-49193332D01*
X118165592Y-49146382D01*
X118171111Y-49081044D01*
X118171367Y-49053826D01*
X118161942Y-48947628D01*
X118130494Y-48868388D01*
X118072263Y-48807083D01*
X118025095Y-48776613D01*
X117983842Y-48756628D01*
X117937591Y-48742629D01*
X117877252Y-48733097D01*
X117793731Y-48726515D01*
X117699064Y-48722157D01*
X117453064Y-48712680D01*
X117313394Y-48712680D01*
X117313394Y-48618303D01*
X117629085Y-48618303D01*
X117781018Y-48620144D01*
G37*
G36*
X117890255Y-50195202D02*
G01*
X117961862Y-50195825D01*
X118221249Y-50767219D01*
X118286224Y-50910466D01*
X118346812Y-51044267D01*
X118400787Y-51163684D01*
X118445919Y-51263779D01*
X118479980Y-51339612D01*
X118500741Y-51386245D01*
X118505109Y-51396288D01*
X118529582Y-51453963D01*
X118456993Y-51447799D01*
X118421782Y-51443110D01*
X118396105Y-51431271D01*
X118373777Y-51404912D01*
X118348615Y-51356663D01*
X118314434Y-51279156D01*
X118313329Y-51276590D01*
X118242253Y-51111546D01*
X117885943Y-51116967D01*
X117529634Y-51122388D01*
X117458034Y-51286999D01*
X117423366Y-51365092D01*
X117398236Y-51413519D01*
X117376614Y-51439362D01*
X117352472Y-51449698D01*
X117319779Y-51451609D01*
X117317850Y-51451610D01*
X117271745Y-51447412D01*
X117258154Y-51432534D01*
X117260477Y-51422395D01*
X117271217Y-51397741D01*
X117296507Y-51341299D01*
X117334305Y-51257578D01*
X117382570Y-51151084D01*
X117439260Y-51026323D01*
X117451919Y-50998521D01*
X117592734Y-50998521D01*
X117611540Y-51003420D01*
X117663378Y-51007583D01*
X117741375Y-51010685D01*
X117838658Y-51012406D01*
X117894162Y-51012647D01*
X118014324Y-51011916D01*
X118099053Y-51009468D01*
X118152798Y-51004921D01*
X118180009Y-50997894D01*
X118185137Y-50988005D01*
X118185016Y-50987706D01*
X118158445Y-50926344D01*
X118122890Y-50846058D01*
X118081585Y-50753943D01*
X118037765Y-50657096D01*
X117994663Y-50562612D01*
X117955514Y-50477587D01*
X117923552Y-50409117D01*
X117902012Y-50364297D01*
X117894447Y-50350227D01*
X117883747Y-50363738D01*
X117860199Y-50406911D01*
X117827001Y-50472873D01*
X117787352Y-50554749D01*
X117744453Y-50645665D01*
X117701502Y-50738747D01*
X117661698Y-50827121D01*
X117628241Y-50903912D01*
X117604329Y-50962247D01*
X117593163Y-50995251D01*
X117592734Y-50998521D01*
X117451919Y-50998521D01*
X117502334Y-50887802D01*
X117545168Y-50793880D01*
X117818648Y-50194580D01*
X117890255Y-50195202D01*
G37*
G36*
X117053069Y-44282840D02*
G01*
X117111525Y-44306043D01*
X117199167Y-44341381D01*
X117312153Y-44387287D01*
X117446639Y-44442198D01*
X117598784Y-44504548D01*
X117764743Y-44572772D01*
X117914931Y-44634680D01*
X118765879Y-44985867D01*
X119638370Y-44626401D01*
X119814110Y-44554246D01*
X119978375Y-44487284D01*
X120127530Y-44426963D01*
X120257943Y-44374729D01*
X120365981Y-44332028D01*
X120448010Y-44300308D01*
X120500399Y-44281013D01*
X120519491Y-44275566D01*
X120513509Y-44295140D01*
X120491826Y-44344715D01*
X120457156Y-44418889D01*
X120412211Y-44512261D01*
X120359706Y-44619428D01*
X120302353Y-44734989D01*
X120242866Y-44853541D01*
X120183958Y-44969682D01*
X120128342Y-45078012D01*
X120078732Y-45173126D01*
X120037841Y-45249625D01*
X120008383Y-45302105D01*
X119993070Y-45325165D01*
X119991992Y-45325775D01*
X119963973Y-45315935D01*
X119947172Y-45306490D01*
X119939913Y-45295282D01*
X119941292Y-45272857D01*
X119953002Y-45235065D01*
X119976736Y-45177752D01*
X120014184Y-45096768D01*
X120067041Y-44987960D01*
X120122825Y-44875549D01*
X120180992Y-44758233D01*
X120232252Y-44653393D01*
X120274190Y-44566089D01*
X120304392Y-44501379D01*
X120320443Y-44464324D01*
X120322322Y-44457501D01*
X120303371Y-44463497D01*
X120252492Y-44482854D01*
X120174582Y-44513560D01*
X120074540Y-44553605D01*
X119957264Y-44600978D01*
X119827652Y-44653670D01*
X119690602Y-44709669D01*
X119551013Y-44766966D01*
X119413783Y-44823549D01*
X119283809Y-44877408D01*
X119165991Y-44926533D01*
X119065226Y-44968914D01*
X118986413Y-45002539D01*
X118934449Y-45025398D01*
X118914276Y-45035436D01*
X118922398Y-45048920D01*
X118951750Y-45063746D01*
X119001661Y-45083349D01*
X119080110Y-45114950D01*
X119182730Y-45156736D01*
X119305157Y-45206894D01*
X119443022Y-45263613D01*
X119591962Y-45325079D01*
X119747609Y-45389479D01*
X119905598Y-45455000D01*
X120061562Y-45519831D01*
X120211136Y-45582158D01*
X120349953Y-45640168D01*
X120473648Y-45692049D01*
X120577854Y-45735987D01*
X120658206Y-45770171D01*
X120710337Y-45792788D01*
X120729861Y-45802003D01*
X120718532Y-45818055D01*
X120681113Y-45859948D01*
X120619823Y-45925399D01*
X120536882Y-46012124D01*
X120434510Y-46117838D01*
X120314925Y-46240259D01*
X120180347Y-46377102D01*
X120032997Y-46526083D01*
X119875092Y-46684919D01*
X119752096Y-46808117D01*
X118759828Y-47800236D01*
X117763970Y-46804230D01*
X116804829Y-45844945D01*
X116954375Y-45844945D01*
X116968081Y-45860470D01*
X117007600Y-45901649D01*
X117070461Y-45965984D01*
X117154193Y-46050978D01*
X117256323Y-46154135D01*
X117374380Y-46272957D01*
X117505893Y-46404948D01*
X117648390Y-46547611D01*
X117783883Y-46682965D01*
X118613523Y-47510919D01*
X118161498Y-46605161D01*
X118058397Y-46398326D01*
X117972093Y-46224304D01*
X117901445Y-46080261D01*
X117845309Y-45963366D01*
X117802542Y-45870786D01*
X117772001Y-45799688D01*
X117752543Y-45747239D01*
X117743026Y-45710608D01*
X117742306Y-45686961D01*
X117749241Y-45673465D01*
X117762687Y-45667289D01*
X117781502Y-45665599D01*
X117782384Y-45665584D01*
X117794863Y-45682858D01*
X117823336Y-45732607D01*
X117866089Y-45811545D01*
X117921411Y-45916384D01*
X117987587Y-46043838D01*
X118062905Y-46190621D01*
X118145651Y-46353445D01*
X118234113Y-46529023D01*
X118276190Y-46613040D01*
X118366594Y-46793345D01*
X118451903Y-46962421D01*
X118530420Y-47116982D01*
X118600451Y-47253742D01*
X118660302Y-47369416D01*
X118708277Y-47460716D01*
X118742681Y-47524358D01*
X118761821Y-47557056D01*
X118765035Y-47560801D01*
X118776566Y-47543476D01*
X118804144Y-47493692D01*
X118846073Y-47414735D01*
X118900659Y-47309890D01*
X118966207Y-47182443D01*
X119041023Y-47035680D01*
X119123411Y-46872888D01*
X119211676Y-46697351D01*
X119253880Y-46613040D01*
X119344280Y-46432746D01*
X119429581Y-46263691D01*
X119508088Y-46109159D01*
X119578107Y-45972435D01*
X119637944Y-45856804D01*
X119685905Y-45765549D01*
X119720294Y-45701955D01*
X119739419Y-45669307D01*
X119742628Y-45665584D01*
X119770728Y-45675447D01*
X119787549Y-45684922D01*
X119791970Y-45694289D01*
X119789430Y-45714692D01*
X119778684Y-45748860D01*
X119758490Y-45799527D01*
X119727603Y-45869423D01*
X119684780Y-45961281D01*
X119628775Y-46077830D01*
X119558346Y-46221804D01*
X119472249Y-46395933D01*
X119371976Y-46597460D01*
X118926473Y-47490966D01*
X119746092Y-46672990D01*
X119895445Y-46523736D01*
X120036022Y-46382864D01*
X120165336Y-46252892D01*
X120280899Y-46136340D01*
X120380223Y-46035727D01*
X120460820Y-45953572D01*
X120520201Y-45892395D01*
X120555879Y-45854715D01*
X120565711Y-45843056D01*
X120547832Y-45833326D01*
X120496555Y-45810004D01*
X120415424Y-45774596D01*
X120307981Y-45728608D01*
X120177770Y-45673544D01*
X120028332Y-45610910D01*
X119863210Y-45542212D01*
X119685948Y-45468955D01*
X119665884Y-45460693D01*
X118766056Y-45090287D01*
X117860282Y-45462583D01*
X117681287Y-45536352D01*
X117514028Y-45605666D01*
X117362037Y-45669036D01*
X117228846Y-45724969D01*
X117117987Y-45771976D01*
X117032991Y-45808565D01*
X116977392Y-45833245D01*
X116954721Y-45844527D01*
X116954375Y-45844945D01*
X116804829Y-45844945D01*
X116768113Y-45808223D01*
X116836236Y-45780004D01*
X116868269Y-45766782D01*
X116933210Y-45740017D01*
X117027066Y-45701354D01*
X117145842Y-45652437D01*
X117285544Y-45594910D01*
X117442179Y-45530420D01*
X117611752Y-45460609D01*
X117770240Y-45395369D01*
X117981018Y-45308284D01*
X118156867Y-45234871D01*
X118299972Y-45174146D01*
X118412520Y-45125124D01*
X118496697Y-45086819D01*
X118554690Y-45058246D01*
X118588685Y-45038421D01*
X118600868Y-45026359D01*
X118598284Y-45022282D01*
X118512032Y-44984987D01*
X118404892Y-44939781D01*
X118281654Y-44888583D01*
X118147108Y-44833310D01*
X118006044Y-44775883D01*
X117863253Y-44718219D01*
X117723524Y-44662237D01*
X117591647Y-44609856D01*
X117472414Y-44562994D01*
X117370614Y-44523571D01*
X117291036Y-44493505D01*
X117238473Y-44474714D01*
X117217712Y-44469118D01*
X117217582Y-44469246D01*
X117224397Y-44490680D01*
X117246821Y-44542417D01*
X117282384Y-44619182D01*
X117328620Y-44715699D01*
X117383060Y-44826694D01*
X117411920Y-44884643D01*
X117476523Y-45014090D01*
X117524851Y-45112503D01*
X117558627Y-45184463D01*
X117579575Y-45234553D01*
X117589419Y-45267354D01*
X117589883Y-45287449D01*
X117582689Y-45299418D01*
X117570870Y-45307150D01*
X117536683Y-45321842D01*
X117523411Y-45322708D01*
X117513302Y-45303867D01*
X117487652Y-45253789D01*
X117448719Y-45176949D01*
X117398763Y-45077827D01*
X117340044Y-44960897D01*
X117274823Y-44830639D01*
X117254331Y-44789641D01*
X117174583Y-44628793D01*
X117112629Y-44500913D01*
X117067484Y-44403761D01*
X117038164Y-44335094D01*
X117023684Y-44292670D01*
X117023060Y-44274247D01*
X117027641Y-44273336D01*
X117053069Y-44282840D01*
G37*
%TD*%
D12*
%TO.C,R3*%
X124762500Y-46000000D03*
X122937500Y-46000000D03*
%TD*%
D13*
%TO.C,R11*%
X112100000Y-65325000D03*
X112100000Y-63500000D03*
%TD*%
D14*
%TO.C,D51*%
X79600000Y-67017678D03*
X80925826Y-65691852D03*
%TD*%
D12*
%TO.C,R2*%
X124762500Y-48000000D03*
X122937500Y-48000000D03*
%TD*%
D15*
%TO.C,R8*%
X91600000Y-60982322D03*
X92890470Y-59691852D03*
%TD*%
D14*
%TO.C,D9*%
X67600000Y-52000000D03*
X68925826Y-50674174D03*
%TD*%
%TO.C,D41*%
X73600000Y-61000000D03*
X74925826Y-59674174D03*
%TD*%
D15*
%TO.C,R15*%
X91600000Y-63982322D03*
X92890470Y-62691852D03*
%TD*%
D14*
%TO.C,D36*%
X67600000Y-70125826D03*
X68925826Y-68800000D03*
%TD*%
D15*
%TO.C,R6*%
X91600000Y-54982322D03*
X92890470Y-53691852D03*
%TD*%
D13*
%TO.C,R17*%
X112100000Y-55412500D03*
X112100000Y-53587500D03*
%TD*%
D14*
%TO.C,D25*%
X79600000Y-55000000D03*
X80925826Y-53674174D03*
%TD*%
D16*
%TO.C,C2*%
X102550000Y-57275000D03*
X102550000Y-59175000D03*
%TD*%
D14*
%TO.C,D43*%
X73600000Y-67017678D03*
X74925826Y-65691852D03*
%TD*%
D17*
%TO.C,U4*%
X106450000Y-45200000D03*
X106450000Y-47500000D03*
D18*
X112750000Y-47500000D03*
D17*
X106450000Y-49800000D03*
%TD*%
D14*
%TO.C,D15*%
X85600000Y-52000000D03*
X86925826Y-50674174D03*
%TD*%
D15*
%TO.C,R5*%
X91600000Y-51982322D03*
X92890470Y-50691852D03*
%TD*%
D14*
%TO.C,D63*%
X88600000Y-67017678D03*
X89925826Y-65691852D03*
%TD*%
%TO.C,D10*%
X70600000Y-52000000D03*
X71925826Y-50674174D03*
%TD*%
%TO.C,D61*%
X88600000Y-61000000D03*
X89925826Y-59674174D03*
%TD*%
%TO.C,D8*%
X88600000Y-49000000D03*
X89925826Y-47674174D03*
%TD*%
%TO.C,D38*%
X70600000Y-64000000D03*
X71925826Y-62674174D03*
%TD*%
%TO.C,D58*%
X85600000Y-64000000D03*
X86925826Y-62674174D03*
%TD*%
%TO.C,D28*%
X82600000Y-58000000D03*
X83925826Y-56674174D03*
%TD*%
%TO.C,D7*%
X85560000Y-49000000D03*
X86885826Y-47674174D03*
%TD*%
%TO.C,D34*%
X67600000Y-64000000D03*
X68925826Y-62674174D03*
%TD*%
%TO.C,D27*%
X82600000Y-55000000D03*
X83925826Y-53674174D03*
%TD*%
%TO.C,D62*%
X88600000Y-64000000D03*
X89925826Y-62674174D03*
%TD*%
%TO.C,D40*%
X70600000Y-70125826D03*
X71925826Y-68800000D03*
%TD*%
%TO.C,D50*%
X79600000Y-64000000D03*
X80925826Y-62674174D03*
%TD*%
%TO.C,D48*%
X76600000Y-70125826D03*
X77925826Y-68800000D03*
%TD*%
%TO.C,D13*%
X79600000Y-52000000D03*
X80925826Y-50674174D03*
%TD*%
%TO.C,D33*%
X67600000Y-61000000D03*
X68925826Y-59674174D03*
%TD*%
D12*
%TO.C,R1*%
X124762500Y-50000000D03*
X122937500Y-50000000D03*
%TD*%
D19*
%TO.C,R14*%
X106075000Y-68537500D03*
X106075000Y-70362500D03*
%TD*%
D14*
%TO.C,D32*%
X88600000Y-58000000D03*
X89925826Y-56674174D03*
%TD*%
%TO.C,D19*%
X70600000Y-55000000D03*
X71925826Y-53674174D03*
%TD*%
%TO.C,D45*%
X76600000Y-61000000D03*
X77925826Y-59674174D03*
%TD*%
%TO.C,D17*%
X67600000Y-55000000D03*
X68925826Y-53674174D03*
%TD*%
D16*
%TO.C,C4*%
X115125000Y-53550000D03*
X115125000Y-55450000D03*
%TD*%
D14*
%TO.C,D60*%
X85600000Y-70125826D03*
X86925826Y-68800000D03*
%TD*%
D13*
%TO.C,R13*%
X112075000Y-70362500D03*
X112075000Y-68537500D03*
%TD*%
D14*
%TO.C,D14*%
X82600000Y-52000000D03*
X83925826Y-50674174D03*
%TD*%
%TO.C,D22*%
X73600000Y-58000000D03*
X74925826Y-56674174D03*
%TD*%
D19*
%TO.C,R12*%
X106100000Y-63500000D03*
X106100000Y-65325000D03*
%TD*%
D14*
%TO.C,D5*%
X79600000Y-49000000D03*
X80925826Y-47674174D03*
%TD*%
%TO.C,D37*%
X70600000Y-61000000D03*
X71925826Y-59674174D03*
%TD*%
%TO.C,D44*%
X73600000Y-70125826D03*
X74925826Y-68800000D03*
%TD*%
D20*
%TO.C,U1*%
X135220000Y-53850000D03*
X133950000Y-53850000D03*
X132680000Y-53850000D03*
X131410000Y-53850000D03*
X130140000Y-53850000D03*
X128870000Y-53850000D03*
X127600000Y-53850000D03*
X126330000Y-53850000D03*
X125060000Y-53850000D03*
X123790000Y-53850000D03*
X122520000Y-53850000D03*
X121250000Y-53850000D03*
X119980000Y-53850000D03*
X118710000Y-53850000D03*
D21*
X117460000Y-55615000D03*
X117460000Y-56885000D03*
X117460000Y-58155000D03*
X117460000Y-59425000D03*
X117460000Y-60695000D03*
X117460000Y-61965000D03*
X117460000Y-63235000D03*
X117460000Y-64505000D03*
X117460000Y-65775000D03*
X117460000Y-67045000D03*
X117460000Y-68315000D03*
X117460000Y-69585000D03*
D20*
X118710000Y-71350000D03*
X119980000Y-71350000D03*
X121250000Y-71350000D03*
X122520000Y-71350000D03*
X123790000Y-71350000D03*
X125060000Y-71350000D03*
X126330000Y-71350000D03*
X127600000Y-71350000D03*
X128870000Y-71350000D03*
X130140000Y-71350000D03*
X131410000Y-71350000D03*
X132680000Y-71350000D03*
X133950000Y-71350000D03*
X135220000Y-71350000D03*
D22*
X128200000Y-59700000D03*
X126800000Y-59700000D03*
X128900000Y-60400000D03*
X127500000Y-60400000D03*
X126100000Y-60400000D03*
X128200000Y-61100000D03*
D23*
X127500000Y-61100000D03*
D22*
X126800000Y-61100000D03*
X128900000Y-61800000D03*
X127500000Y-61800000D03*
X126100000Y-61800000D03*
X128200000Y-62500000D03*
X126800000Y-62500000D03*
%TD*%
D14*
%TO.C,D11*%
X73600000Y-52000000D03*
X74925826Y-50674174D03*
%TD*%
D24*
%TO.C,Q1*%
X110050000Y-58537500D03*
X108150000Y-58537500D03*
X109100000Y-60412500D03*
%TD*%
%TO.C,Q5*%
X110050000Y-53625000D03*
X108150000Y-53625000D03*
X109100000Y-55500000D03*
%TD*%
D14*
%TO.C,D55*%
X82600000Y-67017678D03*
X83925826Y-65691852D03*
%TD*%
D19*
%TO.C,R10*%
X106100000Y-58412500D03*
X106100000Y-60237500D03*
%TD*%
D25*
%TO.C,C3*%
X102775000Y-45125000D03*
X100875000Y-45125000D03*
%TD*%
D14*
%TO.C,D29*%
X85600000Y-55000000D03*
X86925826Y-53674174D03*
%TD*%
%TO.C,D39*%
X70600000Y-67017678D03*
X71925826Y-65691852D03*
%TD*%
%TO.C,D47*%
X76600000Y-67017678D03*
X77925826Y-65691852D03*
%TD*%
%TO.C,D46*%
X76600000Y-64000000D03*
X77925826Y-62674174D03*
%TD*%
%TO.C,D35*%
X67600000Y-67017678D03*
X68925826Y-65691852D03*
%TD*%
D24*
%TO.C,Q3*%
X110025000Y-68600000D03*
X108125000Y-68600000D03*
X109075000Y-70475000D03*
%TD*%
D14*
%TO.C,D6*%
X82520000Y-49000000D03*
X83845826Y-47674174D03*
%TD*%
D13*
%TO.C,R9*%
X112100000Y-60325000D03*
X112100000Y-58500000D03*
%TD*%
D26*
%TO.C,U3*%
X97350000Y-46875000D03*
X97350000Y-48145000D03*
X97350000Y-49415000D03*
X97350000Y-50685000D03*
X97350000Y-51955000D03*
X97350000Y-53225000D03*
X97350000Y-54495000D03*
X97350000Y-55765000D03*
X102300000Y-55765000D03*
X102300000Y-54495000D03*
X102300000Y-53225000D03*
X102300000Y-51955000D03*
X102300000Y-50685000D03*
X102300000Y-49415000D03*
X102300000Y-48145000D03*
X102300000Y-46875000D03*
%TD*%
D27*
%TO.C,J1*%
X134120000Y-50320000D03*
X133320000Y-50320000D03*
D28*
X132170000Y-50320000D03*
X131170000Y-50320000D03*
X130670000Y-50320000D03*
X129670000Y-50320000D03*
D27*
X128520000Y-50320000D03*
X127720000Y-50320000D03*
X127720000Y-50320000D03*
X128520000Y-50320000D03*
D28*
X129170000Y-50320000D03*
X130170000Y-50320000D03*
X131670000Y-50320000D03*
X132670000Y-50320000D03*
D27*
X133320000Y-50320000D03*
X134120000Y-50320000D03*
D29*
X135240000Y-49680000D03*
D30*
X135240000Y-45500000D03*
D29*
X126600000Y-49680000D03*
D30*
X126600000Y-45500000D03*
%TD*%
D14*
%TO.C,D26*%
X79600000Y-58000000D03*
X80925826Y-56674174D03*
%TD*%
%TO.C,D1*%
X67520000Y-49000000D03*
X68845826Y-47674174D03*
%TD*%
%TO.C,D23*%
X76600000Y-55000000D03*
X77925826Y-53674174D03*
%TD*%
%TO.C,D24*%
X76600000Y-58000000D03*
X77925826Y-56674174D03*
%TD*%
%TO.C,D64*%
X88600000Y-70125826D03*
X89925826Y-68800000D03*
%TD*%
%TO.C,D16*%
X88600000Y-52000000D03*
X89925826Y-50674174D03*
%TD*%
D15*
%TO.C,R7*%
X91600000Y-57982322D03*
X92890470Y-56691852D03*
%TD*%
D24*
%TO.C,Q2*%
X110000000Y-63500000D03*
X108100000Y-63500000D03*
X109050000Y-65375000D03*
%TD*%
D14*
%TO.C,D59*%
X85600000Y-67017678D03*
X86925826Y-65691852D03*
%TD*%
%TO.C,D54*%
X82600000Y-64000000D03*
X83925826Y-62674174D03*
%TD*%
%TO.C,D12*%
X76600000Y-52000000D03*
X77925826Y-50674174D03*
%TD*%
D31*
%TO.C,C1*%
X115050000Y-46550000D03*
X115050000Y-44650000D03*
%TD*%
D14*
%TO.C,D20*%
X70600000Y-58000000D03*
X71925826Y-56674174D03*
%TD*%
%TO.C,D42*%
X73600000Y-64000000D03*
X74925826Y-62674174D03*
%TD*%
D15*
%TO.C,R19*%
X91600000Y-70108148D03*
X92890470Y-68817678D03*
%TD*%
D26*
%TO.C,U2*%
X97355000Y-61860000D03*
X97355000Y-63130000D03*
X97355000Y-64400000D03*
X97355000Y-65670000D03*
X97355000Y-66940000D03*
X97355000Y-68210000D03*
X97355000Y-69480000D03*
X97355000Y-70750000D03*
X102305000Y-70750000D03*
X102305000Y-69480000D03*
X102305000Y-68210000D03*
X102305000Y-66940000D03*
X102305000Y-65670000D03*
X102305000Y-64400000D03*
X102305000Y-63130000D03*
X102305000Y-61860000D03*
%TD*%
D14*
%TO.C,D3*%
X73520000Y-49000000D03*
X74845826Y-47674174D03*
%TD*%
%TO.C,D31*%
X88600000Y-55000000D03*
X89925826Y-53674174D03*
%TD*%
%TO.C,D53*%
X82600000Y-61000000D03*
X83925826Y-59674174D03*
%TD*%
%TO.C,D2*%
X70480000Y-49000000D03*
X71805826Y-47674174D03*
%TD*%
%TO.C,D30*%
X85600000Y-58000000D03*
X86925826Y-56674174D03*
%TD*%
%TO.C,D56*%
X82600000Y-70125826D03*
X83925826Y-68800000D03*
%TD*%
%TO.C,D18*%
X67600000Y-58000000D03*
X68925826Y-56674174D03*
%TD*%
D15*
%TO.C,R16*%
X91600000Y-67000000D03*
X92890470Y-65709530D03*
%TD*%
D14*
%TO.C,D57*%
X85600000Y-61000000D03*
X86925826Y-59674174D03*
%TD*%
%TO.C,D52*%
X79600000Y-70125826D03*
X80925826Y-68800000D03*
%TD*%
%TO.C,D4*%
X76560000Y-49000000D03*
X77885826Y-47674174D03*
%TD*%
%TO.C,D49*%
X79600000Y-61000000D03*
X80925826Y-59674174D03*
%TD*%
D15*
%TO.C,R4*%
X91600000Y-48982322D03*
X92890470Y-47691852D03*
%TD*%
D14*
%TO.C,D21*%
X73600000Y-55000000D03*
X74925826Y-53674174D03*
%TD*%
D19*
%TO.C,R18*%
X106100000Y-53500000D03*
X106100000Y-55325000D03*
%TD*%
M02*
