%TF.GenerationSoftware,KiCad,Pcbnew,7.0.11-7.0.11~ubuntu22.04.1*%
%TF.CreationDate,2024-08-16T07:19:45+02:00*%
%TF.ProjectId,Fri3dGadget,46726933-6447-4616-9467-65742e6b6963,rev?*%
%TF.SameCoordinates,Original*%
%TF.FileFunction,Legend,Top*%
%TF.FilePolarity,Positive*%
%FSLAX46Y46*%
G04 Gerber Fmt 4.6, Leading zero omitted, Abs format (unit mm)*
G04 Created by KiCad (PCBNEW 7.0.11-7.0.11~ubuntu22.04.1) date 2024-08-16 07:19:45*
%MOMM*%
%LPD*%
G01*
G04 APERTURE LIST*
%ADD10C,0.150000*%
%ADD11C,0.120000*%
G04 APERTURE END LIST*
D10*
X121095833Y-46454819D02*
X120762500Y-45978628D01*
X120524405Y-46454819D02*
X120524405Y-45454819D01*
X120524405Y-45454819D02*
X120905357Y-45454819D01*
X120905357Y-45454819D02*
X121000595Y-45502438D01*
X121000595Y-45502438D02*
X121048214Y-45550057D01*
X121048214Y-45550057D02*
X121095833Y-45645295D01*
X121095833Y-45645295D02*
X121095833Y-45788152D01*
X121095833Y-45788152D02*
X121048214Y-45883390D01*
X121048214Y-45883390D02*
X121000595Y-45931009D01*
X121000595Y-45931009D02*
X120905357Y-45978628D01*
X120905357Y-45978628D02*
X120524405Y-45978628D01*
X121429167Y-45454819D02*
X122048214Y-45454819D01*
X122048214Y-45454819D02*
X121714881Y-45835771D01*
X121714881Y-45835771D02*
X121857738Y-45835771D01*
X121857738Y-45835771D02*
X121952976Y-45883390D01*
X121952976Y-45883390D02*
X122000595Y-45931009D01*
X122000595Y-45931009D02*
X122048214Y-46026247D01*
X122048214Y-46026247D02*
X122048214Y-46264342D01*
X122048214Y-46264342D02*
X122000595Y-46359580D01*
X122000595Y-46359580D02*
X121952976Y-46407200D01*
X121952976Y-46407200D02*
X121857738Y-46454819D01*
X121857738Y-46454819D02*
X121572024Y-46454819D01*
X121572024Y-46454819D02*
X121476786Y-46407200D01*
X121476786Y-46407200D02*
X121429167Y-46359580D01*
X111457142Y-67454819D02*
X111123809Y-66978628D01*
X110885714Y-67454819D02*
X110885714Y-66454819D01*
X110885714Y-66454819D02*
X111266666Y-66454819D01*
X111266666Y-66454819D02*
X111361904Y-66502438D01*
X111361904Y-66502438D02*
X111409523Y-66550057D01*
X111409523Y-66550057D02*
X111457142Y-66645295D01*
X111457142Y-66645295D02*
X111457142Y-66788152D01*
X111457142Y-66788152D02*
X111409523Y-66883390D01*
X111409523Y-66883390D02*
X111361904Y-66931009D01*
X111361904Y-66931009D02*
X111266666Y-66978628D01*
X111266666Y-66978628D02*
X110885714Y-66978628D01*
X112409523Y-67454819D02*
X111838095Y-67454819D01*
X112123809Y-67454819D02*
X112123809Y-66454819D01*
X112123809Y-66454819D02*
X112028571Y-66597676D01*
X112028571Y-66597676D02*
X111933333Y-66692914D01*
X111933333Y-66692914D02*
X111838095Y-66740533D01*
X113361904Y-67454819D02*
X112790476Y-67454819D01*
X113076190Y-67454819D02*
X113076190Y-66454819D01*
X113076190Y-66454819D02*
X112980952Y-66597676D01*
X112980952Y-66597676D02*
X112885714Y-66692914D01*
X112885714Y-66692914D02*
X112790476Y-66740533D01*
X121095833Y-48454819D02*
X120762500Y-47978628D01*
X120524405Y-48454819D02*
X120524405Y-47454819D01*
X120524405Y-47454819D02*
X120905357Y-47454819D01*
X120905357Y-47454819D02*
X121000595Y-47502438D01*
X121000595Y-47502438D02*
X121048214Y-47550057D01*
X121048214Y-47550057D02*
X121095833Y-47645295D01*
X121095833Y-47645295D02*
X121095833Y-47788152D01*
X121095833Y-47788152D02*
X121048214Y-47883390D01*
X121048214Y-47883390D02*
X121000595Y-47931009D01*
X121000595Y-47931009D02*
X120905357Y-47978628D01*
X120905357Y-47978628D02*
X120524405Y-47978628D01*
X121476786Y-47550057D02*
X121524405Y-47502438D01*
X121524405Y-47502438D02*
X121619643Y-47454819D01*
X121619643Y-47454819D02*
X121857738Y-47454819D01*
X121857738Y-47454819D02*
X121952976Y-47502438D01*
X121952976Y-47502438D02*
X122000595Y-47550057D01*
X122000595Y-47550057D02*
X122048214Y-47645295D01*
X122048214Y-47645295D02*
X122048214Y-47740533D01*
X122048214Y-47740533D02*
X122000595Y-47883390D01*
X122000595Y-47883390D02*
X121429167Y-48454819D01*
X121429167Y-48454819D02*
X122048214Y-48454819D01*
X111457142Y-57454819D02*
X111123809Y-56978628D01*
X110885714Y-57454819D02*
X110885714Y-56454819D01*
X110885714Y-56454819D02*
X111266666Y-56454819D01*
X111266666Y-56454819D02*
X111361904Y-56502438D01*
X111361904Y-56502438D02*
X111409523Y-56550057D01*
X111409523Y-56550057D02*
X111457142Y-56645295D01*
X111457142Y-56645295D02*
X111457142Y-56788152D01*
X111457142Y-56788152D02*
X111409523Y-56883390D01*
X111409523Y-56883390D02*
X111361904Y-56931009D01*
X111361904Y-56931009D02*
X111266666Y-56978628D01*
X111266666Y-56978628D02*
X110885714Y-56978628D01*
X112409523Y-57454819D02*
X111838095Y-57454819D01*
X112123809Y-57454819D02*
X112123809Y-56454819D01*
X112123809Y-56454819D02*
X112028571Y-56597676D01*
X112028571Y-56597676D02*
X111933333Y-56692914D01*
X111933333Y-56692914D02*
X111838095Y-56740533D01*
X112742857Y-56454819D02*
X113409523Y-56454819D01*
X113409523Y-56454819D02*
X112980952Y-57454819D01*
X104589580Y-58391666D02*
X104637200Y-58439285D01*
X104637200Y-58439285D02*
X104684819Y-58582142D01*
X104684819Y-58582142D02*
X104684819Y-58677380D01*
X104684819Y-58677380D02*
X104637200Y-58820237D01*
X104637200Y-58820237D02*
X104541961Y-58915475D01*
X104541961Y-58915475D02*
X104446723Y-58963094D01*
X104446723Y-58963094D02*
X104256247Y-59010713D01*
X104256247Y-59010713D02*
X104113390Y-59010713D01*
X104113390Y-59010713D02*
X103922914Y-58963094D01*
X103922914Y-58963094D02*
X103827676Y-58915475D01*
X103827676Y-58915475D02*
X103732438Y-58820237D01*
X103732438Y-58820237D02*
X103684819Y-58677380D01*
X103684819Y-58677380D02*
X103684819Y-58582142D01*
X103684819Y-58582142D02*
X103732438Y-58439285D01*
X103732438Y-58439285D02*
X103780057Y-58391666D01*
X103780057Y-58010713D02*
X103732438Y-57963094D01*
X103732438Y-57963094D02*
X103684819Y-57867856D01*
X103684819Y-57867856D02*
X103684819Y-57629761D01*
X103684819Y-57629761D02*
X103732438Y-57534523D01*
X103732438Y-57534523D02*
X103780057Y-57486904D01*
X103780057Y-57486904D02*
X103875295Y-57439285D01*
X103875295Y-57439285D02*
X103970533Y-57439285D01*
X103970533Y-57439285D02*
X104113390Y-57486904D01*
X104113390Y-57486904D02*
X104684819Y-58058332D01*
X104684819Y-58058332D02*
X104684819Y-57439285D01*
X112088095Y-44204819D02*
X112088095Y-45014342D01*
X112088095Y-45014342D02*
X112135714Y-45109580D01*
X112135714Y-45109580D02*
X112183333Y-45157200D01*
X112183333Y-45157200D02*
X112278571Y-45204819D01*
X112278571Y-45204819D02*
X112469047Y-45204819D01*
X112469047Y-45204819D02*
X112564285Y-45157200D01*
X112564285Y-45157200D02*
X112611904Y-45109580D01*
X112611904Y-45109580D02*
X112659523Y-45014342D01*
X112659523Y-45014342D02*
X112659523Y-44204819D01*
X113564285Y-44538152D02*
X113564285Y-45204819D01*
X113326190Y-44157200D02*
X113088095Y-44871485D01*
X113088095Y-44871485D02*
X113707142Y-44871485D01*
X121095833Y-50454819D02*
X120762500Y-49978628D01*
X120524405Y-50454819D02*
X120524405Y-49454819D01*
X120524405Y-49454819D02*
X120905357Y-49454819D01*
X120905357Y-49454819D02*
X121000595Y-49502438D01*
X121000595Y-49502438D02*
X121048214Y-49550057D01*
X121048214Y-49550057D02*
X121095833Y-49645295D01*
X121095833Y-49645295D02*
X121095833Y-49788152D01*
X121095833Y-49788152D02*
X121048214Y-49883390D01*
X121048214Y-49883390D02*
X121000595Y-49931009D01*
X121000595Y-49931009D02*
X120905357Y-49978628D01*
X120905357Y-49978628D02*
X120524405Y-49978628D01*
X122048214Y-50454819D02*
X121476786Y-50454819D01*
X121762500Y-50454819D02*
X121762500Y-49454819D01*
X121762500Y-49454819D02*
X121667262Y-49597676D01*
X121667262Y-49597676D02*
X121572024Y-49692914D01*
X121572024Y-49692914D02*
X121476786Y-49740533D01*
X105932142Y-72492319D02*
X105598809Y-72016128D01*
X105360714Y-72492319D02*
X105360714Y-71492319D01*
X105360714Y-71492319D02*
X105741666Y-71492319D01*
X105741666Y-71492319D02*
X105836904Y-71539938D01*
X105836904Y-71539938D02*
X105884523Y-71587557D01*
X105884523Y-71587557D02*
X105932142Y-71682795D01*
X105932142Y-71682795D02*
X105932142Y-71825652D01*
X105932142Y-71825652D02*
X105884523Y-71920890D01*
X105884523Y-71920890D02*
X105836904Y-71968509D01*
X105836904Y-71968509D02*
X105741666Y-72016128D01*
X105741666Y-72016128D02*
X105360714Y-72016128D01*
X106884523Y-72492319D02*
X106313095Y-72492319D01*
X106598809Y-72492319D02*
X106598809Y-71492319D01*
X106598809Y-71492319D02*
X106503571Y-71635176D01*
X106503571Y-71635176D02*
X106408333Y-71730414D01*
X106408333Y-71730414D02*
X106313095Y-71778033D01*
X107741666Y-71825652D02*
X107741666Y-72492319D01*
X107503571Y-71444700D02*
X107265476Y-72158985D01*
X107265476Y-72158985D02*
X107884523Y-72158985D01*
X114933333Y-52559580D02*
X114885714Y-52607200D01*
X114885714Y-52607200D02*
X114742857Y-52654819D01*
X114742857Y-52654819D02*
X114647619Y-52654819D01*
X114647619Y-52654819D02*
X114504762Y-52607200D01*
X114504762Y-52607200D02*
X114409524Y-52511961D01*
X114409524Y-52511961D02*
X114361905Y-52416723D01*
X114361905Y-52416723D02*
X114314286Y-52226247D01*
X114314286Y-52226247D02*
X114314286Y-52083390D01*
X114314286Y-52083390D02*
X114361905Y-51892914D01*
X114361905Y-51892914D02*
X114409524Y-51797676D01*
X114409524Y-51797676D02*
X114504762Y-51702438D01*
X114504762Y-51702438D02*
X114647619Y-51654819D01*
X114647619Y-51654819D02*
X114742857Y-51654819D01*
X114742857Y-51654819D02*
X114885714Y-51702438D01*
X114885714Y-51702438D02*
X114933333Y-51750057D01*
X115790476Y-51988152D02*
X115790476Y-52654819D01*
X115552381Y-51607200D02*
X115314286Y-52321485D01*
X115314286Y-52321485D02*
X115933333Y-52321485D01*
X111432142Y-72492319D02*
X111098809Y-72016128D01*
X110860714Y-72492319D02*
X110860714Y-71492319D01*
X110860714Y-71492319D02*
X111241666Y-71492319D01*
X111241666Y-71492319D02*
X111336904Y-71539938D01*
X111336904Y-71539938D02*
X111384523Y-71587557D01*
X111384523Y-71587557D02*
X111432142Y-71682795D01*
X111432142Y-71682795D02*
X111432142Y-71825652D01*
X111432142Y-71825652D02*
X111384523Y-71920890D01*
X111384523Y-71920890D02*
X111336904Y-71968509D01*
X111336904Y-71968509D02*
X111241666Y-72016128D01*
X111241666Y-72016128D02*
X110860714Y-72016128D01*
X112384523Y-72492319D02*
X111813095Y-72492319D01*
X112098809Y-72492319D02*
X112098809Y-71492319D01*
X112098809Y-71492319D02*
X112003571Y-71635176D01*
X112003571Y-71635176D02*
X111908333Y-71730414D01*
X111908333Y-71730414D02*
X111813095Y-71778033D01*
X112717857Y-71492319D02*
X113336904Y-71492319D01*
X113336904Y-71492319D02*
X113003571Y-71873271D01*
X113003571Y-71873271D02*
X113146428Y-71873271D01*
X113146428Y-71873271D02*
X113241666Y-71920890D01*
X113241666Y-71920890D02*
X113289285Y-71968509D01*
X113289285Y-71968509D02*
X113336904Y-72063747D01*
X113336904Y-72063747D02*
X113336904Y-72301842D01*
X113336904Y-72301842D02*
X113289285Y-72397080D01*
X113289285Y-72397080D02*
X113241666Y-72444700D01*
X113241666Y-72444700D02*
X113146428Y-72492319D01*
X113146428Y-72492319D02*
X112860714Y-72492319D01*
X112860714Y-72492319D02*
X112765476Y-72444700D01*
X112765476Y-72444700D02*
X112717857Y-72397080D01*
X105957142Y-67454819D02*
X105623809Y-66978628D01*
X105385714Y-67454819D02*
X105385714Y-66454819D01*
X105385714Y-66454819D02*
X105766666Y-66454819D01*
X105766666Y-66454819D02*
X105861904Y-66502438D01*
X105861904Y-66502438D02*
X105909523Y-66550057D01*
X105909523Y-66550057D02*
X105957142Y-66645295D01*
X105957142Y-66645295D02*
X105957142Y-66788152D01*
X105957142Y-66788152D02*
X105909523Y-66883390D01*
X105909523Y-66883390D02*
X105861904Y-66931009D01*
X105861904Y-66931009D02*
X105766666Y-66978628D01*
X105766666Y-66978628D02*
X105385714Y-66978628D01*
X106909523Y-67454819D02*
X106338095Y-67454819D01*
X106623809Y-67454819D02*
X106623809Y-66454819D01*
X106623809Y-66454819D02*
X106528571Y-66597676D01*
X106528571Y-66597676D02*
X106433333Y-66692914D01*
X106433333Y-66692914D02*
X106338095Y-66740533D01*
X107290476Y-66550057D02*
X107338095Y-66502438D01*
X107338095Y-66502438D02*
X107433333Y-66454819D01*
X107433333Y-66454819D02*
X107671428Y-66454819D01*
X107671428Y-66454819D02*
X107766666Y-66502438D01*
X107766666Y-66502438D02*
X107814285Y-66550057D01*
X107814285Y-66550057D02*
X107861904Y-66645295D01*
X107861904Y-66645295D02*
X107861904Y-66740533D01*
X107861904Y-66740533D02*
X107814285Y-66883390D01*
X107814285Y-66883390D02*
X107242857Y-67454819D01*
X107242857Y-67454819D02*
X107861904Y-67454819D01*
X135054819Y-70261904D02*
X135864342Y-70261904D01*
X135864342Y-70261904D02*
X135959580Y-70214285D01*
X135959580Y-70214285D02*
X136007200Y-70166666D01*
X136007200Y-70166666D02*
X136054819Y-70071428D01*
X136054819Y-70071428D02*
X136054819Y-69880952D01*
X136054819Y-69880952D02*
X136007200Y-69785714D01*
X136007200Y-69785714D02*
X135959580Y-69738095D01*
X135959580Y-69738095D02*
X135864342Y-69690476D01*
X135864342Y-69690476D02*
X135054819Y-69690476D01*
X136054819Y-68690476D02*
X136054819Y-69261904D01*
X136054819Y-68976190D02*
X135054819Y-68976190D01*
X135054819Y-68976190D02*
X135197676Y-69071428D01*
X135197676Y-69071428D02*
X135292914Y-69166666D01*
X135292914Y-69166666D02*
X135340533Y-69261904D01*
X109504761Y-62550057D02*
X109409523Y-62502438D01*
X109409523Y-62502438D02*
X109314285Y-62407200D01*
X109314285Y-62407200D02*
X109171428Y-62264342D01*
X109171428Y-62264342D02*
X109076190Y-62216723D01*
X109076190Y-62216723D02*
X108980952Y-62216723D01*
X109028571Y-62454819D02*
X108933333Y-62407200D01*
X108933333Y-62407200D02*
X108838095Y-62311961D01*
X108838095Y-62311961D02*
X108790476Y-62121485D01*
X108790476Y-62121485D02*
X108790476Y-61788152D01*
X108790476Y-61788152D02*
X108838095Y-61597676D01*
X108838095Y-61597676D02*
X108933333Y-61502438D01*
X108933333Y-61502438D02*
X109028571Y-61454819D01*
X109028571Y-61454819D02*
X109219047Y-61454819D01*
X109219047Y-61454819D02*
X109314285Y-61502438D01*
X109314285Y-61502438D02*
X109409523Y-61597676D01*
X109409523Y-61597676D02*
X109457142Y-61788152D01*
X109457142Y-61788152D02*
X109457142Y-62121485D01*
X109457142Y-62121485D02*
X109409523Y-62311961D01*
X109409523Y-62311961D02*
X109314285Y-62407200D01*
X109314285Y-62407200D02*
X109219047Y-62454819D01*
X109219047Y-62454819D02*
X109028571Y-62454819D01*
X110409523Y-62454819D02*
X109838095Y-62454819D01*
X110123809Y-62454819D02*
X110123809Y-61454819D01*
X110123809Y-61454819D02*
X110028571Y-61597676D01*
X110028571Y-61597676D02*
X109933333Y-61692914D01*
X109933333Y-61692914D02*
X109838095Y-61740533D01*
X109504761Y-57550057D02*
X109409523Y-57502438D01*
X109409523Y-57502438D02*
X109314285Y-57407200D01*
X109314285Y-57407200D02*
X109171428Y-57264342D01*
X109171428Y-57264342D02*
X109076190Y-57216723D01*
X109076190Y-57216723D02*
X108980952Y-57216723D01*
X109028571Y-57454819D02*
X108933333Y-57407200D01*
X108933333Y-57407200D02*
X108838095Y-57311961D01*
X108838095Y-57311961D02*
X108790476Y-57121485D01*
X108790476Y-57121485D02*
X108790476Y-56788152D01*
X108790476Y-56788152D02*
X108838095Y-56597676D01*
X108838095Y-56597676D02*
X108933333Y-56502438D01*
X108933333Y-56502438D02*
X109028571Y-56454819D01*
X109028571Y-56454819D02*
X109219047Y-56454819D01*
X109219047Y-56454819D02*
X109314285Y-56502438D01*
X109314285Y-56502438D02*
X109409523Y-56597676D01*
X109409523Y-56597676D02*
X109457142Y-56788152D01*
X109457142Y-56788152D02*
X109457142Y-57121485D01*
X109457142Y-57121485D02*
X109409523Y-57311961D01*
X109409523Y-57311961D02*
X109314285Y-57407200D01*
X109314285Y-57407200D02*
X109219047Y-57454819D01*
X109219047Y-57454819D02*
X109028571Y-57454819D01*
X110361904Y-56454819D02*
X109885714Y-56454819D01*
X109885714Y-56454819D02*
X109838095Y-56931009D01*
X109838095Y-56931009D02*
X109885714Y-56883390D01*
X109885714Y-56883390D02*
X109980952Y-56835771D01*
X109980952Y-56835771D02*
X110219047Y-56835771D01*
X110219047Y-56835771D02*
X110314285Y-56883390D01*
X110314285Y-56883390D02*
X110361904Y-56931009D01*
X110361904Y-56931009D02*
X110409523Y-57026247D01*
X110409523Y-57026247D02*
X110409523Y-57264342D01*
X110409523Y-57264342D02*
X110361904Y-57359580D01*
X110361904Y-57359580D02*
X110314285Y-57407200D01*
X110314285Y-57407200D02*
X110219047Y-57454819D01*
X110219047Y-57454819D02*
X109980952Y-57454819D01*
X109980952Y-57454819D02*
X109885714Y-57407200D01*
X109885714Y-57407200D02*
X109838095Y-57359580D01*
X105957142Y-62454819D02*
X105623809Y-61978628D01*
X105385714Y-62454819D02*
X105385714Y-61454819D01*
X105385714Y-61454819D02*
X105766666Y-61454819D01*
X105766666Y-61454819D02*
X105861904Y-61502438D01*
X105861904Y-61502438D02*
X105909523Y-61550057D01*
X105909523Y-61550057D02*
X105957142Y-61645295D01*
X105957142Y-61645295D02*
X105957142Y-61788152D01*
X105957142Y-61788152D02*
X105909523Y-61883390D01*
X105909523Y-61883390D02*
X105861904Y-61931009D01*
X105861904Y-61931009D02*
X105766666Y-61978628D01*
X105766666Y-61978628D02*
X105385714Y-61978628D01*
X106909523Y-62454819D02*
X106338095Y-62454819D01*
X106623809Y-62454819D02*
X106623809Y-61454819D01*
X106623809Y-61454819D02*
X106528571Y-61597676D01*
X106528571Y-61597676D02*
X106433333Y-61692914D01*
X106433333Y-61692914D02*
X106338095Y-61740533D01*
X107528571Y-61454819D02*
X107623809Y-61454819D01*
X107623809Y-61454819D02*
X107719047Y-61502438D01*
X107719047Y-61502438D02*
X107766666Y-61550057D01*
X107766666Y-61550057D02*
X107814285Y-61645295D01*
X107814285Y-61645295D02*
X107861904Y-61835771D01*
X107861904Y-61835771D02*
X107861904Y-62073866D01*
X107861904Y-62073866D02*
X107814285Y-62264342D01*
X107814285Y-62264342D02*
X107766666Y-62359580D01*
X107766666Y-62359580D02*
X107719047Y-62407200D01*
X107719047Y-62407200D02*
X107623809Y-62454819D01*
X107623809Y-62454819D02*
X107528571Y-62454819D01*
X107528571Y-62454819D02*
X107433333Y-62407200D01*
X107433333Y-62407200D02*
X107385714Y-62359580D01*
X107385714Y-62359580D02*
X107338095Y-62264342D01*
X107338095Y-62264342D02*
X107290476Y-62073866D01*
X107290476Y-62073866D02*
X107290476Y-61835771D01*
X107290476Y-61835771D02*
X107338095Y-61645295D01*
X107338095Y-61645295D02*
X107385714Y-61550057D01*
X107385714Y-61550057D02*
X107433333Y-61502438D01*
X107433333Y-61502438D02*
X107528571Y-61454819D01*
X99033333Y-45634580D02*
X98985714Y-45682200D01*
X98985714Y-45682200D02*
X98842857Y-45729819D01*
X98842857Y-45729819D02*
X98747619Y-45729819D01*
X98747619Y-45729819D02*
X98604762Y-45682200D01*
X98604762Y-45682200D02*
X98509524Y-45586961D01*
X98509524Y-45586961D02*
X98461905Y-45491723D01*
X98461905Y-45491723D02*
X98414286Y-45301247D01*
X98414286Y-45301247D02*
X98414286Y-45158390D01*
X98414286Y-45158390D02*
X98461905Y-44967914D01*
X98461905Y-44967914D02*
X98509524Y-44872676D01*
X98509524Y-44872676D02*
X98604762Y-44777438D01*
X98604762Y-44777438D02*
X98747619Y-44729819D01*
X98747619Y-44729819D02*
X98842857Y-44729819D01*
X98842857Y-44729819D02*
X98985714Y-44777438D01*
X98985714Y-44777438D02*
X99033333Y-44825057D01*
X99366667Y-44729819D02*
X99985714Y-44729819D01*
X99985714Y-44729819D02*
X99652381Y-45110771D01*
X99652381Y-45110771D02*
X99795238Y-45110771D01*
X99795238Y-45110771D02*
X99890476Y-45158390D01*
X99890476Y-45158390D02*
X99938095Y-45206009D01*
X99938095Y-45206009D02*
X99985714Y-45301247D01*
X99985714Y-45301247D02*
X99985714Y-45539342D01*
X99985714Y-45539342D02*
X99938095Y-45634580D01*
X99938095Y-45634580D02*
X99890476Y-45682200D01*
X99890476Y-45682200D02*
X99795238Y-45729819D01*
X99795238Y-45729819D02*
X99509524Y-45729819D01*
X99509524Y-45729819D02*
X99414286Y-45682200D01*
X99414286Y-45682200D02*
X99366667Y-45634580D01*
X109479761Y-72587557D02*
X109384523Y-72539938D01*
X109384523Y-72539938D02*
X109289285Y-72444700D01*
X109289285Y-72444700D02*
X109146428Y-72301842D01*
X109146428Y-72301842D02*
X109051190Y-72254223D01*
X109051190Y-72254223D02*
X108955952Y-72254223D01*
X109003571Y-72492319D02*
X108908333Y-72444700D01*
X108908333Y-72444700D02*
X108813095Y-72349461D01*
X108813095Y-72349461D02*
X108765476Y-72158985D01*
X108765476Y-72158985D02*
X108765476Y-71825652D01*
X108765476Y-71825652D02*
X108813095Y-71635176D01*
X108813095Y-71635176D02*
X108908333Y-71539938D01*
X108908333Y-71539938D02*
X109003571Y-71492319D01*
X109003571Y-71492319D02*
X109194047Y-71492319D01*
X109194047Y-71492319D02*
X109289285Y-71539938D01*
X109289285Y-71539938D02*
X109384523Y-71635176D01*
X109384523Y-71635176D02*
X109432142Y-71825652D01*
X109432142Y-71825652D02*
X109432142Y-72158985D01*
X109432142Y-72158985D02*
X109384523Y-72349461D01*
X109384523Y-72349461D02*
X109289285Y-72444700D01*
X109289285Y-72444700D02*
X109194047Y-72492319D01*
X109194047Y-72492319D02*
X109003571Y-72492319D01*
X109765476Y-71492319D02*
X110384523Y-71492319D01*
X110384523Y-71492319D02*
X110051190Y-71873271D01*
X110051190Y-71873271D02*
X110194047Y-71873271D01*
X110194047Y-71873271D02*
X110289285Y-71920890D01*
X110289285Y-71920890D02*
X110336904Y-71968509D01*
X110336904Y-71968509D02*
X110384523Y-72063747D01*
X110384523Y-72063747D02*
X110384523Y-72301842D01*
X110384523Y-72301842D02*
X110336904Y-72397080D01*
X110336904Y-72397080D02*
X110289285Y-72444700D01*
X110289285Y-72444700D02*
X110194047Y-72492319D01*
X110194047Y-72492319D02*
X109908333Y-72492319D01*
X109908333Y-72492319D02*
X109813095Y-72444700D01*
X109813095Y-72444700D02*
X109765476Y-72397080D01*
X111933333Y-62454819D02*
X111600000Y-61978628D01*
X111361905Y-62454819D02*
X111361905Y-61454819D01*
X111361905Y-61454819D02*
X111742857Y-61454819D01*
X111742857Y-61454819D02*
X111838095Y-61502438D01*
X111838095Y-61502438D02*
X111885714Y-61550057D01*
X111885714Y-61550057D02*
X111933333Y-61645295D01*
X111933333Y-61645295D02*
X111933333Y-61788152D01*
X111933333Y-61788152D02*
X111885714Y-61883390D01*
X111885714Y-61883390D02*
X111838095Y-61931009D01*
X111838095Y-61931009D02*
X111742857Y-61978628D01*
X111742857Y-61978628D02*
X111361905Y-61978628D01*
X112409524Y-62454819D02*
X112600000Y-62454819D01*
X112600000Y-62454819D02*
X112695238Y-62407200D01*
X112695238Y-62407200D02*
X112742857Y-62359580D01*
X112742857Y-62359580D02*
X112838095Y-62216723D01*
X112838095Y-62216723D02*
X112885714Y-62026247D01*
X112885714Y-62026247D02*
X112885714Y-61645295D01*
X112885714Y-61645295D02*
X112838095Y-61550057D01*
X112838095Y-61550057D02*
X112790476Y-61502438D01*
X112790476Y-61502438D02*
X112695238Y-61454819D01*
X112695238Y-61454819D02*
X112504762Y-61454819D01*
X112504762Y-61454819D02*
X112409524Y-61502438D01*
X112409524Y-61502438D02*
X112361905Y-61550057D01*
X112361905Y-61550057D02*
X112314286Y-61645295D01*
X112314286Y-61645295D02*
X112314286Y-61883390D01*
X112314286Y-61883390D02*
X112361905Y-61978628D01*
X112361905Y-61978628D02*
X112409524Y-62026247D01*
X112409524Y-62026247D02*
X112504762Y-62073866D01*
X112504762Y-62073866D02*
X112695238Y-62073866D01*
X112695238Y-62073866D02*
X112790476Y-62026247D01*
X112790476Y-62026247D02*
X112838095Y-61978628D01*
X112838095Y-61978628D02*
X112885714Y-61883390D01*
X96163095Y-44704819D02*
X96163095Y-45514342D01*
X96163095Y-45514342D02*
X96210714Y-45609580D01*
X96210714Y-45609580D02*
X96258333Y-45657200D01*
X96258333Y-45657200D02*
X96353571Y-45704819D01*
X96353571Y-45704819D02*
X96544047Y-45704819D01*
X96544047Y-45704819D02*
X96639285Y-45657200D01*
X96639285Y-45657200D02*
X96686904Y-45609580D01*
X96686904Y-45609580D02*
X96734523Y-45514342D01*
X96734523Y-45514342D02*
X96734523Y-44704819D01*
X97115476Y-44704819D02*
X97734523Y-44704819D01*
X97734523Y-44704819D02*
X97401190Y-45085771D01*
X97401190Y-45085771D02*
X97544047Y-45085771D01*
X97544047Y-45085771D02*
X97639285Y-45133390D01*
X97639285Y-45133390D02*
X97686904Y-45181009D01*
X97686904Y-45181009D02*
X97734523Y-45276247D01*
X97734523Y-45276247D02*
X97734523Y-45514342D01*
X97734523Y-45514342D02*
X97686904Y-45609580D01*
X97686904Y-45609580D02*
X97639285Y-45657200D01*
X97639285Y-45657200D02*
X97544047Y-45704819D01*
X97544047Y-45704819D02*
X97258333Y-45704819D01*
X97258333Y-45704819D02*
X97163095Y-45657200D01*
X97163095Y-45657200D02*
X97115476Y-45609580D01*
X130586666Y-51674819D02*
X130586666Y-52389104D01*
X130586666Y-52389104D02*
X130539047Y-52531961D01*
X130539047Y-52531961D02*
X130443809Y-52627200D01*
X130443809Y-52627200D02*
X130300952Y-52674819D01*
X130300952Y-52674819D02*
X130205714Y-52674819D01*
X131586666Y-52674819D02*
X131015238Y-52674819D01*
X131300952Y-52674819D02*
X131300952Y-51674819D01*
X131300952Y-51674819D02*
X131205714Y-51817676D01*
X131205714Y-51817676D02*
X131110476Y-51912914D01*
X131110476Y-51912914D02*
X131015238Y-51960533D01*
X109504761Y-67550057D02*
X109409523Y-67502438D01*
X109409523Y-67502438D02*
X109314285Y-67407200D01*
X109314285Y-67407200D02*
X109171428Y-67264342D01*
X109171428Y-67264342D02*
X109076190Y-67216723D01*
X109076190Y-67216723D02*
X108980952Y-67216723D01*
X109028571Y-67454819D02*
X108933333Y-67407200D01*
X108933333Y-67407200D02*
X108838095Y-67311961D01*
X108838095Y-67311961D02*
X108790476Y-67121485D01*
X108790476Y-67121485D02*
X108790476Y-66788152D01*
X108790476Y-66788152D02*
X108838095Y-66597676D01*
X108838095Y-66597676D02*
X108933333Y-66502438D01*
X108933333Y-66502438D02*
X109028571Y-66454819D01*
X109028571Y-66454819D02*
X109219047Y-66454819D01*
X109219047Y-66454819D02*
X109314285Y-66502438D01*
X109314285Y-66502438D02*
X109409523Y-66597676D01*
X109409523Y-66597676D02*
X109457142Y-66788152D01*
X109457142Y-66788152D02*
X109457142Y-67121485D01*
X109457142Y-67121485D02*
X109409523Y-67311961D01*
X109409523Y-67311961D02*
X109314285Y-67407200D01*
X109314285Y-67407200D02*
X109219047Y-67454819D01*
X109219047Y-67454819D02*
X109028571Y-67454819D01*
X109838095Y-66550057D02*
X109885714Y-66502438D01*
X109885714Y-66502438D02*
X109980952Y-66454819D01*
X109980952Y-66454819D02*
X110219047Y-66454819D01*
X110219047Y-66454819D02*
X110314285Y-66502438D01*
X110314285Y-66502438D02*
X110361904Y-66550057D01*
X110361904Y-66550057D02*
X110409523Y-66645295D01*
X110409523Y-66645295D02*
X110409523Y-66740533D01*
X110409523Y-66740533D02*
X110361904Y-66883390D01*
X110361904Y-66883390D02*
X109790476Y-67454819D01*
X109790476Y-67454819D02*
X110409523Y-67454819D01*
X114883333Y-48459580D02*
X114835714Y-48507200D01*
X114835714Y-48507200D02*
X114692857Y-48554819D01*
X114692857Y-48554819D02*
X114597619Y-48554819D01*
X114597619Y-48554819D02*
X114454762Y-48507200D01*
X114454762Y-48507200D02*
X114359524Y-48411961D01*
X114359524Y-48411961D02*
X114311905Y-48316723D01*
X114311905Y-48316723D02*
X114264286Y-48126247D01*
X114264286Y-48126247D02*
X114264286Y-47983390D01*
X114264286Y-47983390D02*
X114311905Y-47792914D01*
X114311905Y-47792914D02*
X114359524Y-47697676D01*
X114359524Y-47697676D02*
X114454762Y-47602438D01*
X114454762Y-47602438D02*
X114597619Y-47554819D01*
X114597619Y-47554819D02*
X114692857Y-47554819D01*
X114692857Y-47554819D02*
X114835714Y-47602438D01*
X114835714Y-47602438D02*
X114883333Y-47650057D01*
X115835714Y-48554819D02*
X115264286Y-48554819D01*
X115550000Y-48554819D02*
X115550000Y-47554819D01*
X115550000Y-47554819D02*
X115454762Y-47697676D01*
X115454762Y-47697676D02*
X115359524Y-47792914D01*
X115359524Y-47792914D02*
X115264286Y-47840533D01*
X101793095Y-59739819D02*
X101793095Y-60549342D01*
X101793095Y-60549342D02*
X101840714Y-60644580D01*
X101840714Y-60644580D02*
X101888333Y-60692200D01*
X101888333Y-60692200D02*
X101983571Y-60739819D01*
X101983571Y-60739819D02*
X102174047Y-60739819D01*
X102174047Y-60739819D02*
X102269285Y-60692200D01*
X102269285Y-60692200D02*
X102316904Y-60644580D01*
X102316904Y-60644580D02*
X102364523Y-60549342D01*
X102364523Y-60549342D02*
X102364523Y-59739819D01*
X102793095Y-59835057D02*
X102840714Y-59787438D01*
X102840714Y-59787438D02*
X102935952Y-59739819D01*
X102935952Y-59739819D02*
X103174047Y-59739819D01*
X103174047Y-59739819D02*
X103269285Y-59787438D01*
X103269285Y-59787438D02*
X103316904Y-59835057D01*
X103316904Y-59835057D02*
X103364523Y-59930295D01*
X103364523Y-59930295D02*
X103364523Y-60025533D01*
X103364523Y-60025533D02*
X103316904Y-60168390D01*
X103316904Y-60168390D02*
X102745476Y-60739819D01*
X102745476Y-60739819D02*
X103364523Y-60739819D01*
X105457142Y-57454819D02*
X105123809Y-56978628D01*
X104885714Y-57454819D02*
X104885714Y-56454819D01*
X104885714Y-56454819D02*
X105266666Y-56454819D01*
X105266666Y-56454819D02*
X105361904Y-56502438D01*
X105361904Y-56502438D02*
X105409523Y-56550057D01*
X105409523Y-56550057D02*
X105457142Y-56645295D01*
X105457142Y-56645295D02*
X105457142Y-56788152D01*
X105457142Y-56788152D02*
X105409523Y-56883390D01*
X105409523Y-56883390D02*
X105361904Y-56931009D01*
X105361904Y-56931009D02*
X105266666Y-56978628D01*
X105266666Y-56978628D02*
X104885714Y-56978628D01*
X106409523Y-57454819D02*
X105838095Y-57454819D01*
X106123809Y-57454819D02*
X106123809Y-56454819D01*
X106123809Y-56454819D02*
X106028571Y-56597676D01*
X106028571Y-56597676D02*
X105933333Y-56692914D01*
X105933333Y-56692914D02*
X105838095Y-56740533D01*
X106980952Y-56883390D02*
X106885714Y-56835771D01*
X106885714Y-56835771D02*
X106838095Y-56788152D01*
X106838095Y-56788152D02*
X106790476Y-56692914D01*
X106790476Y-56692914D02*
X106790476Y-56645295D01*
X106790476Y-56645295D02*
X106838095Y-56550057D01*
X106838095Y-56550057D02*
X106885714Y-56502438D01*
X106885714Y-56502438D02*
X106980952Y-56454819D01*
X106980952Y-56454819D02*
X107171428Y-56454819D01*
X107171428Y-56454819D02*
X107266666Y-56502438D01*
X107266666Y-56502438D02*
X107314285Y-56550057D01*
X107314285Y-56550057D02*
X107361904Y-56645295D01*
X107361904Y-56645295D02*
X107361904Y-56692914D01*
X107361904Y-56692914D02*
X107314285Y-56788152D01*
X107314285Y-56788152D02*
X107266666Y-56835771D01*
X107266666Y-56835771D02*
X107171428Y-56883390D01*
X107171428Y-56883390D02*
X106980952Y-56883390D01*
X106980952Y-56883390D02*
X106885714Y-56931009D01*
X106885714Y-56931009D02*
X106838095Y-56978628D01*
X106838095Y-56978628D02*
X106790476Y-57073866D01*
X106790476Y-57073866D02*
X106790476Y-57264342D01*
X106790476Y-57264342D02*
X106838095Y-57359580D01*
X106838095Y-57359580D02*
X106885714Y-57407200D01*
X106885714Y-57407200D02*
X106980952Y-57454819D01*
X106980952Y-57454819D02*
X107171428Y-57454819D01*
X107171428Y-57454819D02*
X107266666Y-57407200D01*
X107266666Y-57407200D02*
X107314285Y-57359580D01*
X107314285Y-57359580D02*
X107361904Y-57264342D01*
X107361904Y-57264342D02*
X107361904Y-57073866D01*
X107361904Y-57073866D02*
X107314285Y-56978628D01*
X107314285Y-56978628D02*
X107266666Y-56931009D01*
X107266666Y-56931009D02*
X107171428Y-56883390D01*
D11*
%TO.C,R3*%
X124077064Y-46735000D02*
X123622936Y-46735000D01*
X124077064Y-45265000D02*
X123622936Y-45265000D01*
%TO.C,R11*%
X111365000Y-64639564D02*
X111365000Y-64185436D01*
X112835000Y-64639564D02*
X112835000Y-64185436D01*
%TO.C,D51*%
X78392616Y-66867417D02*
X79750261Y-68225062D01*
X79750261Y-68225062D02*
X81648842Y-66326481D01*
X80291197Y-64968836D02*
X78392616Y-66867417D01*
%TO.C,R2*%
X124077064Y-48735000D02*
X123622936Y-48735000D01*
X124077064Y-47265000D02*
X123622936Y-47265000D01*
%TO.C,R8*%
X91564953Y-59977922D02*
X91886070Y-59656805D01*
X92604400Y-61017369D02*
X92925517Y-60696252D01*
%TO.C,D9*%
X66392616Y-51849739D02*
X67750261Y-53207384D01*
X67750261Y-53207384D02*
X69648842Y-51308803D01*
X68291197Y-49951158D02*
X66392616Y-51849739D01*
%TO.C,D41*%
X72392616Y-60849739D02*
X73750261Y-62207384D01*
X73750261Y-62207384D02*
X75648842Y-60308803D01*
X74291197Y-58951158D02*
X72392616Y-60849739D01*
%TO.C,R15*%
X91564953Y-62977922D02*
X91886070Y-62656805D01*
X92604400Y-64017369D02*
X92925517Y-63696252D01*
%TO.C,D36*%
X66392616Y-69975565D02*
X67750261Y-71333210D01*
X67750261Y-71333210D02*
X69648842Y-69434629D01*
X68291197Y-68076984D02*
X66392616Y-69975565D01*
%TO.C,R6*%
X91564953Y-53977922D02*
X91886070Y-53656805D01*
X92604400Y-55017369D02*
X92925517Y-54696252D01*
%TO.C,R17*%
X111365000Y-54727064D02*
X111365000Y-54272936D01*
X112835000Y-54727064D02*
X112835000Y-54272936D01*
%TO.C,D25*%
X78392616Y-54849739D02*
X79750261Y-56207384D01*
X79750261Y-56207384D02*
X81648842Y-54308803D01*
X80291197Y-52951158D02*
X78392616Y-54849739D01*
%TO.C,C2*%
X103285000Y-57963748D02*
X103285000Y-58486252D01*
X101815000Y-57963748D02*
X101815000Y-58486252D01*
%TO.C,D43*%
X72392616Y-66867417D02*
X73750261Y-68225062D01*
X73750261Y-68225062D02*
X75648842Y-66326481D01*
X74291197Y-64968836D02*
X72392616Y-66867417D01*
%TO.C,U4*%
X107750000Y-44090000D02*
X111510000Y-44090000D01*
X107750000Y-50910000D02*
X111510000Y-50910000D01*
X111510000Y-44090000D02*
X111510000Y-45350000D01*
X111510000Y-50910000D02*
X111510000Y-49650000D01*
X106470000Y-44190000D02*
X106230000Y-43860000D01*
X106710000Y-43860000D01*
X106470000Y-44190000D01*
G36*
X106470000Y-44190000D02*
G01*
X106230000Y-43860000D01*
X106710000Y-43860000D01*
X106470000Y-44190000D01*
G37*
%TO.C,D15*%
X84392616Y-51849739D02*
X85750261Y-53207384D01*
X85750261Y-53207384D02*
X87648842Y-51308803D01*
X86291197Y-49951158D02*
X84392616Y-51849739D01*
%TO.C,R5*%
X91564953Y-50977922D02*
X91886070Y-50656805D01*
X92604400Y-52017369D02*
X92925517Y-51696252D01*
%TO.C,D63*%
X87392616Y-66867417D02*
X88750261Y-68225062D01*
X88750261Y-68225062D02*
X90648842Y-66326481D01*
X89291197Y-64968836D02*
X87392616Y-66867417D01*
%TO.C,D10*%
X69392616Y-51849739D02*
X70750261Y-53207384D01*
X70750261Y-53207384D02*
X72648842Y-51308803D01*
X71291197Y-49951158D02*
X69392616Y-51849739D01*
%TO.C,D61*%
X87392616Y-60849739D02*
X88750261Y-62207384D01*
X88750261Y-62207384D02*
X90648842Y-60308803D01*
X89291197Y-58951158D02*
X87392616Y-60849739D01*
%TO.C,D8*%
X87392616Y-48849739D02*
X88750261Y-50207384D01*
X88750261Y-50207384D02*
X90648842Y-48308803D01*
X89291197Y-46951158D02*
X87392616Y-48849739D01*
%TO.C,D38*%
X69392616Y-63849739D02*
X70750261Y-65207384D01*
X70750261Y-65207384D02*
X72648842Y-63308803D01*
X71291197Y-61951158D02*
X69392616Y-63849739D01*
%TO.C,D58*%
X84392616Y-63849739D02*
X85750261Y-65207384D01*
X85750261Y-65207384D02*
X87648842Y-63308803D01*
X86291197Y-61951158D02*
X84392616Y-63849739D01*
%TO.C,D28*%
X81392616Y-57849739D02*
X82750261Y-59207384D01*
X82750261Y-59207384D02*
X84648842Y-57308803D01*
X83291197Y-55951158D02*
X81392616Y-57849739D01*
%TO.C,D7*%
X84352616Y-48849739D02*
X85710261Y-50207384D01*
X85710261Y-50207384D02*
X87608842Y-48308803D01*
X86251197Y-46951158D02*
X84352616Y-48849739D01*
%TO.C,D34*%
X66392616Y-63849739D02*
X67750261Y-65207384D01*
X67750261Y-65207384D02*
X69648842Y-63308803D01*
X68291197Y-61951158D02*
X66392616Y-63849739D01*
%TO.C,D27*%
X81392616Y-54849739D02*
X82750261Y-56207384D01*
X82750261Y-56207384D02*
X84648842Y-54308803D01*
X83291197Y-52951158D02*
X81392616Y-54849739D01*
%TO.C,D62*%
X87392616Y-63849739D02*
X88750261Y-65207384D01*
X88750261Y-65207384D02*
X90648842Y-63308803D01*
X89291197Y-61951158D02*
X87392616Y-63849739D01*
%TO.C,D40*%
X69392616Y-69975565D02*
X70750261Y-71333210D01*
X70750261Y-71333210D02*
X72648842Y-69434629D01*
X71291197Y-68076984D02*
X69392616Y-69975565D01*
%TO.C,D50*%
X78392616Y-63849739D02*
X79750261Y-65207384D01*
X79750261Y-65207384D02*
X81648842Y-63308803D01*
X80291197Y-61951158D02*
X78392616Y-63849739D01*
%TO.C,D48*%
X75392616Y-69975565D02*
X76750261Y-71333210D01*
X76750261Y-71333210D02*
X78648842Y-69434629D01*
X77291197Y-68076984D02*
X75392616Y-69975565D01*
%TO.C,D13*%
X78392616Y-51849739D02*
X79750261Y-53207384D01*
X79750261Y-53207384D02*
X81648842Y-51308803D01*
X80291197Y-49951158D02*
X78392616Y-51849739D01*
%TO.C,D33*%
X66392616Y-60849739D02*
X67750261Y-62207384D01*
X67750261Y-62207384D02*
X69648842Y-60308803D01*
X68291197Y-58951158D02*
X66392616Y-60849739D01*
%TO.C,R1*%
X124077064Y-50735000D02*
X123622936Y-50735000D01*
X124077064Y-49265000D02*
X123622936Y-49265000D01*
%TO.C,R14*%
X106810000Y-69222936D02*
X106810000Y-69677064D01*
X105340000Y-69222936D02*
X105340000Y-69677064D01*
%TO.C,D32*%
X87392616Y-57849739D02*
X88750261Y-59207384D01*
X88750261Y-59207384D02*
X90648842Y-57308803D01*
X89291197Y-55951158D02*
X87392616Y-57849739D01*
%TO.C,D19*%
X69392616Y-54849739D02*
X70750261Y-56207384D01*
X70750261Y-56207384D02*
X72648842Y-54308803D01*
X71291197Y-52951158D02*
X69392616Y-54849739D01*
%TO.C,D45*%
X75392616Y-60849739D02*
X76750261Y-62207384D01*
X76750261Y-62207384D02*
X78648842Y-60308803D01*
X77291197Y-58951158D02*
X75392616Y-60849739D01*
%TO.C,D17*%
X66392616Y-54849739D02*
X67750261Y-56207384D01*
X67750261Y-56207384D02*
X69648842Y-54308803D01*
X68291197Y-52951158D02*
X66392616Y-54849739D01*
%TO.C,C4*%
X115860000Y-54238748D02*
X115860000Y-54761252D01*
X114390000Y-54238748D02*
X114390000Y-54761252D01*
%TO.C,D60*%
X84392616Y-69975565D02*
X85750261Y-71333210D01*
X85750261Y-71333210D02*
X87648842Y-69434629D01*
X86291197Y-68076984D02*
X84392616Y-69975565D01*
%TO.C,R13*%
X111340000Y-69677064D02*
X111340000Y-69222936D01*
X112810000Y-69677064D02*
X112810000Y-69222936D01*
%TO.C,D14*%
X81392616Y-51849739D02*
X82750261Y-53207384D01*
X82750261Y-53207384D02*
X84648842Y-51308803D01*
X83291197Y-49951158D02*
X81392616Y-51849739D01*
%TO.C,D22*%
X72392616Y-57849739D02*
X73750261Y-59207384D01*
X73750261Y-59207384D02*
X75648842Y-57308803D01*
X74291197Y-55951158D02*
X72392616Y-57849739D01*
%TO.C,R12*%
X106835000Y-64185436D02*
X106835000Y-64639564D01*
X105365000Y-64185436D02*
X105365000Y-64639564D01*
%TO.C,D5*%
X78392616Y-48849739D02*
X79750261Y-50207384D01*
X79750261Y-50207384D02*
X81648842Y-48308803D01*
X80291197Y-46951158D02*
X78392616Y-48849739D01*
%TO.C,D37*%
X69392616Y-60849739D02*
X70750261Y-62207384D01*
X70750261Y-62207384D02*
X72648842Y-60308803D01*
X71291197Y-58951158D02*
X69392616Y-60849739D01*
%TO.C,D44*%
X72392616Y-69975565D02*
X73750261Y-71333210D01*
X73750261Y-71333210D02*
X75648842Y-69434629D01*
X74291197Y-68076984D02*
X72392616Y-69975565D01*
%TO.C,U1*%
X142860000Y-53400000D02*
X136660000Y-53400000D01*
X142860000Y-53400000D02*
X142860000Y-71800000D01*
X118010000Y-53400000D02*
X117010000Y-53400000D01*
X117010000Y-53400000D02*
X117010000Y-54900000D01*
X142860000Y-71800000D02*
X136660000Y-71800000D01*
X117010000Y-71800000D02*
X117010000Y-70300000D01*
X117010000Y-71800000D02*
X118010000Y-71800000D01*
X136485000Y-53400000D02*
X135985000Y-53400000D01*
X135985000Y-52900000D01*
X136485000Y-53400000D01*
G36*
X136485000Y-53400000D02*
G01*
X135985000Y-53400000D01*
X135985000Y-52900000D01*
X136485000Y-53400000D01*
G37*
%TO.C,D11*%
X72392616Y-51849739D02*
X73750261Y-53207384D01*
X73750261Y-53207384D02*
X75648842Y-51308803D01*
X74291197Y-49951158D02*
X72392616Y-51849739D01*
%TO.C,Q1*%
X110660000Y-59475000D02*
X110660000Y-58825000D01*
X110660000Y-59475000D02*
X110660000Y-60125000D01*
X107540000Y-59475000D02*
X107540000Y-58825000D01*
X107540000Y-59475000D02*
X107540000Y-60125000D01*
X110940000Y-58552500D02*
X110610000Y-58312500D01*
X110940000Y-58072500D01*
X110940000Y-58552500D01*
G36*
X110940000Y-58552500D02*
G01*
X110610000Y-58312500D01*
X110940000Y-58072500D01*
X110940000Y-58552500D01*
G37*
%TO.C,Q5*%
X110660000Y-54562500D02*
X110660000Y-53912500D01*
X110660000Y-54562500D02*
X110660000Y-55212500D01*
X107540000Y-54562500D02*
X107540000Y-53912500D01*
X107540000Y-54562500D02*
X107540000Y-55212500D01*
X110940000Y-53640000D02*
X110610000Y-53400000D01*
X110940000Y-53160000D01*
X110940000Y-53640000D01*
G36*
X110940000Y-53640000D02*
G01*
X110610000Y-53400000D01*
X110940000Y-53160000D01*
X110940000Y-53640000D01*
G37*
%TO.C,D55*%
X81392616Y-66867417D02*
X82750261Y-68225062D01*
X82750261Y-68225062D02*
X84648842Y-66326481D01*
X83291197Y-64968836D02*
X81392616Y-66867417D01*
%TO.C,R10*%
X106835000Y-59097936D02*
X106835000Y-59552064D01*
X105365000Y-59097936D02*
X105365000Y-59552064D01*
%TO.C,C3*%
X102086252Y-45860000D02*
X101563748Y-45860000D01*
X102086252Y-44390000D02*
X101563748Y-44390000D01*
%TO.C,D29*%
X84392616Y-54849739D02*
X85750261Y-56207384D01*
X85750261Y-56207384D02*
X87648842Y-54308803D01*
X86291197Y-52951158D02*
X84392616Y-54849739D01*
%TO.C,D39*%
X69392616Y-66867417D02*
X70750261Y-68225062D01*
X70750261Y-68225062D02*
X72648842Y-66326481D01*
X71291197Y-64968836D02*
X69392616Y-66867417D01*
%TO.C,D47*%
X75392616Y-66867417D02*
X76750261Y-68225062D01*
X76750261Y-68225062D02*
X78648842Y-66326481D01*
X77291197Y-64968836D02*
X75392616Y-66867417D01*
%TO.C,D46*%
X75392616Y-63849739D02*
X76750261Y-65207384D01*
X76750261Y-65207384D02*
X78648842Y-63308803D01*
X77291197Y-61951158D02*
X75392616Y-63849739D01*
%TO.C,D35*%
X66392616Y-66867417D02*
X67750261Y-68225062D01*
X67750261Y-68225062D02*
X69648842Y-66326481D01*
X68291197Y-64968836D02*
X66392616Y-66867417D01*
%TO.C,Q3*%
X110635000Y-69537500D02*
X110635000Y-68887500D01*
X110635000Y-69537500D02*
X110635000Y-70187500D01*
X107515000Y-69537500D02*
X107515000Y-68887500D01*
X107515000Y-69537500D02*
X107515000Y-70187500D01*
X110915000Y-68615000D02*
X110585000Y-68375000D01*
X110915000Y-68135000D01*
X110915000Y-68615000D01*
G36*
X110915000Y-68615000D02*
G01*
X110585000Y-68375000D01*
X110915000Y-68135000D01*
X110915000Y-68615000D01*
G37*
%TO.C,D6*%
X81312616Y-48849739D02*
X82670261Y-50207384D01*
X82670261Y-50207384D02*
X84568842Y-48308803D01*
X83211197Y-46951158D02*
X81312616Y-48849739D01*
%TO.C,R9*%
X111365000Y-59639564D02*
X111365000Y-59185436D01*
X112835000Y-59639564D02*
X112835000Y-59185436D01*
%TO.C,U3*%
X99825000Y-46260000D02*
X97875000Y-46260000D01*
X99825000Y-46260000D02*
X101775000Y-46260000D01*
X99825000Y-56380000D02*
X97875000Y-56380000D01*
X99825000Y-56380000D02*
X101775000Y-56380000D01*
X97125000Y-46315000D02*
X96885000Y-45985000D01*
X97365000Y-45985000D01*
X97125000Y-46315000D01*
G36*
X97125000Y-46315000D02*
G01*
X96885000Y-45985000D01*
X97365000Y-45985000D01*
X97125000Y-46315000D01*
G37*
%TO.C,J1*%
X135620000Y-48355000D02*
X135620000Y-46575000D01*
X133720000Y-51275000D02*
X134520000Y-51275000D01*
X126220000Y-48355000D02*
X126220000Y-46575000D01*
%TO.C,D26*%
X78392616Y-57849739D02*
X79750261Y-59207384D01*
X79750261Y-59207384D02*
X81648842Y-57308803D01*
X80291197Y-55951158D02*
X78392616Y-57849739D01*
%TO.C,D1*%
X66312616Y-48849739D02*
X67670261Y-50207384D01*
X67670261Y-50207384D02*
X69568842Y-48308803D01*
X68211197Y-46951158D02*
X66312616Y-48849739D01*
%TO.C,D23*%
X75392616Y-54849739D02*
X76750261Y-56207384D01*
X76750261Y-56207384D02*
X78648842Y-54308803D01*
X77291197Y-52951158D02*
X75392616Y-54849739D01*
%TO.C,D24*%
X75392616Y-57849739D02*
X76750261Y-59207384D01*
X76750261Y-59207384D02*
X78648842Y-57308803D01*
X77291197Y-55951158D02*
X75392616Y-57849739D01*
%TO.C,D64*%
X87392616Y-69975565D02*
X88750261Y-71333210D01*
X88750261Y-71333210D02*
X90648842Y-69434629D01*
X89291197Y-68076984D02*
X87392616Y-69975565D01*
%TO.C,D16*%
X87392616Y-51849739D02*
X88750261Y-53207384D01*
X88750261Y-53207384D02*
X90648842Y-51308803D01*
X89291197Y-49951158D02*
X87392616Y-51849739D01*
%TO.C,R7*%
X91564953Y-56977922D02*
X91886070Y-56656805D01*
X92604400Y-58017369D02*
X92925517Y-57696252D01*
%TO.C,Q2*%
X110610000Y-64437500D02*
X110610000Y-63787500D01*
X110610000Y-64437500D02*
X110610000Y-65087500D01*
X107490000Y-64437500D02*
X107490000Y-63787500D01*
X107490000Y-64437500D02*
X107490000Y-65087500D01*
X110890000Y-63515000D02*
X110560000Y-63275000D01*
X110890000Y-63035000D01*
X110890000Y-63515000D01*
G36*
X110890000Y-63515000D02*
G01*
X110560000Y-63275000D01*
X110890000Y-63035000D01*
X110890000Y-63515000D01*
G37*
%TO.C,D59*%
X84392616Y-66867417D02*
X85750261Y-68225062D01*
X85750261Y-68225062D02*
X87648842Y-66326481D01*
X86291197Y-64968836D02*
X84392616Y-66867417D01*
%TO.C,D54*%
X81392616Y-63849739D02*
X82750261Y-65207384D01*
X82750261Y-65207384D02*
X84648842Y-63308803D01*
X83291197Y-61951158D02*
X81392616Y-63849739D01*
%TO.C,D12*%
X75392616Y-51849739D02*
X76750261Y-53207384D01*
X76750261Y-53207384D02*
X78648842Y-51308803D01*
X77291197Y-49951158D02*
X75392616Y-51849739D01*
%TO.C,C1*%
X114315000Y-45861252D02*
X114315000Y-45338748D01*
X115785000Y-45861252D02*
X115785000Y-45338748D01*
%TO.C,D20*%
X69392616Y-57849739D02*
X70750261Y-59207384D01*
X70750261Y-59207384D02*
X72648842Y-57308803D01*
X71291197Y-55951158D02*
X69392616Y-57849739D01*
%TO.C,D42*%
X72392616Y-63849739D02*
X73750261Y-65207384D01*
X73750261Y-65207384D02*
X75648842Y-63308803D01*
X74291197Y-61951158D02*
X72392616Y-63849739D01*
%TO.C,R19*%
X91564953Y-69103748D02*
X91886070Y-68782631D01*
X92604400Y-70143195D02*
X92925517Y-69822078D01*
%TO.C,U2*%
X99830000Y-61245000D02*
X97880000Y-61245000D01*
X99830000Y-61245000D02*
X101780000Y-61245000D01*
X99830000Y-71365000D02*
X97880000Y-71365000D01*
X99830000Y-71365000D02*
X101780000Y-71365000D01*
X97130000Y-61300000D02*
X96890000Y-60970000D01*
X97370000Y-60970000D01*
X97130000Y-61300000D01*
G36*
X97130000Y-61300000D02*
G01*
X96890000Y-60970000D01*
X97370000Y-60970000D01*
X97130000Y-61300000D01*
G37*
%TO.C,D3*%
X72312616Y-48849739D02*
X73670261Y-50207384D01*
X73670261Y-50207384D02*
X75568842Y-48308803D01*
X74211197Y-46951158D02*
X72312616Y-48849739D01*
%TO.C,D31*%
X87392616Y-54849739D02*
X88750261Y-56207384D01*
X88750261Y-56207384D02*
X90648842Y-54308803D01*
X89291197Y-52951158D02*
X87392616Y-54849739D01*
%TO.C,D53*%
X81392616Y-60849739D02*
X82750261Y-62207384D01*
X82750261Y-62207384D02*
X84648842Y-60308803D01*
X83291197Y-58951158D02*
X81392616Y-60849739D01*
%TO.C,D2*%
X69272616Y-48849739D02*
X70630261Y-50207384D01*
X70630261Y-50207384D02*
X72528842Y-48308803D01*
X71171197Y-46951158D02*
X69272616Y-48849739D01*
%TO.C,D30*%
X84392616Y-57849739D02*
X85750261Y-59207384D01*
X85750261Y-59207384D02*
X87648842Y-57308803D01*
X86291197Y-55951158D02*
X84392616Y-57849739D01*
%TO.C,D56*%
X81392616Y-69975565D02*
X82750261Y-71333210D01*
X82750261Y-71333210D02*
X84648842Y-69434629D01*
X83291197Y-68076984D02*
X81392616Y-69975565D01*
%TO.C,D18*%
X66392616Y-57849739D02*
X67750261Y-59207384D01*
X67750261Y-59207384D02*
X69648842Y-57308803D01*
X68291197Y-55951158D02*
X66392616Y-57849739D01*
%TO.C,R16*%
X91564953Y-65995600D02*
X91886070Y-65674483D01*
X92604400Y-67035047D02*
X92925517Y-66713930D01*
%TO.C,D57*%
X84392616Y-60849739D02*
X85750261Y-62207384D01*
X85750261Y-62207384D02*
X87648842Y-60308803D01*
X86291197Y-58951158D02*
X84392616Y-60849739D01*
%TO.C,D52*%
X78392616Y-69975565D02*
X79750261Y-71333210D01*
X79750261Y-71333210D02*
X81648842Y-69434629D01*
X80291197Y-68076984D02*
X78392616Y-69975565D01*
%TO.C,D4*%
X75352616Y-48849739D02*
X76710261Y-50207384D01*
X76710261Y-50207384D02*
X78608842Y-48308803D01*
X77251197Y-46951158D02*
X75352616Y-48849739D01*
%TO.C,D49*%
X78392616Y-60849739D02*
X79750261Y-62207384D01*
X79750261Y-62207384D02*
X81648842Y-60308803D01*
X80291197Y-58951158D02*
X78392616Y-60849739D01*
%TO.C,R4*%
X91564953Y-47977922D02*
X91886070Y-47656805D01*
X92604400Y-49017369D02*
X92925517Y-48696252D01*
%TO.C,D21*%
X72392616Y-54849739D02*
X73750261Y-56207384D01*
X73750261Y-56207384D02*
X75648842Y-54308803D01*
X74291197Y-52951158D02*
X72392616Y-54849739D01*
%TO.C,R18*%
X106835000Y-54185436D02*
X106835000Y-54639564D01*
X105365000Y-54185436D02*
X105365000Y-54639564D01*
%TD*%
M02*
