<svg id="Layer_1" data-name="Layer 1" xmlns="http://www.w3.org/2000/svg" viewBox="0 0 930 230"><title>oneline</title><path d="M49.13,108.47l84.41,84.4L87.62,101l4.54-1.87,48.31,96.62,48.29-96.6,4.54,1.88-45.9,91.81,84.4-84.4L140.47,70.86Zm91.34-42.91L229.36,29l-26.9,53.78-4.54-1.87,21.2-42.4L146.9,68.21l93.57,38.52-100,100h0l-100-100L134,68.21,61.81,38.47,83,80.81l-4.55,1.87L51.58,29Z"/><path d="M310.1,88.4v24.39h32.11v5.68H310.1v26.34h-6.56V82.72h42.58V88.4Z"/><path d="M402.08,144.81l-14.19-20a46,46,0,0,1-5,.26H366.25v19.69h-6.56V82.72h23.24c15.78,0,25.36,8,25.36,21.29,0,9.76-5.14,16.59-14.19,19.52l15.17,21.28Zm-.35-40.8c0-9.93-6.56-15.61-19-15.61h-16.5v31.13h16.5C395.17,119.53,401.73,113.77,401.73,104Z"/><path d="M423.81,82.72h6.57v62.09h-6.57Z"/><path d="M486.17,127c0,10.37-7.54,18.36-22.53,18.36-9,0-17.57-3.11-22.36-8l3.11-5.05c4,4.17,11.18,7.18,19.25,7.18,10.29,0,16-4.79,16-12.5,0-7.46-5.23-12.33-16.76-12.33H458.4V110L475.61,88.4H443.86V82.72h39.91v4.53l-17.56,22.08C479.51,110,486.17,117.05,486.17,127Z"/><path d="M500.62,82.72H525.9c19.87,0,33.26,12.78,33.26,31.05s-13.39,31-33.26,31H500.62Zm24.93,56.42c16.49,0,27.14-10.47,27.14-25.37S542,88.4,525.55,88.4H507.19v50.74Z"/><path d="M591.62,113.77c0-18.18,13.84-31.58,32.56-31.58,9,0,17.2,3,22.7,9l-4.17,4.17c-5.05-5.15-11.26-7.36-18.36-7.36-15,0-26.25,11-26.25,25.72s11.26,25.72,26.25,25.72c7.1,0,13.31-2.22,18.36-7.45l4.17,4.17c-5.5,6-13.66,9.14-22.79,9.14C605.46,145.35,591.62,132,591.62,113.77Z"/><path d="M698.24,128.23H663.65l-7.46,16.58h-6.82l28.38-62.09h6.47l28.39,62.09h-6.92Zm-2.39-5.32L680.94,89.55,666,122.91Z"/><path d="M787.38,82.72v62.09h-6.3V95.14l-24.39,41.78h-3.1l-24.4-41.51v49.4H722.9V82.72h5.41l27,46,26.7-46Z"/><path d="M856.21,104c0,13.22-9.58,21.2-25.37,21.2H814.16v19.6H807.6V82.72h23.24C846.63,82.72,856.21,90.71,856.21,104Zm-6.57,0c0-9.93-6.56-15.61-19-15.61h-16.5v31.05h16.5C843.08,119.45,849.64,113.77,849.64,104Z"/></svg>