<svg id="Layer_1" data-name="Layer 1" xmlns="http://www.w3.org/2000/svg" viewBox="0 0 600 260"><title>twoline</title><path d="M45.13,120.47l84.41,84.4L83.62,113l4.54-1.87,48.31,96.62,48.29-96.6,4.54,1.88-45.9,91.81,84.4-84.4L136.47,82.86Zm91.34-42.91L225.36,41l-26.9,53.78-4.54-1.87,21.2-42.4L142.9,80.21l93.57,38.52-100,100h0l-100-100L130,80.21,57.81,50.47,79,92.81l-4.55,1.87L47.58,41Z"/><path d="M282,68.84v25h32.88v5.81H282v27h-6.72V63h43.6v5.82Z"/><path d="M376.21,126.61l-14.54-20.44a45.58,45.58,0,0,1-5.08.27H339.51v20.17h-6.72V63h23.8c16.16,0,26,8.18,26,21.8,0,10-5.26,17-14.53,20l15.53,21.8Zm-.37-41.79c0-10.17-6.72-16-19.44-16H339.51v31.88H356.4C369.12,100.72,375.84,94.81,375.84,84.82Z"/><path d="M398.46,63h6.72v63.59h-6.72Z"/><path d="M462.31,108.35c0,10.63-7.72,18.8-23.07,18.8-9.17,0-18-3.18-22.89-8.17l3.18-5.18c4.09,4.27,11.44,7.36,19.71,7.36,10.54,0,16.35-4.91,16.35-12.81,0-7.63-5.36-12.63-17.17-12.63h-4.54V90.91L451.5,68.84H419V63h40.88v4.63l-18,22.62C455.5,91,462.31,98.18,462.31,108.35Z"/><path d="M477.12,63H503c20.35,0,34.07,13.08,34.07,31.79s-13.72,31.8-34.07,31.8H477.12Zm25.52,57.77c16.9,0,27.8-10.72,27.8-26s-10.9-26-27.8-26h-18.8v52Z"/><path d="M269.66,173.81c0-18.62,14.17-32.33,33.33-32.33,9.27,0,17.63,3.08,23.26,9.26L322,155c-5.18-5.27-11.54-7.54-18.8-7.54-15.36,0-26.89,11.27-26.89,26.34s11.53,26.35,26.89,26.35c7.26,0,13.62-2.27,18.8-7.63l4.27,4.26c-5.63,6.18-14,9.36-23.35,9.36C283.83,206.15,269.66,192.44,269.66,173.81Z"/><path d="M378.84,188.62H343.41l-7.63,17h-7L357.86,142h6.63l29.07,63.59h-7.09Zm-2.45-5.45L361.13,149l-15.26,34.15Z"/><path d="M470.13,142v63.59h-6.45V154.74l-25,42.78h-3.18l-25-42.51v50.6h-6.45V142h5.54l27.61,47.14L464.59,142Z"/><path d="M540.61,163.82c0,13.54-9.81,21.71-26,21.71H497.56v20.08h-6.73V142h23.8C530.8,142,540.61,150.2,540.61,163.82Zm-6.72,0c0-10.17-6.72-16-19.44-16H497.56v31.8h16.89C527.17,179.63,533.89,173.81,533.89,163.82Z"/></svg>