<svg id="Layer_1" data-name="Layer 1" xmlns="http://www.w3.org/2000/svg" viewBox="0 0 350 430"><title>vertical</title><path d="M83.66,111l84.4,84.41L122.14,103.6l4.55-1.87L175,198.34l48.3-96.59,4.54,1.87-45.91,91.82L266.33,111,175,73.42ZM175,68.12l88.89-36.6L237,85.3l-4.54-1.87L253.65,41,181.43,70.77,275,109.3l-100,100h0L75,109.3l93.57-38.53L96.34,41l21.17,42.34L113,85.25,86.1,31.52Z"/><path d="M51.87,255.63v25H84.75v5.81H51.87v27H45.15V249.82h43.6v5.81Z"/><path d="M146.07,313.4,131.53,293a43.29,43.29,0,0,1-5.09.28H109.37V313.4h-6.72V249.82h23.79c16.17,0,26,8.17,26,21.8,0,10-5.27,17-14.53,20l15.53,21.8Zm-.37-41.78c0-10.18-6.72-16-19.44-16H109.37v31.88h16.89C139,287.51,145.7,281.61,145.7,271.62Z"/><path d="M168.32,249.82H175V313.4h-6.72Z"/><path d="M232.17,295.14c0,10.63-7.72,18.81-23.07,18.81-9.18,0-18-3.18-22.89-8.18l3.18-5.18c4.09,4.27,11.44,7.36,19.71,7.36,10.54,0,16.35-4.9,16.35-12.81,0-7.63-5.36-12.62-17.17-12.62h-4.54V277.7l17.62-22.07H188.84v-5.81h40.88v4.63l-18,22.62C225.36,277.79,232.17,285,232.17,295.14Z"/><path d="M247,249.82h25.88c20.35,0,34.07,13.08,34.07,31.79s-13.72,31.79-34.07,31.79H247Zm25.52,57.77c16.9,0,27.8-10.72,27.8-26s-10.9-26-27.8-26H253.7v52Z"/><path d="M39.52,360.61c0-18.62,14.17-32.34,33.33-32.34,9.27,0,17.63,3.09,23.26,9.27l-4.27,4.27c-5.18-5.27-11.54-7.54-18.8-7.54-15.36,0-26.89,11.26-26.89,26.34S57.68,387,73,387c7.26,0,13.62-2.27,18.8-7.63l4.27,4.27c-5.63,6.18-14,9.36-23.35,9.36C53.69,393,39.52,379.23,39.52,360.61Z"/><path d="M148.7,375.42H113.27l-7.63,17h-7l29.07-63.58h6.63l29.06,63.58h-7.08ZM146.25,370,131,335.81,115.73,370Z"/><path d="M240,328.82V392.4h-6.45V341.53l-25,42.79h-3.18l-25-42.51V392.4H174V328.82h5.54L207.1,376l27.34-47.14Z"/><path d="M310.47,350.62c0,13.53-9.81,21.71-26,21.71H267.41V392.4h-6.72V328.82h23.8C300.66,328.82,310.47,337,310.47,350.62Zm-6.72,0c0-10.18-6.72-16-19.44-16h-16.9v31.79h16.9C297,366.42,303.75,360.61,303.75,350.62Z"/></svg>